<svg xmlns="http://www.w3.org/2000/svg" xmlns:xlink="http://www.w3.org/1999/xlink" version="1.1" width="226.772" height="170.079" viewBox="0 0 226.772 170.079">
<defs>
<clipPath id="clip_0">
<path transform="matrix(1,0,0,-1,0,170.079)" d="M0 170.079H226.772V0H0Z"/>
</clipPath>
<clipPath id="clip_1">
<path transform="matrix(1,0,0,-1,0,170.079)" d="M78.0726 48.9071H98.3785V51.0241H78.0726Z"/>
</clipPath>
<clipPath id="clip_2">
<path transform="matrix(1,0,0,-1,0,170.079)" d="M77.7785 30.1159H98.6727V51.0087H77.7785Z"/>
</clipPath>
</defs>
<g>
<g id="layer_1" data-name="Capa 1">
<g clip-path="url(#clip_0)">
<path transform="matrix(1,0,0,-1,143.0488,67.48509)" d="M0 0 .041 .173 3.421 5.773H5.162L6.179 7.485H4.446L5.858 9.8H3.449L2.053 7.485H.767L-.253 5.773H1.024L-2.729-.443C-2.831-.608-2.884-.794-2.876-1.003-2.857-1.574-2.383-2.027-1.823-2.027H.818L1.846-.315H.327C.155-.315 .006-.175 0 0" fill="#0b2f87"/>
<path transform="matrix(1,0,0,-1,154.3134,62.979196)" d="M0 0C-.275-.622-.48-.932-.527-.999H-4.488C-4.123-.452-3.781 .022-3.553 .273-3.008 .875-2.001 1.162-1.335 1.162-.68 1.162 .384 .888 0 0M-.853 2.477C-1.75 2.477-3.977 2.385-5.134 1.125-5.568 .651-6.06 .133-6.723-.766-7.256-1.497-8.118-2.869-8.597-4.15-9.487-6.451-6.227-6.533-6.227-6.533H-1.988L-.71-4.53H-5.624C-5.624-4.53-6.493-4.46-5.944-3.452-5.821-3.222-5.679-2.972-5.526-2.709H.409C.527-2.531 1.219-1.472 2.057 .057 3.245 2.226 .15 2.477-.853 2.477" fill="#0b2f87"/>
<path transform="matrix(1,0,0,-1,175.0919,62.979196)" d="M0 0C-.275-.622-.481-.932-.528-.999H-4.489C-4.124-.452-3.781 .022-3.553 .273-3.009 .875-2 1.162-1.336 1.162-.681 1.162 .383 .888 0 0M-.853 2.477C-1.75 2.477-3.977 2.385-5.134 1.125-5.568 .651-6.061 .133-6.725-.766-7.256-1.497-8.118-2.869-8.597-4.15-9.488-6.451-6.227-6.533-6.227-6.533H-1.988L-.71-4.53H-5.624C-5.624-4.53-6.492-4.46-5.944-3.452-5.822-3.222-5.679-2.972-5.526-2.709L-5.519-2.71V-2.709H.409C.527-2.531 1.218-1.472 2.056 .057 3.245 2.226 .15 2.477-.853 2.477" fill="#0b2f87"/>
<path transform="matrix(1,0,0,-1,160.956,66.77229)" d="M0 0C.094 .267 .567 1.309 1.352 2.296 2.195 3.342 3.394 4.347 4.681 4.347H7.007L8.218 6.261H5.286C4.387 6.261 2.732 6.062 1.122 4.859 .608 4.471 .03 3.926-.623 3.027-1.157 2.296-2.016 .924-2.509-.357-3.398-2.658-.137-2.74-.137-2.74H3.473L4.734-.736H.551C.551-.736-.241-.723 0 0" fill="#0b2f87"/>
<path transform="matrix(1,0,0,-1,160.6614,57.685396)" d="M0 0-7.336-11.827H-4.938L2.398 0Z" fill="#0b2f87"/>
<path transform="matrix(1,0,0,-1,181.4022,57.685396)" d="M0 0-7.336-11.827H-4.939L2.398 0Z" fill="#0b2f87"/>
<path transform="matrix(1,0,0,-1,48.0031,61.392694)" d="M0 0H3.644V-4.375H9.477V0H13.124L17.499-8.021H13.851L11.769-4.201 6.561-8.021 1.352-4.201-.732-8.021H-4.376Z" fill="#009ad9" fill-rule="evenodd"/>
<path transform="matrix(1,0,0,-1,65.5017,61.392694)" d="M0 0V3.646H-21.875V0H-18.231L-17.831 .73H-13.126V-3.644H-8.75V.73H-4.045L-3.648 0Z" fill="#009ad9" fill-rule="evenodd"/>
<path transform="matrix(1,0,0,-1,123.0038,59.934297)" d="M0 0-3.042-3.405 .312-7.292H-2.394L-4.37-4.892-6.515-7.292H-8.912L-5.518-3.494-8.395 0H-5.98L-4.219-2.04-2.394 0Z" fill="#0d0b15"/>
<path transform="matrix(1,0,0,-1,108.1477,62.541696)" d="M0 0H4.568V-1.476L0-1.458V-3.225H5.381V-4.684H-1.946V2.607H5.381V1.149H0Z" fill="#0d0b15"/>
<path transform="matrix(1,0,0,-1,79.782,62.541696)" d="M0 0H4.566V-1.476L0-1.458V-3.225H5.377V-4.684H-1.95V2.607H5.377V1.149H0Z" fill="#0d0b15"/>
<path transform="matrix(1,0,0,-1,94.6991,59.934297)" d="M0 0H3.413L5.049-4.186 6.742 0H10.188V-7.292H8.205V-1.474L5.741-7.292H4.325L1.947-1.458V-7.292H0Z" fill="#0d0b15"/>
<path transform="matrix(1,0,0,-1,69.1485,59.934297)" d="M0 0H7.721V-1.458H4.826V-7.292H2.879V-1.458H0Z" fill="#0d0b15"/>
<path transform="matrix(1,0,0,-1,86.4905,59.934297)" d="M0 0H1.983V-5.832H7.327V-7.292H0Z" fill="#0d0b15"/>
<path transform="matrix(1,0,0,-1,125.2939,65.036899)" d="M0 0C.804 0 1.458-.653 1.458-1.46 1.458-2.265 .804-2.917 0-2.917-.806-2.917-1.459-2.265-1.459-1.46-1.459-.653-.806 0 0 0M0-.17C-.711-.17-1.289-.748-1.289-1.46-1.289-2.17-.711-2.746 0-2.746 .711-2.746 1.289-2.17 1.289-1.46 1.289-.748 .711-.17 0-.17M.15-1.343C.251-1.343 .334-1.323 .393-1.281 .454-1.24 .485-1.166 .485-1.058 .485-.941 .443-.863 .358-.82 .314-.799 .254-.787 .179-.787H-.36V-1.343ZM-.58-.599H.173C.296-.599 .398-.617 .481-.653 .633-.722 .708-.85 .708-1.037 .708-1.133 .688-1.212 .646-1.276 .608-1.339 .553-1.388 .481-1.425 .542-1.451 .591-1.484 .624-1.527 .654-1.568 .672-1.637 .675-1.73L.684-1.949C.685-2.01 .692-2.057 .699-2.087 .714-2.139 .735-2.172 .77-2.188V-2.223H.5C.493-2.209 .487-2.193 .483-2.169 .477-2.148 .474-2.104 .472-2.041L.457-1.77C.454-1.663 .415-1.593 .341-1.556 .296-1.537 .232-1.527 .14-1.527H-.36V-2.223H-.58Z" fill="#0d0b15" fill-rule="evenodd"/>
<path transform="matrix(1,0,0,-1,16.9076,37.059999)" d="M0 0-2.795-5.063V-5.439H2.849V-5.063ZM-4.954-3.844C-4.954-3.844-4.876-3.75-1.221 2.776H1.276L4.989-3.807C5.085-3.976 5.441-4.726 5.441-5.326V-10.654H2.849V-7.54H-2.795V-10.654H-5.384V-5.326C-5.384-4.726-5.03-3.997-4.954-3.844" fill="#111414"/>
<path transform="matrix(1,0,0,-1,24.4094,47.713899)" d="M0 0V11.574H-1.237V13.373H2.458V0Z" fill="#111414"/>
<path transform="matrix(1,0,0,-1,35.1763,40.99739)" d="M0 0-1.2 .899H-2.924L-3.62 .262V-4.203L-2.924-4.842H-1.2L0-3.941ZM-1.817-6.903H-3.148C-3.789-6.903-4.164-6.832-4.594-6.416L-5.568-5.499C-5.795-5.276-6.057-4.711-6.057-4.147V.205C-6.057 .768-5.795 1.329-5.568 1.555L-4.594 2.474C-4.164 2.888-3.789 2.964-3.148 2.964H-1.817C-1.295 2.964-.99 2.924-.694 2.642L0 1.968V6.658H2.44V-6.716H.564L.19-5.91C.19-5.91-.786-6.903-1.817-6.903" fill="#111414"/>
<path transform="matrix(1,0,0,-1,45.2506,40.2865)" d="M0 0H-2.251L-2.928-.636V-1.802H.77V-.731ZM2.307-5.366C2.664-6.453 2.664-6.528 2.664-6.528 2.664-6.81 1.668-7.427 .786-7.427H-2.831C-3.488-7.427-3.866-7.372-4.297-6.938L-4.876-6.359C-5.12-6.114-5.383-5.572-5.383-5.027V-.693C-5.383-.13-5.138 .413-4.876 .656L-3.921 1.575C-3.488 1.989-3.115 2.063-2.476 2.063H.114C.77 2.063 1.145 1.989 1.577 1.575L2.533 .656C2.776 .433 3.018-.13 3.018-.693V-2.362C3.018-2.778 2.458-3.321 2.026-3.321H-2.928V-5.065L-2.628-5.366Z" fill="#111414"/>
<path transform="matrix(1,0,0,-1,55.8884,43.607896)" d="M0 0H-3.115C-3.209 0-3.302-.092-3.302-.187V-1.931L-3.001-2.233H-1.2L0-1.331ZM.191-2.927C.191-2.927-.617-4.293-1.8-4.293H-3.228C-4.445-4.293-5.742-3.207-5.742-1.894V-.731C-5.742 .49-5.029 1.52-3.302 1.52H0V2.685L-.674 3.321H-4.86C-5.215 4.409-5.215 4.485-5.215 4.485-5.215 4.767-4.241 5.385-3.338 5.385H-.45C.191 5.385 .563 5.311 .996 4.896L1.953 3.977C2.215 3.754 2.44 3.191 2.44 2.629V-4.106H.563Z" fill="#111414"/>
<path transform="matrix(1,0,0,-1,72.9041,45.426294)" d="M0 0 .786 .73V8.066L0 8.797H-4.859V0ZM3.375 .693C3.375 .075 3.299-.282 2.833-.714L1.651-1.819C1.407-2.047 .824-2.288 .224-2.288H-7.45V11.087H.243C.88 11.087 1.257 11.012 1.724 10.58L2.906 9.474C3.148 9.248 3.375 8.665 3.375 8.104Z" fill="#111414"/>
<path transform="matrix(1,0,0,-1,80.107,34.24489)" d="M0 0C.769 0 1.366-.601 1.366-1.371 1.366-2.084 .769-2.683 0-2.683-.714-2.683-1.313-2.084-1.313-1.371-1.313-.601-.714 0 0 0M1.256-13.469H-1.2V-5.779H-2.439V-3.978H1.256Z" fill="#111414"/>
<path transform="matrix(1,0,0,-1,88.4171,43.230798)" d="M0 0C.395 0 .73 .394 .73 1.142V2.944H-1.988L-2.664 2.308V.637L-2.063 0ZM1.93-7.748C1.499-8.178 1.145-8.233 .468-8.233H-3.338C-4.201-8.162-5.177-7.635-5.177-7.297L-4.877-6.172H.487C.487-6.172 1.106-5.702 1.106-5.31 1.106-5.178 1.049-5.009 .863-4.971L-3.36-4.145C-4.352-3.959-4.803-3.359-4.803-2.611-4.803-1.991-4.334-1.388-3.658-1.296-3.808-1.127-4.614-.301-4.614-.301-4.877-.077-5.105 .487-5.105 1.07V2.251C-5.105 2.814-4.877 3.357-4.614 3.6L-3.64 4.519C-3.209 4.934-2.835 5.007-2.213 5.007H1.858C2.72 5.007 3.712 4.389 3.712 4.051L3.373 2.983H2.362C2.362 2.983 3.002 2.551 3.002 1.165 3.002-.207 2.328-1.484 .299-1.69H-2.12C-2.458-1.69-2.628-1.878-2.628-2.028-2.628-2.14-2.57-2.251-2.4-2.29L1.536-3.041C2.682-3.265 3.373-4.206 3.373-5.383 3.373-6.172 2.832-6.865 1.93-7.748" fill="#111414"/>
<path transform="matrix(1,0,0,-1,95.1544,34.24489)" d="M0 0C.767 0 1.364-.601 1.364-1.371 1.364-2.084 .767-2.683 0-2.683-.719-2.683-1.316-2.084-1.316-1.371-1.316-.601-.719 0 0 0M1.254-13.469H-1.202V-5.779H-2.441V-3.978H1.254Z" fill="#111414"/>
<path transform="matrix(1,0,0,-1,102.3355,45.351297)" d="M0 0 .319-.301H2.458V-2.363H.074C-.564-2.363-.937-2.29-1.369-1.876L-1.97-1.294C-2.215-1.07-2.44-.507-2.44 .056V5.328H-3.995V7.128H-2.44V9.999H0V7.128H2.551V5.328H0Z" fill="#111414"/>
<path transform="matrix(1,0,0,-1,112.09,43.607896)" d="M0 0H-3.112C-3.21 0-3.3-.092-3.3-.187V-1.931L-3.003-2.233H-1.203L0-1.331ZM.187-2.927C.187-2.927-.62-4.293-1.802-4.293H-3.225C-4.447-4.293-5.742-3.207-5.742-1.894V-.731C-5.742 .49-5.027 1.52-3.3 1.52H0V2.685L-.675 3.321H-4.859C-5.215 4.409-5.215 4.485-5.215 4.485-5.215 4.767-4.24 5.385-3.34 5.385H-.45C.187 5.385 .563 5.311 .995 4.896L1.952 3.977C2.212 3.754 2.439 3.191 2.439 2.629V-4.106H.563Z" fill="#111414"/>
<path transform="matrix(1,0,0,-1,116.8715,47.713899)" d="M0 0V11.574H-1.236V13.373H2.459V0Z" fill="#111414"/>
<path transform="matrix(1,0,0,-1,0,170.079)" d="M127.587 122.366H124.629V135.816H127.587Z" fill="#009ad9"/>
<path transform="matrix(1,0,0,-1,134.3689,39.989198)" d="M0 0H-4.69V2.016H3.523V0L-1.545-5.708H3.881V-7.724H-5.068V-5.708Z" fill="#009ad9"/>
<path transform="matrix(1,0,0,-1,145.031,37.973299)" d="M0 0V-1.79H-1.959V-6.612C-1.959-7.064-1.883-7.366-1.734-7.516-1.582-7.667-1.281-7.743-.829-7.743-.678-7.743-.533-7.737-.396-7.724-.258-7.712-.126-7.693 0-7.667V-9.74C-.227-9.777-.478-9.803-.754-9.815-1.03-9.827-1.3-9.834-1.564-9.834-1.978-9.834-2.371-9.805-2.741-9.749-3.111-9.692-3.438-9.583-3.721-9.419-4.003-9.256-4.226-9.024-4.39-8.722-4.552-8.421-4.635-8.025-4.635-7.536V-1.79H-6.255V0H-4.635V2.919H-1.959V0Z" fill="#009ad9"/>
<path transform="matrix(1,0,0,-1,152.3776,42.946794)" d="M0 0C-.112-.1-.255-.179-.424-.236-.593-.292-.775-.339-.97-.377-1.165-.415-1.369-.446-1.583-.471-1.797-.496-2.009-.528-2.222-.565-2.423-.603-2.621-.653-2.816-.716-3.011-.779-3.18-.864-3.325-.97-3.47-1.077-3.585-1.212-3.673-1.376-3.761-1.539-3.805-1.746-3.805-1.997-3.805-2.236-3.761-2.437-3.673-2.6-3.585-2.763-3.466-2.892-3.315-2.986-3.165-3.08-2.99-3.146-2.789-3.184-2.588-3.222-2.379-3.24-2.166-3.24-1.639-3.24-1.23-3.152-.942-2.977-.653-2.801-.439-2.59-.301-2.346-.163-2.101-.079-1.852-.047-1.601-.016-1.35 0-1.149 0-.998ZM-6.179 1.978C-6.141 2.606-5.984 3.127-5.708 3.541-5.432 3.956-5.079 4.288-4.653 4.54-4.226 4.791-3.746 4.97-3.212 5.077-2.678 5.184-2.142 5.237-1.601 5.237-1.112 5.237-.615 5.202-.112 5.133 .389 5.064 .848 4.929 1.262 4.728 1.676 4.527 2.016 4.248 2.279 3.89 2.544 3.532 2.675 3.058 2.675 2.468V-2.6C2.675-3.04 2.7-3.46 2.75-3.862 2.801-4.264 2.889-4.565 3.014-4.766H.301C.251-4.615 .21-4.462 .179-4.305 .147-4.148 .125-3.988 .113-3.824-.314-4.264-.817-4.572-1.394-4.747-1.972-4.923-2.562-5.011-3.165-5.011-3.629-5.011-4.063-4.954-4.465-4.841-4.867-4.729-5.218-4.552-5.52-4.314-5.821-4.076-6.057-3.774-6.226-3.41-6.395-3.045-6.481-2.612-6.481-2.11-6.481-1.557-6.383-1.102-6.188-.744-5.994-.386-5.743-.1-5.435 .113-5.127 .326-4.775 .487-4.38 .593-3.984 .7-3.585 .785-3.183 .848-2.781 .911-2.387 .961-1.997 .998-1.608 1.036-1.261 1.092-.96 1.168-.659 1.243-.421 1.353-.245 1.497-.068 1.641 .012 1.852 0 2.128 0 2.417-.047 2.646-.142 2.816-.235 2.986-.361 3.117-.518 3.212-.675 3.306-.858 3.369-1.064 3.4-1.271 3.432-1.495 3.447-1.733 3.447-2.261 3.447-2.675 3.334-2.977 3.108-3.278 2.882-3.454 2.505-3.504 1.978Z" fill="#009ad9"/>
<path transform="matrix(1,0,0,-1,163.1439,45.69699)" d="M0 0C.294 .175 .533 .405 .715 .688 .897 .97 1.027 1.3 1.102 1.676 1.176 2.053 1.215 2.436 1.215 2.825 1.215 3.214 1.174 3.598 1.092 3.974 1.01 4.351 .875 4.688 .687 4.983 .499 5.278 .257 5.516-.038 5.698-.333 5.881-.694 5.972-1.122 5.972-1.561 5.972-1.928 5.881-2.223 5.698-2.519 5.516-2.757 5.28-2.939 4.992-3.122 4.703-3.25 4.37-3.325 3.993-3.401 3.617-3.438 3.227-3.438 2.825-3.438 2.436-3.398 2.053-3.316 1.676-3.234 1.3-3.102 .97-2.92 .688-2.738 .405-2.496 .175-2.195 0-1.893-.176-1.529-.264-1.102-.264-.663-.264-.296-.176 0 0M-3.476 7.724V6.48H-3.438C-3.112 7.008-2.697 7.39-2.195 7.629-1.693 7.867-1.14 7.987-.537 7.987 .228 7.987 .888 7.843 1.44 7.554 1.993 7.264 2.452 6.882 2.816 6.405 3.18 5.927 3.45 5.372 3.626 4.738 3.802 4.103 3.889 3.441 3.889 2.75 3.889 2.097 3.802 1.469 3.626 .866 3.45 .263 3.183-.27 2.825-.735 2.468-1.199 2.021-1.57 1.488-1.846 .954-2.123 .329-2.261-.387-2.261-.989-2.261-1.545-2.138-2.053-1.893-2.563-1.649-2.98-1.288-3.307-.81H-3.344V-5.426H-6.019V7.724Z" fill="#009ad9"/>
<path transform="matrix(1,0,0,-1,174.7003,42.946794)" d="M0 0C-.113-.1-.254-.179-.424-.236-.594-.292-.775-.339-.97-.377-1.166-.415-1.368-.446-1.582-.471-1.796-.496-2.01-.528-2.223-.565-2.424-.603-2.621-.653-2.816-.716-3.011-.779-3.18-.864-3.325-.97-3.469-1.077-3.586-1.212-3.674-1.376-3.761-1.539-3.805-1.746-3.805-1.997-3.805-2.236-3.761-2.437-3.674-2.6-3.586-2.763-3.465-2.892-3.316-2.986-3.164-3.08-2.989-3.146-2.788-3.184-2.587-3.222-2.38-3.24-2.167-3.24-1.639-3.24-1.231-3.152-.942-2.977-.653-2.801-.44-2.59-.301-2.346-.164-2.101-.079-1.852-.048-1.601-.016-1.35 0-1.149 0-.998ZM-6.178 1.978C-6.142 2.606-5.985 3.127-5.708 3.541-5.431 3.956-5.08 4.288-4.653 4.54-4.226 4.791-3.746 4.97-3.212 5.077-2.678 5.184-2.141 5.237-1.601 5.237-1.111 5.237-.616 5.202-.113 5.133 .389 5.064 .848 4.929 1.262 4.728 1.677 4.527 2.016 4.248 2.28 3.89 2.543 3.532 2.674 3.058 2.674 2.468V-2.6C2.674-3.04 2.7-3.46 2.75-3.862 2.8-4.264 2.888-4.565 3.014-4.766H.301C.251-4.615 .21-4.462 .179-4.305 .148-4.148 .126-3.988 .113-3.824-.314-4.264-.817-4.572-1.394-4.747-1.971-4.923-2.562-5.011-3.164-5.011-3.63-5.011-4.063-4.954-4.465-4.841-4.867-4.729-5.217-4.552-5.519-4.314-5.82-4.076-6.056-3.774-6.226-3.41-6.396-3.045-6.48-2.612-6.48-2.11-6.48-1.557-6.383-1.102-6.188-.744-5.994-.386-5.743-.1-5.435 .113-5.127 .326-4.775 .487-4.38 .593-3.984 .7-3.586 .785-3.184 .848-2.782 .911-2.386 .961-1.997 .998-1.608 1.036-1.262 1.092-.961 1.168-.659 1.243-.42 1.353-.245 1.497-.069 1.641 .013 1.852 0 2.128 0 2.417-.048 2.646-.141 2.816-.236 2.986-.362 3.117-.518 3.212-.675 3.306-.857 3.369-1.064 3.4-1.271 3.432-1.494 3.447-1.734 3.447-2.261 3.447-2.674 3.334-2.976 3.108-3.277 2.882-3.454 2.505-3.504 1.978Z" fill="#009ad9"/>
<path transform="matrix(1,0,0,-1,0,170.079)" d="M182.198 122.366H179.524V135.816H182.198Z" fill="#009ad9"/>
<path transform="matrix(1,0,0,-1,190.3735,42.946794)" d="M0 0C-.112-.1-.255-.179-.424-.236-.593-.292-.775-.339-.97-.377-1.165-.415-1.369-.446-1.583-.471-1.797-.496-2.01-.528-2.222-.565-2.423-.603-2.621-.653-2.816-.716-3.012-.779-3.18-.864-3.325-.97-3.47-1.077-3.585-1.212-3.673-1.376-3.761-1.539-3.805-1.746-3.805-1.997-3.805-2.236-3.761-2.437-3.673-2.6-3.585-2.763-3.466-2.892-3.315-2.986-3.165-3.08-2.99-3.146-2.789-3.184-2.588-3.222-2.379-3.24-2.166-3.24-1.639-3.24-1.23-3.152-.942-2.977-.653-2.801-.439-2.59-.301-2.346-.163-2.101-.079-1.852-.047-1.601-.016-1.35 0-1.149 0-.998ZM-6.179 1.978C-6.141 2.606-5.984 3.127-5.708 3.541-5.432 3.956-5.079 4.288-4.653 4.54-4.226 4.791-3.746 4.97-3.212 5.077-2.678 5.184-2.142 5.237-1.601 5.237-1.112 5.237-.615 5.202-.112 5.133 .389 5.064 .848 4.929 1.262 4.728 1.676 4.527 2.016 4.248 2.279 3.89 2.544 3.532 2.675 3.058 2.675 2.468V-2.6C2.675-3.04 2.7-3.46 2.75-3.862 2.801-4.264 2.889-4.565 3.014-4.766H.301C.251-4.615 .21-4.462 .179-4.305 .147-4.148 .125-3.988 .113-3.824-.314-4.264-.817-4.572-1.394-4.747-1.972-4.923-2.562-5.011-3.165-5.011-3.629-5.011-4.063-4.954-4.465-4.841-4.867-4.729-5.218-4.552-5.52-4.314-5.821-4.076-6.057-3.774-6.226-3.41-6.395-3.045-6.481-2.612-6.481-2.11-6.481-1.557-6.383-1.102-6.188-.744-5.994-.386-5.743-.1-5.435 .113-5.127 .326-4.775 .487-4.38 .593-3.984 .7-3.585 .785-3.183 .848-2.781 .911-2.387 .961-1.997 .998-1.608 1.036-1.261 1.092-.96 1.168-.659 1.243-.421 1.353-.245 1.497-.069 1.641 .012 1.852 0 2.128 0 2.417-.047 2.646-.142 2.816-.235 2.986-.361 3.117-.518 3.212-.675 3.306-.858 3.369-1.064 3.4-1.271 3.432-1.495 3.447-1.733 3.447-2.261 3.447-2.675 3.334-2.977 3.108-3.278 2.882-3.454 2.505-3.504 1.978Z" fill="#009ad9"/>
<path transform="matrix(1,0,0,-1,201.1389,45.69699)" d="M0 0C.295 .175 .534 .405 .715 .688 .898 .97 1.027 1.3 1.102 1.676 1.177 2.053 1.216 2.436 1.216 2.825 1.216 3.214 1.174 3.598 1.092 3.974 1.011 4.351 .876 4.688 .688 4.983 .5 5.278 .257 5.516-.037 5.698-.333 5.881-.694 5.972-1.121 5.972-1.561 5.972-1.928 5.881-2.222 5.698-2.518 5.516-2.757 5.28-2.938 4.992-3.121 4.703-3.249 4.37-3.325 3.993-3.401 3.617-3.438 3.227-3.438 2.825-3.438 2.436-3.397 2.053-3.316 1.676-3.234 1.3-3.102 .97-2.92 .688-2.737 .405-2.496 .175-2.195 0-1.893-.176-1.529-.264-1.102-.264-.662-.264-.295-.176 0 0M-3.476 7.724V6.48H-3.438C-3.112 7.008-2.697 7.39-2.195 7.629-1.693 7.867-1.139 7.987-.537 7.987 .229 7.987 .889 7.843 1.44 7.554 1.994 7.264 2.452 6.882 2.816 6.405 3.18 5.927 3.45 5.372 3.626 4.738 3.803 4.103 3.89 3.441 3.89 2.75 3.89 2.097 3.803 1.469 3.626 .866 3.45 .263 3.183-.27 2.825-.735 2.468-1.199 2.021-1.57 1.488-1.846 .954-2.123 .33-2.261-.386-2.261-.989-2.261-1.545-2.138-2.053-1.893-2.562-1.649-2.98-1.288-3.306-.81H-3.344V-5.426H-6.018V7.724Z" fill="#009ad9"/>
<path transform="matrix(1,0,0,-1,212.6962,42.946794)" d="M0 0C-.113-.1-.255-.179-.424-.236-.594-.292-.776-.339-.97-.377-1.166-.415-1.369-.446-1.583-.471-1.797-.496-2.009-.528-2.223-.565-2.424-.603-2.621-.653-2.817-.716-3.012-.779-3.18-.864-3.325-.97-3.47-1.077-3.586-1.212-3.674-1.376-3.761-1.539-3.805-1.746-3.805-1.997-3.805-2.236-3.761-2.437-3.674-2.6-3.586-2.763-3.466-2.892-3.316-2.986-3.165-3.08-2.99-3.146-2.789-3.184-2.588-3.222-2.38-3.24-2.167-3.24-1.639-3.24-1.231-3.152-.943-2.977-.654-2.801-.44-2.59-.301-2.346-.164-2.101-.079-1.852-.048-1.601-.016-1.35 0-1.149 0-.998ZM-6.179 1.978C-6.142 2.606-5.985 3.127-5.709 3.541-5.432 3.956-5.08 4.288-4.653 4.54-4.227 4.791-3.747 4.97-3.212 5.077-2.678 5.184-2.142 5.237-1.602 5.237-1.112 5.237-.616 5.202-.113 5.133 .389 5.064 .848 4.929 1.262 4.728 1.676 4.527 2.015 4.248 2.279 3.89 2.543 3.532 2.674 3.058 2.674 2.468V-2.6C2.674-3.04 2.7-3.46 2.749-3.862 2.801-4.264 2.888-4.565 3.014-4.766H.301C.25-4.615 .21-4.462 .179-4.305 .147-4.148 .125-3.988 .113-3.824-.314-4.264-.817-4.572-1.394-4.747-1.972-4.923-2.563-5.011-3.165-5.011-3.63-5.011-4.063-4.954-4.465-4.841-4.867-4.729-5.218-4.552-5.52-4.314-5.821-4.076-6.057-3.774-6.226-3.41-6.396-3.045-6.481-2.612-6.481-2.11-6.481-1.557-6.383-1.102-6.189-.744-5.994-.386-5.743-.1-5.435 .113-5.128 .326-4.775 .487-4.381 .593-3.984 .7-3.586 .785-3.184 .848-2.782 .911-2.387 .961-1.997 .998-1.608 1.036-1.262 1.092-.961 1.168-.659 1.243-.421 1.353-.245 1.497-.069 1.641 .012 1.852 0 2.128 0 2.417-.048 2.646-.142 2.816-.236 2.986-.362 3.117-.519 3.212-.676 3.306-.858 3.369-1.065 3.4-1.271 3.432-1.495 3.447-1.734 3.447-2.262 3.447-2.675 3.334-2.977 3.108-3.278 2.882-3.454 2.505-3.504 1.978Z" fill="#009ad9"/>
<path transform="matrix(1,0,0,-1,53.3976,84.626399)" d="M0 0C1.318 0 1.306 1.946 1.306 2.829 1.306 3.735 1.306 5.778 .024 5.778-1.439 5.778-1.354 3.94-1.354 2.925-1.354 1.91-1.426 0 0 0M-1.33-2.745H-2.055V6.225H-1.354V5.621H-1.33C-1.028 6.081-.568 6.395 0 6.395 1.825 6.395 2.007 4.485 2.007 3.058 2.007 1.608 2.007-.617 .06-.617-.532-.617-.979-.399-1.306 .097H-1.33Z" fill="#009ad9"/>
<path transform="matrix(1,0,0,-1,57.5057,79.17519)" d="M0 0H.024C.375 .701 .834 .955 1.608 .944V.206C.52 .23 .037-.471 .037-1.523V-5.899H-.665V.774H0Z" fill="#009ad9"/>
<path transform="matrix(1,0,0,-1,63.452,81.725399)" d="M0 0C0 1.039-.024 2.877-1.462 2.877-2.72 2.877-2.792 1.051-2.792 .133-2.792-.859-2.865-2.901-1.426-2.901-.012-2.901 0-1.004 0 0M-3.493 .145C-3.493 1.644-3.215 3.494-1.378 3.494 .496 3.494 .701 1.475 .701 .012 .701-1.499 .508-3.518-1.414-3.518-3.445-3.518-3.493-1.402-3.493 .145" fill="#009ad9"/>
<path transform="matrix(1,0,0,-1,66.1337,85.074)" d="M0 0H-.701V6.672H0V6.081H.024C.315 6.564 .859 6.842 1.439 6.842 1.983 6.842 2.43 6.794 2.841 6.092H2.865C3.228 6.612 3.82 6.842 4.436 6.842 5.633 6.842 5.972 6.081 5.972 5.029V0H5.271V5.113C5.271 5.67 5.053 6.238 4.352 6.238 3.542 6.238 2.986 5.718 2.986 4.871V0H2.285V4.824C2.285 5.573 2.2 6.226 1.294 6.226 .738 6.226 0 5.681 0 5.09Z" fill="#009ad9"/>
<path transform="matrix(1,0,0,-1,76.8777,81.725399)" d="M0 0C0 1.039-.024 2.877-1.462 2.877-2.72 2.877-2.792 1.051-2.792 .133-2.792-.859-2.865-2.901-1.426-2.901-.012-2.901 0-1.004 0 0M-3.493 .145C-3.493 1.644-3.215 3.494-1.378 3.494 .496 3.494 .701 1.475 .701 .012 .701-1.499 .508-3.518-1.414-3.518-3.445-3.518-3.493-1.402-3.493 .145" fill="#009ad9"/>
<path transform="matrix(1,0,0,-1,80.5144,83.8044)" d="M0 0H.024L1.439 5.403H2.152L.387-1.27H-.374L-2.152 5.403H-1.402Z" fill="#009ad9"/>
<path transform="matrix(1,0,0,-1,0,170.079)" d="M83.849 91.677H84.549999V85.005008H83.849ZM83.801 94.071H84.611V92.923H83.801Z" fill="#009ad9"/>
<path transform="matrix(1,0,0,-1,89.0949,81.0851)" d="M0 0C0 .847-.084 2.237-1.221 2.237-2.309 2.237-2.43 .786-2.43 0ZM.701-.617H-2.43C-2.43-1.474-2.551-3.541-1.173-3.541-.181-3.541-.061-2.611 0-1.813H.677C.677-3.033 .181-4.158-1.185-4.158-3.046-4.158-3.131-2.054-3.131-.677-3.131 .665-3.046 2.853-1.209 2.853 .338 2.853 .701 1.33 .701 .061Z" fill="#009ad9"/>
<path transform="matrix(1,0,0,-1,91.7287,85.074)" d="M0 0H-.701V6.672H0V6.02H.024C.363 6.515 .882 6.842 1.535 6.842 2.393 6.842 3.095 6.261 3.095 5.295V0H2.393V4.847C2.393 5.609 2.333 6.226 1.414 6.226 .713 6.226 0 5.67 0 4.92Z" fill="#009ad9"/>
<path transform="matrix(1,0,0,-1,96.8402,81.84599)" d="M0 0C0-.944 .06-2.78 1.378-2.78 2.805-2.78 2.684-.521 2.684 .398 2.684 1.305 2.623 2.998 1.342 2.998 .012 2.998 0 .906 0 0M2.684 5.839H3.385V-3.228H2.684V-2.6H2.659C2.381-3.143 1.862-3.397 1.221-3.397-.58-3.397-.701-1.209-.701 .132-.701 1.474-.544 3.614 1.245 3.614 1.777 3.614 2.309 3.349 2.659 2.901H2.684Z" fill="#009ad9"/>
<path transform="matrix(1,0,0,-1,105.0581,81.725399)" d="M0 0C0 1.039-.024 2.877-1.462 2.877-2.72 2.877-2.792 1.051-2.792 .133-2.792-.859-2.865-2.901-1.426-2.901-.012-2.901 0-1.004 0 0M-3.493 .145C-3.493 1.644-3.215 3.494-1.378 3.494 .496 3.494 .701 1.475 .701 .012 .701-1.499 .508-3.518-1.414-3.518-3.445-3.518-3.493-1.402-3.493 .145" fill="#009ad9"/>
<path transform="matrix(1,0,0,-1,0,170.079)" d="M110.011 94.071H110.712V85.005H110.011Z" fill="#009ad9"/>
<path transform="matrix(1,0,0,-1,114.979,81.4715)" d="M0 0C-.459-.254-.931-.423-1.39-.617-2.104-.931-2.261-1.209-2.261-1.995-2.261-2.647-2.055-3.155-1.33-3.155-.87-3.155-.543-2.962-.339-2.66-.048-2.237 0-1.668 0-1.173ZM-2.78 1.39C-2.816 2.563-2.164 3.24-1.004 3.24-.447 3.24 .06 3.118 .375 2.732 .677 2.345 .701 1.898 .701 1.427V-2.672C.701-3.071 .774-3.131 1.185-3.119V-3.626C.944-3.723 .665-3.711 .411-3.663 .097-3.542 .109-3.373 .036-3.058H.025C-.326-3.542-.87-3.771-1.45-3.771-2.672-3.771-2.962-2.938-2.962-1.886-2.962-1.113-2.744-.532-2.043-.169-1.45 .109-.81 .302-.217 .58-.109 .628-.048 .762-.036 .846 .012 1.124-.012 1.68-.06 1.958-.157 2.357-.399 2.623-1.015 2.623-2.007 2.623-1.994 1.982-2.104 1.39Z" fill="#009ad9"/>
<path transform="matrix(1,0,0,-1,123.4144,82.861698)" d="M0 0C.012-1.233-.448-2.381-1.85-2.381-3.808-2.381-3.88-.339-3.88 1.16-3.88 2.599-3.723 4.63-1.874 4.63-.677 4.63-.048 3.602-.06 2.49H-.749C-.774 3.3-1.16 4.037-1.922 4.014-3.24 3.977-3.179 2.079-3.179 1.039-3.179 .109-3.203-1.765-1.838-1.765-.859-1.765-.774-.762-.702 0Z" fill="#009ad9"/>
<path transform="matrix(1,0,0,-1,127.6672,78.401599)" d="M0 0H.701V-6.672H.025V-6.056H0C-.422-6.624-.978-6.841-1.68-6.841-2.901-6.841-3.155-5.971-3.155-4.931V0H-2.453V-5.053C-2.453-5.899-2.126-6.285-1.281-6.225-.725-6.201-.217-5.645 0-5.077Z" fill="#009ad9"/>
<path transform="matrix(1,0,0,-1,0,170.079)" d="M130.144 94.071H130.846V85.005H130.144Z" fill="#009ad9"/>
<path transform="matrix(1,0,0,-1,134.2656,85.13429)" d="M0 0C-.242-.037-.665-.109-.907-.037-1.524 .181-1.632 .483-1.632 1.124V6.116H-2.237V6.733H-1.632V8.691H-.932V6.733H0V6.116H-.932V1.197C-.932 .967-.907 .628-.581 .568-.399 .495-.182 .532 0 .58Z" fill="#009ad9"/>
<path transform="matrix(1,0,0,-1,138.3979,78.401599)" d="M0 0H.702V-6.672H.025V-6.056H0C-.422-6.624-.978-6.841-1.68-6.841-2.901-6.841-3.155-5.971-3.155-4.931V0H-2.453V-5.053C-2.453-5.899-2.126-6.285-1.281-6.225-.725-6.201-.217-5.645 0-5.077Z" fill="#009ad9"/>
<path transform="matrix(1,0,0,-1,141.3829,79.17519)" d="M0 0H.024C.374 .701 .833 .955 1.608 .944V.206C.519 .23 .037-.471 .037-1.523V-5.899H-.665V.774H0Z" fill="#009ad9"/>
<path transform="matrix(1,0,0,-1,146.519,81.4715)" d="M0 0C-.459-.254-.931-.423-1.39-.617-2.104-.931-2.261-1.209-2.261-1.995-2.261-2.647-2.055-3.155-1.33-3.155-.87-3.155-.543-2.962-.339-2.66-.048-2.237 0-1.668 0-1.173ZM-2.78 1.39C-2.816 2.563-2.164 3.24-1.004 3.24-.447 3.24 .06 3.118 .375 2.732 .677 2.345 .701 1.898 .701 1.427V-2.672C.701-3.071 .774-3.131 1.185-3.119V-3.626C.944-3.723 .665-3.711 .411-3.663 .097-3.542 .109-3.373 .036-3.058H.025C-.326-3.542-.87-3.771-1.451-3.771-2.672-3.771-2.962-2.938-2.962-1.886-2.962-1.113-2.744-.532-2.043-.169-1.451 .109-.81 .302-.217 .58-.109 .628-.048 .762-.036 .846 .012 1.124-.012 1.68-.06 1.958-.157 2.357-.399 2.623-1.015 2.623-2.007 2.623-1.994 1.982-2.104 1.39Z" fill="#009ad9"/>
<path transform="matrix(1,0,0,-1,151.8597,81.84599)" d="M0 0C0-.944 .06-2.78 1.377-2.78 2.804-2.78 2.684-.521 2.684 .398 2.684 1.305 2.623 2.998 1.342 2.998 .012 2.998 0 .906 0 0M2.684 5.839H3.385V-3.228H2.684V-2.6H2.66C2.381-3.143 1.862-3.397 1.22-3.397-.581-3.397-.701-1.209-.701 .132-.701 1.474-.544 3.614 1.245 3.614 1.777 3.614 2.309 3.349 2.66 2.901H2.684Z" fill="#009ad9"/>
<path transform="matrix(1,0,0,-1,0,170.079)" d="M156.983 91.677H157.685V85.005008H156.983ZM156.935 94.071H157.745V92.923H156.935Z" fill="#009ad9"/>
<path transform="matrix(1,0,0,-1,159.9324,81.810398)" d="M0 0C0-.943 .024-2.816 1.366-2.816 2.647-2.804 2.659-.979 2.659-.097 2.659 .979 2.791 2.962 1.269 2.962 .024 2.962 0 .798 0 0M2.659 3.409H3.36V-3.118C3.36-4.569 2.864-5.548 1.293-5.548 .338-5.548-.508-5.089-.557-4.037H.157C.193-4.642 .749-4.908 1.304-4.931 2.756-4.931 2.622-3.723 2.659-2.792H2.611C2.248-3.264 1.74-3.433 1.208-3.433-.605-3.433-.702-1.39-.702 0-.702 1.27-.654 3.579 1.16 3.579 1.837 3.579 2.273 3.337 2.634 2.805H2.659Z" fill="#009ad9"/>
<path transform="matrix(1,0,0,-1,0,170.079)" d="M165.031 91.677H165.73201V85.005008H165.031ZM164.983 94.071H165.792V92.923H164.983Z" fill="#009ad9"/>
<path transform="matrix(1,0,0,-1,169.1523,85.13429)" d="M0 0C-.241-.037-.665-.109-.906-.037-1.524 .181-1.631 .483-1.631 1.124V6.116H-2.236V6.733H-1.631V8.691H-.931V6.733H0V6.116H-.931V1.197C-.931 .967-.906 .628-.58 .568-.398 .495-.181 .532 0 .58Z" fill="#009ad9"/>
<path transform="matrix(1,0,0,-1,172.6817,81.4715)" d="M0 0C-.46-.254-.932-.423-1.39-.617-2.104-.931-2.262-1.209-2.262-1.995-2.262-2.647-2.055-3.155-1.33-3.155-.871-3.155-.544-2.962-.339-2.66-.049-2.237 0-1.668 0-1.173ZM-2.78 1.39C-2.817 2.563-2.165 3.24-1.004 3.24-.448 3.24 .06 3.118 .374 2.732 .676 2.345 .701 1.898 .701 1.427V-2.672C.701-3.071 .773-3.131 1.184-3.119V-3.626C.943-3.723 .665-3.711 .411-3.663 .097-3.542 .108-3.373 .036-3.058H.024C-.327-3.542-.871-3.771-1.451-3.771-2.673-3.771-2.962-2.938-2.962-1.886-2.962-1.113-2.744-.532-2.043-.169-1.451 .109-.81 .302-.217 .58-.11 .628-.049 .762-.037 .846 .012 1.124-.013 1.68-.06 1.958-.157 2.357-.399 2.623-1.016 2.623-2.008 2.623-1.995 1.982-2.104 1.39Z" fill="#009ad9"/>
<path transform="matrix(1,0,0,-1,0,170.079)" d="M175.097 94.071H175.799V85.005H175.097Z" fill="#009ad9"/>
<path transform="matrix(1,0,0,-1,109.0721,126.37869)" d="M0 0H2.002V-.282H0V-1.665H-.466V1.359H2.057V1.057H0Z" fill="#808285"/>
<path transform="matrix(1,0,0,-1,116.5599,125.01979)" d="M0 0V-2.177C0-2.988-.659-3.048-1.63-3.048-2.53-3.048-3.258-3.032-3.258-2.177V0H-2.792V-2.177C-2.792-2.669-2.634-2.746-1.63-2.746-.802-2.746-.466-2.742-.466-2.177V0Z" fill="#808285"/>
<path transform="matrix(1,0,0,-1,122.5162,128.0438)" d="M0 0H-.762L-3.072 2.742H-3.083V0H-3.549V3.024H-2.781L-.477 .262H-.466V3.024H0Z" fill="#808285"/>
<path transform="matrix(1,0,0,-1,126.8875,127.741397)" d="M0 0C.823 0 .933 .355 .944 .895V1.69C.944 1.859 .862 2.419 .077 2.419H-1.536V0ZM-2.002 2.722H0C.5 2.722 1.41 2.674 1.41 1.557V.835C1.41 .537 1.344-.302 .11-.302H-2.002Z" fill="#808285"/>
<path transform="matrix(1,0,0,-1,132.0771,125.301898)" d="M0 0-.905-1.818H.916ZM-1.032-2.101-1.35-2.742H-1.838L-.34 .282H.318L1.853-2.742H1.371L1.047-2.101Z" fill="#808285"/>
<path transform="matrix(1,0,0,-1,137.0511,128.0681)" d="M0 0C-.751 0-1.195 .347-1.195 .952V2.121C-1.195 2.976-.477 3.073 .522 3.073H.906C1.766 3.073 2.03 2.799 2.03 2.202V2.105H1.563V2.19C1.563 2.613 1.444 2.771 .84 2.771H.577C-.389 2.771-.729 2.686-.729 2.134V1.302C-.729 .614-.69 .302 .088 .302H.643C1.388 .302 1.618 .379 1.618 .81V1.052H2.085V.77C2.085 .077 1.482 0 .658 0Z" fill="#808285"/>
<path transform="matrix(1,0,0,-1,0,170.079)" d="M141.763 42.035H141.297V45.059H141.763Z" fill="#808285"/>
<path transform="matrix(1,0,0,-1,146.1566,124.3582)" d="M0 0-.883-.403-1.031-.237-.214 .218ZM-.795-.94C-1.486-.94-1.668-1.064-1.668-1.653V-2.73C-1.668-3.33-1.399-3.403-.795-3.408H-.242C.362-3.403 .631-3.33 .631-2.73V-1.653C.631-1.064 .45-.94-.242-.94ZM-.242-.637C.785-.645 1.098-.895 1.098-1.653V-2.73C1.098-3.444 .746-3.709-.242-3.709H-.795C-1.783-3.709-2.133-3.444-2.133-2.73V-1.653C-2.133-.895-1.821-.645-.795-.637Z" fill="#808285"/>
<path transform="matrix(1,0,0,-1,153.0459,128.0438)" d="M0 0H-.762L-3.072 2.742H-3.083V0H-3.549V3.024H-2.781L-.477 .262H-.466V3.024H0Z" fill="#808285"/>
<path transform="matrix(1,0,0,-1,144.9021,132.3956)" d="M0 0C-.073 .019-.101 .039-.203 .04-.764-.423-1.249-.98-1.767-1.485-1.913-1.627-2.228-1.873-2.032-2.158-1.846-2.427-1.556-2.15-1.422-2.019-1.072-1.677-.727-1.297-.427-.91-.293-.738-.034-.595 .041-.376 .116-.264 .024-.084 0 0M-18.67-.277C-18.607-.254-18.576-.179-18.609-.118-18.653 .013-18.789 .047-18.974 .04-19.047-.009-19.165 .01-19.258-.02-19.469-.086-19.922-.226-20.071-.356H-20.112C-20.097-.257-20.071-.131-20.132-.059-20.16-.02-20.159-.017-20.214 0-20.293 .048-20.531 .026-20.62 0-20.848-.066-21.572-.31-21.655-.475-21.672-.495-21.663-.479-21.676-.515-21.657-.533-21.648-.549-21.635-.574-21.512-.592-20.974-.487-20.864-.415-20.742-.415-20.726-.435-20.66-.475-20.665-.926-21.235-1.351-21.493-1.603-21.638-1.745-21.794-1.812-21.797-2.098-21.757-2.144-21.717-2.191-21.676-2.237-21.213-2.34-21.045-1.987-20.843-1.722-20.51-1.285-20.104-.828-19.624-.534-19.44-.422-19.234-.33-18.994-.277ZM-11.031 .099C-11.118 .04-11.255 .043-11.355 0-11.624-.113-11.918-.361-12.067-.593-12.306-.967-12.304-1.558-12.636-1.841-12.967-1.816-13.191-1.589-13.367-1.405-13.436-1.409-13.47-1.414-13.509-1.445-13.549-1.472-13.552-1.471-13.57-1.524-13.619-1.589-13.597-1.633-13.59-1.722-13.427-1.88-13.317-2.065-13.103-2.178-13.028-2.218-12.922-2.257-12.838-2.276-12.674-2.317-12.489-2.251-12.392-2.217-11.656-1.957-11.972-1.099-11.498-.634-11.404-.541-10.95-.202-10.747-.316-10.699-.332-10.701-.337-10.665-.356-10.671-.488-10.755-.614-10.706-.693V-.732C-10.624-.75-10.544-.761-10.482-.713-10.316-.658-10.202-.337-10.32-.138-10.439 .062-10.688 .113-11.031 .099M7.841-.138C7.635 .16 7.162 .15 6.765 .02 6.199-.165 5.671-.432 5.2-.713 4.947-.864 4.652-.967 4.449-1.168H4.428C4.521-.807 4.79-.276 4.591 .119 4.228 .182 3.93 .045 3.676-.059 3.137-.28 2.643-.493 2.173-.772 1.945-.907 1.655-.976 1.463-1.148H1.402C1.516-.937 1.729-.798 1.869-.614 1.959-.495 2.002-.362 2.093-.238 2.079-.141 2.045-.091 2.011-.02 1.648 .074 1.461-.014 1.198-.179 1.205-.191 1.213-.204 1.219-.218 1.272-.239 1.305-.253 1.382-.257V-.316C1.008-.654 .746-1.113 .385-1.464 .195-1.651-.063-1.764-.061-2.138-.037-2.16-.017-2.188 0-2.217 .309-2.331 .821-2.094 1.057-1.979 2.011-1.491 2.965-1.003 3.921-.515H4.002C3.834-.961 3.758-1.524 3.453-1.841 3.452-1.962 3.46-2.071 3.515-2.138 3.541-2.164 3.569-2.191 3.596-2.217 3.993-2.199 4.27-1.93 4.53-1.762 5.056-1.421 5.563-1.089 6.135-.791 6.288-.712 6.987-.372 7.212-.534 7.782-.643 7.331-1.707 7.232-1.979 7.19-2.094 7.23-2.162 7.272-2.237 7.316-2.247 7.346-2.255 7.374-2.276 8.137-2.285 8.196-.649 7.841-.138M-24.865 .297C-24.948 .244-25.09 .27-25.19 .238-25.281 .209-25.359 .143-25.434 .099-25.452 .033-25.5-.052-25.454-.118-25.421-.211-25.356-.219-25.292-.277-25.08-.272-25.018-.179-24.845-.138-24.675-.146-24.506-.151-24.337-.158-23.92-.252-23.136-.362-23.017-.713H-22.996C-23.003-.732-23.01-.752-23.017-.772-23.197-.757-23.342-.698-23.484-.653-23.749-.57-24.033-.539-24.296-.475-24.411-.468-24.527-.462-24.642-.455-25.437-.284-26.249-.631-26.531-1.05-26.622-1.184-26.834-1.564-26.775-1.821-26.709-2.11-26.498-2.209-26.206-2.276H-25.942C-25.671-2.331-25.208-2.253-24.946-2.197-24.831-2.191-24.716-2.184-24.602-2.178-24.191-2.088-23.732-2.055-23.342-1.96-23.037-1.886-22.678-1.977-22.468-1.86-22.386-1.665-22.498-1.573-22.59-1.445-22.897-1.378-23.223-1.412-23.525-1.485-23.761-1.517-23.998-1.551-24.236-1.584-24.778-1.718-25.585-1.899-26.165-1.722-26.38-.663-24.417-.86-23.707-1.069-23.548-1.116-23.401-1.149-23.26-1.187-23.006-1.258-22.55-1.263-22.427-1.089-22.212-.779-22.501-.481-22.651-.336-23.128 .122-23.898 .32-24.865 .297M-14.444-.91C-14.619-1.3-15.431-1.771-16.028-1.762-16.06-1.731-16.112-1.703-16.151-1.683-16.149-1.389-15.919-1.275-15.744-1.148-15.493-.965-15.236-.743-14.931-.614-14.772-.545-14.558-.532-14.424-.436H-14.383C-14.379-.62-14.385-.78-14.444-.91M-14.038 .257C-14.081 .357-14.166 .446-14.221 .535-14.381 .536-14.417 .511-14.505 .455-14.515 .325-14.52 .143-14.444 .04V.02C-15.296-.011-16.076-.62-16.455-1.129-16.633-1.368-16.871-1.764-16.617-2.098-16.379-2.413-15.683-2.239-15.379-2.118-14.736-1.864-13.992-1.568-13.814-.871-13.757-.648-13.86-.45-13.875-.277-13.807-.264-13.74-.25-13.672-.238V-.198C-13.756-.155-13.86-.098-13.936-.039-13.997 .037-13.996 .164-14.038 .257M-.143 .832C-.063 .749-.044 .655 .081 .614 .148 .564 .283 .563 .345 .614 .514 .668 .636 .943 .63 1.168 .497 1.294 .444 1.374 .163 1.366 .004 1.221-.148 1.142-.143 .832M-27.953 2.871C-28.073 2.797-28.332 2.864-28.481 2.832-28.907 2.737-29.337 2.701-29.74 2.574-30.88 2.215-31.999 1.87-33.051 1.446-33.652 1.203-34.221 1-34.738 .693-35.328 .342-36.068 .013-36.22-.752-36.236-.83-36.196-.934-36.18-.99-36.017-1.553-35.547-1.71-35.022-1.92-34.513-2.124-33.938-2.22-33.337-2.356-33.076-2.414-32.822-2.336-32.544-2.395-32.213-2.466-31.278-2.441-30.959-2.375H-30.594C-30.258-2.305-29.848-2.345-29.518-2.276H-29.274C-29.011-2.22-28.675-2.221-28.4-2.197-28.217-2.204-28.034-2.21-27.851-2.217-27.748-2.189-27.701-2.113-27.629-2.058-27.614-1.877-27.648-1.824-27.729-1.703-28.125-1.605-28.713-1.671-29.131-1.762-29.43-1.826-29.746-1.781-30.025-1.841-30.35-1.86-30.675-1.88-31.001-1.901H-31.407C-31.671-1.957-32.34-1.956-32.605-1.901-32.895-1.839-33.186-1.905-33.458-1.841-34.203-1.665-34.9-1.543-35.429-1.168-35.534-1.093-35.582-.962-35.672-.871-35.679-.252-34.963 .016-34.555 .257-34.021 .575-33.404 .762-32.788 1.009-31.92 1.359-30.992 1.652-30.086 1.98-29.635 2.143-29.149 2.217-28.664 2.336-28.547 2.365-28.228 2.415-28.135 2.356-28.06 2.349-28.06 2.341-28.014 2.317-28.018 2.167-28.082 2.064-28.156 1.98-28.149 1.961-28.142 1.94-28.135 1.921-27.68 1.829-27.233 2.114-27.242 2.574-27.454 2.794-27.529 2.853-27.953 2.871M-1.199 .495C-1.131 .554-1.063 .614-.995 .673-.756 .982-.463 1.236-.224 1.544-.162 1.597-.102 1.65-.041 1.702 .164 1.968 .404 2.19 .609 2.455 .71 2.585 .895 2.683 .955 2.851 1.01 2.922 .992 3.063 .935 3.128 .906 3.167 .907 3.17 .853 3.188 .825 3.207 .786 3.208 .731 3.207 .394 2.941 .079 2.635-.183 2.297-.278 2.21-.373 2.125-.467 2.04-.649 1.805-.875 1.62-1.056 1.386-1.26 1.188-1.463 .99-1.666 .792-2.097 .236-2.676-.196-3.108-.752-3.394-1.119-4.252-1.648-4.184-2.217H-4.165C-4.075-2.284-3.827-2.305-3.717-2.237-3.599-2.163-3.498-1.99-3.413-1.88-3.24-1.658-2.999-1.453-2.804-1.247-2.468-.894-2.107-.543-1.808-.158-1.629 .073-1.382 .258-1.199 .495M-15.765 1.188C-15.656 1.294-15.547 1.399-15.439 1.505-15.143 1.886-14.755 2.196-14.464 2.574-14.344 2.729-14.247 2.897-14.119 3.049-14.118 3.107-14.118 3.157-14.139 3.188-14.171 3.281-14.235 3.308-14.342 3.326-14.445 3.255-14.571 3.237-14.667 3.167-14.742 3.114-14.774 3.024-14.83 2.95-14.942 2.804-15.099 2.685-15.216 2.534-15.277 2.481-15.338 2.429-15.399 2.376-15.698 1.989-16.074 1.673-16.374 1.287-16.502 1.162-16.631 1.036-16.76 .91-17.108 .461-17.548 .093-17.897-.356-18.019-.475-18.141-.593-18.263-.713-18.54-1.07-18.916-1.358-19.177-1.722-19.24-1.81-19.365-2.036-19.258-2.158-19.219-2.237-19.144-2.228-19.076-2.276-18.705-2.272-18.566-1.994-18.405-1.782-18.198-1.507-17.948-1.263-17.735-.99-17.433-.601-17.045-.274-16.74 .119-16.685 .165-16.631 .212-16.577 .257-16.323 .585-16.019 .86-15.765 1.188M-3.575 .832C-3.494 .905-3.413 .977-3.332 1.05-3.098 1.351-2.813 1.634-2.54 1.901-2.424 2.007-2.31 2.112-2.194 2.218-2.042 2.414-1.867 2.584-1.666 2.732-1.564 2.838-1.463 2.944-1.361 3.049-1.268 3.117-1.159 3.169-1.077 3.246-.993 3.24-1 3.252-.975 3.188-.845 2.968-1.397 2.749-1.483 2.633-1.489 2.626-1.497 2.62-1.503 2.613-1.485 2.595-1.476 2.579-1.463 2.555-1.138 2.489-.927 2.834-.812 3.049-.766 3.139-.678 3.312-.772 3.425-.848 3.541-.976 3.589-1.179 3.583-1.26 3.557-1.341 3.531-1.422 3.504-1.616 3.412-1.8 3.289-1.97 3.167-2.11 3.067-2.22 2.912-2.356 2.811-2.716 2.547-3.06 2.191-3.332 1.841-3.4 1.782-3.467 1.723-3.534 1.663-3.807 1.311-4.159 1.021-4.429 .673-4.744 .266-5.11-.088-5.425-.495-5.552-.62-5.681-.745-5.81-.871-5.956-1.06-6.251-1.385-6.44-1.524-6.734-1.741-7.021-2.052-7.414-2.158-7.797-2.26-8.018-1.93-8.125-1.742-8.165-1.675-8.253-1.531-8.207-1.445-8.137-1.276-7.833-1.353-7.699-1.247H-7.679V-1.207C-8.226-1.069-8.428-1.205-8.715-1.504-8.714-2.052-8.257-2.379-7.841-2.534-7.718-2.58-7.502-2.66-7.293-2.613-6.943-2.533-6.671-2.34-6.419-2.158-6.331-2.072-6.243-1.986-6.156-1.901-5.823-1.656-5.513-1.333-5.262-1.009-5.201-.957-5.14-.904-5.079-.851-4.787-.475-4.436-.158-4.144 .218-3.975 .435-3.747 .61-3.575 .832" fill="#231f20" fill-rule="evenodd"/>
<path transform="matrix(1,0,0,-1,0,170.079)" d="M103.413 29.135H103.125V52.005H103.413Z" fill="#a7a9ac"/>
<path transform="matrix(1,0,0,-1,98.6569,136.46799)" d="M0 0C0-1.91-1.562-3.473-3.472-3.473H-17.39C-19.3-3.473-20.863-1.91-20.863 0V13.918C-20.863 15.828-19.3 17.39-17.39 17.39H-3.472C-1.562 17.39 0 15.828 0 13.918Z" fill="#e81d27"/>
<g style="mix-blend-mode:screen">
<g clip-path="url(#clip_1)">
<path transform="matrix(1,0,0,-1,81.1792,119.3148)" d="M0 0H14.093C15.435 0 16.607-.755 17.199-1.857 16.666-.616 15.434 .26 14.006 .26H.086C-1.34 .26-2.574-.616-3.107-1.857-2.514-.755-1.342 0 0 0" fill="#130c11"/>
</g>
</g>
<g style="mix-blend-mode:screen">
<g clip-path="url(#clip_2)">
<path transform="matrix(1,0,0,-1,98.4843,136.3608)" d="M0 0C0-1.878-1.536-3.414-3.415-3.414H-17.103C-18.981-3.414-20.518-1.878-20.518 0V13.688C-20.518 15.565-18.981 17.037-17.103 17.037H-3.415C-1.536 17.037 0 15.565 0 13.688ZM-3.289 17.29H-17.229C-19.141 17.29-20.706 15.726-20.706 13.813V-.126C-20.706-2.038-19.141-3.602-17.229-3.602H-3.289C-1.377-3.602 .188-2.038 .188-.126V13.813C.188 15.726-1.377 17.29-3.289 17.29" fill="#e81d27"/>
</g>
</g>
<path transform="matrix(1,0,0,-1,95.3908,134.4865)" d="M0 0H-.133C-.133-.035-.117-.057-.083-.065-.05-.074-.022-.052 0 0M-.166-2.106C-.144-2.141-.148-2.163-.175-2.171-.203-2.18-.228-2.184-.25-2.184-.239-2.184-.228-2.176-.216-2.158-.206-2.158-.189-2.141-.166-2.106M-.15-.676-.316-.754V-.598ZM.35-2.627H-.45000003V-2.523H.35ZM-.816 1.3H-.916V1.196H-.816ZM-1.066-2.548-1.383-2.6V-2.522L-1.066-2.471ZM-1.383-1.456H-1.483V-1.352H-1.383ZM-1.466-2.6H-1.5489999V-2.5219999H-1.466ZM-1.665-2.158-1.699-2.211-1.749-2.132-1.716-2.08ZM-1.932-1.274H-1.9990001V-1.483H-1.932ZM-1.799 2.679C-1.855 2.696-1.902 2.705-1.94 2.705-1.98 2.705-2.021 2.722-2.065 2.757-2.043 2.791-2.03 2.821-2.024 2.847-2.018 2.874-2.027 2.887-2.049 2.887-2.115 2.835-2.176 2.765-2.232 2.679ZM-2.165 4.707-2.298 4.629V4.733L-2.182 4.785ZM-2.265 .104C-2.287 .104-2.315 .112-2.348 .13-2.382 .147-2.426 .156-2.482 .156L-2.399 0ZM-2.232 4.837C-2.365 5.062-2.46 5.166-2.515 5.149-2.515 5.115-2.526 5.098-2.548 5.098-2.559 5.079-2.571 5.071-2.582 5.071-2.559 5.019-2.529 4.971-2.49 4.928-2.451 4.885-2.421 4.828-2.399 4.759-2.377 4.793-2.348 4.815-2.315 4.824-2.282 4.833-2.254 4.837-2.232 4.837M-2.482 5.539C-2.449 5.661-2.454 5.791-2.498 5.929L-2.582 5.487C-2.548 5.487-2.526 5.496-2.515 5.513-2.504 5.513-2.493 5.522-2.482 5.539M-2.681 5.279-2.731 5.435-2.781 5.409-2.731 5.279ZM-2.698 4.837H-2.731C-2.754 4.837-2.776 4.853-2.798 4.889-2.798 4.906-2.793 4.924-2.781 4.941-2.759 4.976-2.748 5.01-2.748 5.045-2.715 4.993-2.698 4.924-2.698 4.837M-2.665 5.955-2.765 6.111-2.698 6.242C-2.731 6.207-2.759 6.168-2.781 6.124-2.803 6.081-2.831 6.042-2.865 6.008-2.831 5.972-2.796 5.955-2.756 5.955ZM-2.898 6.267-2.931 6.346-3.015 6.267V6.189ZM-2.981 7.178C-3.037 7.178-3.082 7.203-3.114 7.256V6.996H-2.981C-2.981 7.03-2.987 7.06-2.998 7.086-3.009 7.113-3.004 7.143-2.981 7.178M-3.114 5.981-3.215 5.904V5.981L-3.132 6.059ZM-3.198 6.398H-3.2979999V6.2939999H-3.198ZM-3.364 7.36-3.531 7.49-3.548 7.411-3.381 7.282ZM-3.548 7.178H-3.714L-3.681 7.256ZM-3.731 8.556H-3.8309999V8.452H-3.731ZM-3.981 8.27H-4.065V8.166H-3.981ZM-4.647 5.904H-4.7469999V5.799H-4.647ZM-5.047 6.657H-5.13V6.58H-5.047ZM-5.03 9.882C-5.107 9.968-5.171 10.068-5.221 10.181-5.271 10.294-5.307 10.393-5.33 10.48-5.352 10.393-5.371 10.298-5.388 10.194-5.405 10.091-5.402 10.02-5.38 9.986-5.346 9.986-5.31 9.956-5.271 9.895-5.232 9.835-5.191 9.804-5.147 9.804-5.091 9.804-5.064 9.817-5.064 9.843-5.064 9.869-5.052 9.882-5.03 9.882M-6.146 3.458H-6.263V3.3539999H-6.146ZM-6.479 7.958-6.529 7.984-6.579 7.827-6.529 7.801ZM-6.504 8.321C-6.51 8.339-6.512 8.356-6.512 8.374-6.523 8.391-6.529 8.408-6.529 8.426-6.585 8.391-6.637 8.344-6.687 8.282-6.737 8.222-6.79 8.157-6.845 8.088H-6.728C-6.718 8.088-6.698 8.11-6.671 8.153-6.643 8.196-6.585 8.235-6.495 8.27-6.495 8.287-6.498 8.304-6.504 8.321M-6.945 11.677H-7.045V11.754H-6.945ZM-7.012 6.475-7.029 6.553-7.112 6.502V6.398ZM-7.245 10.272H-7.329V10.167001H-7.245ZM-7.095 6.293-7.262 6.372C-7.284 6.319-7.298 6.263-7.304 6.203-7.309 6.141-7.323 6.094-7.345 6.059-7.323 6.024-7.3 6.008-7.279 6.008-7.268 5.99-7.256 5.981-7.245 5.981-7.223 6.033-7.198 6.085-7.17 6.137-7.142 6.189-7.118 6.242-7.095 6.293M-7.312 5.929C-7.334 5.929-7.348 5.912-7.354 5.877-7.359 5.842-7.362 5.808-7.362 5.773-7.329 5.773-7.306 5.799-7.295 5.851-7.284 5.904-7.29 5.929-7.312 5.929M-7.412 3.302V3.407L-7.579 3.458V3.381ZM-7.695 3.355H-7.795V3.459H-7.695ZM-7.661 10.506-7.828 10.454V10.532L-7.661 10.584ZM-7.761 4.837-7.895 4.889V4.811L-7.778 4.759ZM-8.078 3.433-8.094 3.355-8.194 3.433-8.178 3.511ZM-8.294 7.75-8.311 7.827-8.394 7.776V7.672ZM-8.161 8.868C-8.228 8.816-8.305 8.79-8.394 8.79L-8.278 8.686C-8.256 8.721-8.23 8.751-8.203 8.777-8.175 8.803-8.161 8.833-8.161 8.868M-8.294 3.796H-8.427V3.9H-8.294ZM-8.378 8.321H-8.461V8.243H-8.378ZM-8.511 8.139-8.611 8.062V8.139L-8.528 8.218ZM-3.764 3.511C-3.742 3.667-3.781 3.827-3.881 3.992-3.981 4.156-4.08 4.351-4.181 4.577-4.158 4.612-4.15 4.65-4.156 4.694-4.161 4.737-4.175 4.759-4.197 4.759-4.219 4.759-4.239 4.75-4.255 4.733-4.272 4.715-4.308 4.707-4.363 4.707V4.889C-4.33 4.924-4.306 4.967-4.289 5.019-4.272 5.071-4.264 5.115-4.264 5.149-4.286 5.115-4.311 5.079-4.338 5.045-4.367 5.01-4.403 4.993-4.447 4.993-4.491 4.993-4.538 5.032-4.588 5.11-4.638 5.188-4.67 5.244-4.68 5.279-4.658 5.314-4.641 5.335-4.63 5.344-4.619 5.353-4.602 5.374-4.58 5.409-4.636 5.444-4.686 5.492-4.73 5.552-4.774 5.613-4.841 5.712-4.93 5.851L-4.864 5.955C-4.975 5.99-5.027 6.037-5.021 6.098-5.016 6.159-5.041 6.224-5.096 6.293-5.052 6.363-5.03 6.423-5.03 6.475-5.119 6.51-5.183 6.58-5.221 6.684-5.261 6.787-5.269 6.865-5.246 6.918-5.324 6.918-5.396 6.969-5.463 7.073-5.419 7.143-5.396 7.203-5.396 7.256-5.452 7.256-5.496 7.282-5.53 7.333-5.508 7.368-5.485 7.386-5.463 7.386-5.496 7.386-5.524 7.402-5.546 7.438-5.568 7.472-5.574 7.507-5.563 7.542L-5.53 7.594C-5.607 7.733-5.652 7.854-5.663 7.958-5.641 7.992-5.63 8.018-5.63 8.036V8.062C-5.663 8.096-5.699 8.118-5.738 8.126-5.776 8.135-5.812 8.157-5.846 8.192-5.846 8.296-5.841 8.369-5.83 8.413-5.818 8.456-5.812 8.494-5.812 8.53-5.846 8.564-5.887 8.59-5.937 8.608-5.987 8.625-6.029 8.66-6.063 8.712-6.029 8.746-6.01 8.79-6.005 8.842-5.999 8.894-5.996 8.936-5.996 8.972-6.052 9.006-6.115 9.011-6.187 8.985-6.26 8.959-6.324 8.928-6.379 8.894-6.29 8.824-6.207 8.712-6.129 8.556-6.162 8.521-6.204 8.517-6.254 8.543-6.304 8.569-6.368 8.599-6.446 8.634-6.446 8.581-6.429 8.543-6.396 8.517-6.362 8.491-6.335 8.452-6.312 8.4-6.401 8.278-6.487 8.17-6.571 8.075-6.654 7.979-6.735 7.879-6.812 7.776-6.701 7.776-6.629 7.758-6.596 7.724-6.596 7.637-6.635 7.576-6.712 7.542-6.735 7.576-6.743 7.602-6.737 7.62-6.731 7.637-6.756 7.645-6.812 7.645-6.856 7.645-6.918 7.576-6.995 7.438-7.073 7.299-7.139 7.169-7.195 7.047-7.162 7.047-7.128 7.06-7.095 7.086-7.062 7.113-7.034 7.108-7.012 7.073L-7.112 6.918C-7.145 6.918-7.178 6.96-7.212 7.047L-7.295 6.891C-7.262 6.856-7.24 6.817-7.228 6.774-7.217 6.731-7.184 6.709-7.128 6.709-7.073 6.709-7.037 6.74-7.02 6.801-7.004 6.861-6.978 6.891-6.945 6.891-6.945 6.701-6.951 6.605-6.962 6.605-7.018 6.64-7.076 6.657-7.137 6.657H-7.295C-7.351 6.657-7.379 6.619-7.379 6.541-7.379 6.463-7.39 6.389-7.412 6.319-7.4 6.319-7.393 6.315-7.387 6.307-7.381 6.297-7.373 6.293-7.362 6.293H-7.345C-7.434 6.207-7.492 6.111-7.52 6.008-7.548 5.904-7.6 5.773-7.678 5.617-7.7 5.6-7.739 5.592-7.795 5.592-7.772 5.556-7.756 5.535-7.745 5.526-7.734 5.517-7.717 5.496-7.695 5.461-7.728 5.426-7.759 5.396-7.786 5.37-7.814 5.344-7.839 5.331-7.861 5.331-7.795 5.296-7.761 5.236-7.761 5.149-7.784 5.115-7.811 5.098-7.845 5.098-7.889 5.166-7.934 5.201-7.978 5.201L-7.861 5.019C-7.995 4.898-8.078 4.759-8.111 4.603-8.1 4.603-8.092 4.599-8.086 4.59-8.08 4.581-8.073 4.577-8.061 4.577H-8.044C-8.078 4.507-8.116 4.456-8.161 4.421-8.206 4.386-8.239 4.343-8.261 4.291-8.239 4.291-8.23 4.295-8.236 4.304-8.241 4.312-8.223 4.317-8.178 4.317-8.122 4.317-8.092 4.304-8.086 4.278-8.08 4.252-8.078 4.204-8.078 4.135-8.1 4.1-8.134 4.083-8.178 4.083H-8.294C-8.273 4.048-8.256 4.027-8.244 4.018-8.233 4.009-8.216 3.987-8.194 3.953-8.228 3.796-8.294 3.697-8.394 3.654-8.494 3.611-8.555 3.519-8.577 3.381L-8.494 3.484-8.478 3.433V3.407C-8.522 3.355-8.567 3.298-8.611 3.238-8.655 3.177-8.705 3.121-8.76 3.068-8.617 3.068-8.472 3.086-8.327 3.121-8.184 3.155-8.067 3.155-7.978 3.121-7.956 3.155-7.948 3.182-7.953 3.199-7.959 3.216-7.939 3.225-7.895 3.225-7.839 3.225-7.797 3.194-7.77 3.134-7.742 3.073-7.711 3.043-7.678 3.043-7.622 3.043-7.604 3.064-7.62 3.108-7.636 3.15-7.617 3.173-7.561 3.173-7.517 3.173-7.5 3.15-7.512 3.108-7.523 3.064-7.506 3.043-7.461 3.043-7.417 3.043-7.387 3.064-7.37 3.108-7.354 3.15-7.334 3.173-7.312 3.173-7.001 3.068-6.706 3.06-6.429 3.146-6.152 3.233-5.852 3.285-5.53 3.302-5.552 3.337-5.577 3.355-5.605 3.355-5.632 3.355-5.657 3.372-5.68 3.407-5.546 3.458-5.466 3.45-5.438 3.381-5.41 3.311-5.369 3.277-5.313 3.277-5.269 3.277-5.252 3.294-5.263 3.329-5.274 3.363-5.257 3.381-5.213 3.381-5.169 3.381-5.113 3.367-5.047 3.342-4.98 3.315-4.919 3.302-4.864 3.302H-4.997C-4.975 3.389-4.961 3.433-4.955 3.433H-4.88C-4.825 3.433-4.791 3.415-4.78 3.381-4.769 3.346-4.741 3.329-4.697 3.329-4.652 3.329-4.622 3.346-4.605 3.381-4.588 3.415-4.569 3.45-4.547 3.484-4.425 3.45-4.295 3.446-4.156 3.472-4.017 3.498-3.887 3.511-3.764 3.511M-8.627 2.522H-8.827V2.418H-8.627ZM-8.677 6.918C-8.655 6.918-8.647 6.891-8.652 6.84-8.658 6.787-8.672 6.744-8.694 6.709H-8.86C-8.838 6.744-8.81 6.778-8.777 6.814-8.744 6.848-8.71 6.883-8.677 6.918M-8.944 6.398H-9.111V6.2939999H-8.944ZM-8.894 7.256C-8.983 7.22-9.047 7.182-9.086 7.139-9.124 7.095-9.172 7.03-9.227 6.944-9.172 6.978-9.111 7.017-9.044 7.06-8.977 7.104-8.927 7.169-8.894 7.256M-9.36 6.944H-9.46V6.8399999H-9.36ZM-9.211 6.242C-9.255 6.207-9.299 6.198-9.344 6.215-9.388 6.233-9.438 6.259-9.493 6.293-9.404 6.293-9.327 6.319-9.26 6.372-9.26 6.336-9.255 6.31-9.244 6.293-9.244 6.259-9.233 6.242-9.211 6.242M-9.327 5.773C-9.327 5.808-9.333 5.842-9.344 5.877-9.354 5.912-9.36 5.947-9.36 5.981H-9.493C-9.516 5.912-9.504 5.842-9.46 5.773-9.46 5.738-9.444 5.73-9.41 5.747-9.376 5.764-9.349 5.773-9.327 5.773M-9.677 5.721-9.81 5.773V5.695L-9.693 5.643ZM-9.843 4.629-9.893 4.656-9.943 4.525-9.893 4.473ZM-9.993 4.889H-10.126V4.811H-9.993ZM-10.659 3.979-10.776 3.927V4.005L-10.693 4.056ZM-11.259-.936C-11.281-.971-11.298-.988-11.309-.988-11.32-1.006-11.331-1.014-11.342-1.014-11.32-1.049-11.295-1.053-11.267-1.027-11.24-1.002-11.237-.971-11.259-.936M-11.059-.624C-11.17-.659-11.265-.676-11.342-.676L-11.242-.754C-11.22-.738-11.2-.724-11.184-.715-11.167-.706-11.148-.694-11.125-.676ZM-11.375-1.352H-11.509V-1.456H-11.375ZM-11.309 2.263-11.325 2.34-11.526 2.184-11.509 2.08ZM-11.442-1.638-11.459-1.716-11.592-1.664V-1.586ZM-11.592-1.456H-11.726V-1.352H-11.592ZM.25-1.873C.25-1.942 .231-2.012 .192-2.08 .153-2.15 .122-2.211 .1-2.262H-.034C-.022-2.193-.055-2.098-.133-1.977-.189-2.012-.241-2.067-.291-2.146-.341-2.223-.394-2.262-.45-2.262-.494-2.262-.505-2.254-.483-2.236-.461-2.219-.472-2.211-.516-2.211-.594-2.211-.683-2.28-.783-2.419-.75-2.453-.714-2.479-.674-2.496-.636-2.514-.6-2.539-.566-2.574H-.791C-.863-2.574-.916-2.557-.949-2.522-1.005-2.488-1.047-2.422-1.074-2.328-1.102-2.232-1.133-2.158-1.166-2.106H-1.099C-1.077-2.106-1.055-2.09-1.032-2.054-1.032-2.037-1.077-1.994-1.166-1.924-1.166-1.855-1.133-1.794-1.066-1.742L-1.166-1.586H-1.183C-1.194-1.586-1.199-1.591-1.199-1.599-1.199-1.608-1.205-1.612-1.216-1.612-1.238-1.63-1.244-1.651-1.233-1.677-1.222-1.703-1.216-1.734-1.216-1.768-1.294-1.734-1.369-1.668-1.441-1.574-1.513-1.478-1.588-1.448-1.665-1.482-1.665-1.431-1.621-1.37-1.532-1.3-1.599-1.248-1.665-1.257-1.732-1.326V-.988C-1.677-.988-1.632-.962-1.599-.91-1.665-.841-1.738-.789-1.815-.754-1.838-.789-1.827-.841-1.782-.91-1.849-.858-1.927-.832-2.015-.832-2.071-.832-2.101-.85-2.107-.884-2.113-.919-2.127-.936-2.148-.936-2.171-.902-2.202-.815-2.24-.676-2.279-.538-2.276-.451-2.232-.416-2.265-.382-2.309-.364-2.365-.364-2.421-.364-2.46-.347-2.482-.312-2.482-.277-2.471-.234-2.449-.182-2.426-.13-2.415-.078-2.415-.026-2.471 .043-2.526 .134-2.582 .248-2.637 .359-2.693 .485-2.748 .624-2.771 .693-2.798 .784-2.831 .897-2.865 1.01-2.893 1.11-2.915 1.196-2.948 1.266-2.987 1.353-3.031 1.457-3.076 1.56-3.126 1.612-3.182 1.612L-6.146 1.56C-6.168 1.56-6.249 1.556-6.387 1.547-6.526 1.538-6.676 1.534-6.837 1.534-6.998 1.534-7.148 1.53-7.287 1.522-7.426 1.513-7.506 1.509-7.529 1.509-7.584 1.509-7.606 1.491-7.595 1.457-7.584 1.421-7.606 1.404-7.661 1.404-7.695 1.404-7.722 1.43-7.745 1.482-7.767 1.534-7.8 1.56-7.845 1.56-7.901 1.56-7.976 1.534-8.07 1.482-8.164 1.43-8.233 1.404-8.278 1.404-8.322 1.404-8.342 1.413-8.336 1.43-8.33 1.448-8.35 1.457-8.394 1.457-8.45 1.457-8.469 1.434-8.453 1.392-8.436 1.348-8.455 1.326-8.511 1.326-8.555 1.326-8.608 1.361-8.669 1.43-8.73 1.499-8.789 1.56-8.844 1.612-8.855 1.595-8.838 1.551-8.794 1.482-8.817 1.448-8.835 1.413-8.852 1.378-8.869 1.343-8.9 1.326-8.944 1.326-8.988 1.326-9.047 1.343-9.119 1.378-9.191 1.413-9.255 1.457-9.311 1.509-9.354 1.439-9.366 1.396-9.344 1.378-9.366 1.361-9.404 1.343-9.46 1.326-9.516 1.309-9.555 1.248-9.577 1.144-9.621 .988-9.68 .828-9.752 .663-9.824 .498-9.888 .346-9.943 .208-9.932 .19-9.927 .173-9.927 .156-9.927 .121-9.921 .095-9.91 .078-9.954 .009-9.971-.087-9.96-.208H-10.035C-10.062-.208-10.087-.226-10.11-.26-10.11-.312-10.096-.343-10.068-.351-10.04-.36-10.015-.382-9.993-.416-10.015-.451-10.032-.481-10.043-.507-10.054-.533-10.087-.546-10.143-.546-10.187-.546-10.204-.529-10.193-.494-10.182-.459-10.199-.442-10.243-.442-10.31-.442-10.379-.516-10.452-.663-10.524-.811-10.582-.91-10.626-.962-10.649-.98-10.679-.988-10.718-.988-10.757-.988-10.787-1.014-10.809-1.066-10.787-1.101-10.754-1.118-10.709-1.118-10.743-1.17-10.787-1.248-10.843-1.352-10.898-1.456-10.948-1.518-10.992-1.535-10.992-1.569-10.987-1.595-10.976-1.612-10.965-1.63-10.96-1.656-10.96-1.69-10.992-1.725-11.029-1.764-11.067-1.807-11.107-1.851-11.142-1.873-11.175-1.873-11.231-1.873-11.265-1.851-11.275-1.807-11.287-1.764-11.32-1.76-11.375-1.794-11.375-1.829-11.365-1.855-11.342-1.873-11.32-1.89-11.298-1.899-11.275-1.899-11.309-1.933-11.348-1.963-11.392-1.99-11.437-2.015-11.481-2.029-11.526-2.029-11.57-2.029-11.584-2.02-11.567-2.002-11.551-1.986-11.554-1.968-11.576-1.95-11.654-1.933-11.734-1.916-11.817-1.899-11.901-1.881-11.958-1.873-11.992-1.873-12.047-1.873-12.067-1.89-12.05-1.924-12.033-1.959-12.053-1.977-12.108-1.977-12.153-1.977-12.175-1.959-12.175-1.924-12.175-1.89-12.186-1.864-12.208-1.846-12.297-1.829-12.4-1.799-12.516-1.755-12.633-1.712-12.747-1.673-12.858-1.638-12.858-1.603-12.847-1.574-12.824-1.547-12.802-1.521-12.78-1.491-12.758-1.456-12.792-1.422-12.832-1.396-12.883-1.378-12.933-1.361-12.986-1.335-13.041-1.3V-1.118C-12.986-1.084-12.914-1.036-12.824-.975-12.736-.915-12.714-.815-12.758-.676H-12.691C-12.67-.676-12.647-.659-12.625-.624-12.647-.589-12.68-.572-12.725-.572-12.691-.538-12.658-.494-12.625-.442-12.591-.39-12.558-.329-12.525-.26-12.525-.347-12.541-.416-12.575-.468L-12.491-.598C-12.414-.407-12.35-.208-12.3 0-12.25 .208-12.198 .407-12.142 .598L-12.175 .702C-12.164 .736-12.142 .776-12.108 .819-12.075 .862-12.047 .901-12.025 .936-12.014 .988-12.036 1.014-12.092 1.014-12.025 1.1-11.978 1.226-11.95 1.392-11.922 1.556-11.859 1.655-11.759 1.691-11.726 1.725-11.692 1.729-11.659 1.703-11.626 1.677-11.576 1.681-11.509 1.716V1.951C-11.554 1.967-11.598 1.915-11.642 1.794-11.697 1.794-11.742 1.821-11.776 1.872-11.697 2.028-11.612 2.227-11.517 2.471-11.423 2.713-11.325 2.939-11.225 3.146-11.215 3.146-11.192 3.138-11.159 3.121-11.125 3.103-11.092 3.112-11.059 3.146-11.059 3.182-11.071 3.212-11.092 3.238-11.115 3.263-11.125 3.294-11.125 3.329-11.103 3.329-11.085 3.319-11.067 3.302-11.051 3.285-11.021 3.277-10.976 3.277-10.92 3.277-10.868 3.306-10.818 3.367-10.768 3.428-10.704 3.502-10.626 3.589V3.615C-10.626 3.632-10.632 3.65-10.643 3.667-10.676 3.615-10.743 3.632-10.843 3.719-10.776 3.719-10.726 3.744-10.693 3.796-10.659 3.849-10.604 3.927-10.526 4.031-10.56 4.083-10.604 4.109-10.659 4.109-10.649 4.178-10.632 4.23-10.609 4.265-10.587 4.299-10.566 4.334-10.543 4.369-10.509 4.438-10.487 4.529-10.476 4.642-10.466 4.754-10.443 4.846-10.41 4.915-10.376 5.002-10.332 5.075-10.276 5.136-10.221 5.197-10.165 5.27-10.11 5.357-10.143 5.548-10.102 5.704-9.985 5.825-9.868 5.947-9.76 5.998-9.66 5.981-9.649 5.981-9.643 5.99-9.643 6.008-9.643 6.024-9.638 6.042-9.627 6.059-9.66 6.163-9.666 6.246-9.643 6.307-9.621 6.367-9.61 6.432-9.61 6.502-9.61 6.588-9.591 6.614-9.552 6.58-9.513 6.544-9.483 6.544-9.46 6.58-9.483 6.614-9.502 6.627-9.518 6.619-9.535 6.609-9.555 6.605-9.577 6.605-9.543 6.64-9.499 6.657-9.444 6.657-9.399 6.657-9.376 6.674-9.376 6.709V6.814C-9.354 6.727-9.266 6.727-9.111 6.814-9.133 6.778-9.149 6.757-9.161 6.749-9.172 6.74-9.188 6.718-9.211 6.684V6.657C-9.211 6.64-9.205 6.623-9.194 6.605-9.172 6.64-9.152 6.657-9.136 6.657-9.119 6.657-9.099 6.674-9.077 6.709-9.077 6.674-9.089 6.653-9.111 6.644-9.133 6.636-9.155 6.614-9.177 6.58L-8.961 6.527C-8.917 6.631-8.933 6.684-9.011 6.684-8.966 6.701-8.913 6.774-8.852 6.904-8.792 7.034-8.76 7.143-8.76 7.229-8.76 7.316-8.805 7.394-8.894 7.463-8.872 7.463-8.844 7.455-8.81 7.438-8.777 7.42-8.739 7.411-8.694 7.411-8.65 7.411-8.622 7.438-8.611 7.49-8.6 7.542-8.577 7.584-8.544 7.62V7.879C-8.577 7.914-8.617 7.91-8.661 7.866-8.705 7.823-8.744 7.801-8.777 7.801-8.8 7.854-8.744 7.94-8.611 8.062-8.633 8.096-8.642 8.11-8.636 8.101-8.63 8.092-8.65 8.088-8.694 8.088-8.76 8.088-8.81 8.058-8.844 7.997-8.877 7.936-8.902 7.866-8.919 7.789-8.935 7.711-8.949 7.628-8.961 7.542-8.972 7.455-8.994 7.394-9.027 7.36-9.05 7.394-9.055 7.425-9.044 7.451-9.033 7.477-9.038 7.507-9.061 7.542-9.094 7.542-9.119 7.524-9.136 7.49-9.152 7.455-9.177 7.42-9.211 7.386-9.211 7.368-9.205 7.36-9.194 7.36H-9.144C-9.167 7.308-9.202 7.251-9.252 7.191-9.301 7.13-9.349 7.082-9.394 7.047-9.327 7.238-9.239 7.455-9.127 7.697-9.016 7.94-8.9 8.175-8.777 8.4V8.53C-8.755 8.53-8.741 8.513-8.735 8.478-8.73 8.443-8.717 8.408-8.694 8.374-8.65 8.408-8.592 8.43-8.519 8.439-8.447 8.447-8.372 8.469-8.294 8.504-8.35 8.556-8.408 8.581-8.469 8.581-8.53 8.581-8.6 8.608-8.677 8.66-8.644 8.694-8.617 8.742-8.594 8.803-8.572 8.863-8.55 8.919-8.528 8.972-8.472 8.936-8.414 8.928-8.353 8.946-8.292 8.963-8.233 8.972-8.178 8.972-8.144 9.024-8.156 9.049-8.211 9.049-8.178 9.049-8.144 9.076-8.111 9.128-8.122 9.162-8.15 9.206-8.194 9.258-8.239 9.31-8.273 9.336-8.294 9.336-8.261 9.336-8.216 9.34-8.161 9.349-8.105 9.358-8.051 9.345-7.995 9.31-7.973 9.345-7.962 9.379-7.962 9.414-7.962 9.449-7.945 9.492-7.911 9.544-7.945 9.579-7.976 9.6-8.003 9.609-8.031 9.617-8.056 9.639-8.078 9.674-7.967 9.639-7.906 9.665-7.895 9.752-7.884 9.839-7.884 9.925-7.895 10.012-7.861 10.046-7.823 10.081-7.778 10.116-7.734 10.151-7.695 10.185-7.661 10.22-7.684 10.255-7.706 10.277-7.728 10.285-7.75 10.294-7.772 10.316-7.795 10.35-7.706 10.35-7.632 10.393-7.57 10.48-7.509 10.567-7.453 10.666-7.403 10.779-7.354 10.891-7.312 11.013-7.279 11.143-7.245 11.273-7.206 11.373-7.162 11.442-7.106 11.407-7.045 11.412-6.978 11.455-6.911 11.499-6.856 11.52-6.812 11.52-6.768 11.52-6.743 11.494-6.737 11.442-6.731 11.39-6.706 11.365-6.662 11.365-6.618 11.365-6.601 11.36-6.612 11.351-6.623 11.342-6.618 11.355-6.596 11.39-6.606 11.442-6.626 11.472-6.654 11.481-6.682 11.49-6.706 11.511-6.728 11.546-6.673 11.581-6.621 11.615-6.571 11.65-6.521 11.685-6.474 11.728-6.429 11.78-6.374 11.798-6.324 11.807-6.279 11.807H-6.129C-6.085 11.807-6.074 11.784-6.096 11.742-6.118 11.698-6.107 11.677-6.063 11.677-6.018 11.677-5.999 11.698-6.005 11.742-6.01 11.784-5.985 11.807-5.929 11.807-5.885 11.807-5.771 11.763-5.588 11.677-5.405 11.59-5.257 11.529-5.147 11.494-5.157 11.494-5.163 11.486-5.163 11.468-5.174 11.451-5.18 11.425-5.18 11.39-5.069 11.355-4.947 11.312-4.814 11.26-4.68 11.208-4.586 11.183-4.53 11.183-4.486 11.183-4.47 11.191-4.48 11.208-4.491 11.226-4.475 11.235-4.431 11.235-4.397 11.235-4.336 11.17-4.247 11.039-4.158 10.909-4.069 10.801-3.981 10.714-3.981 10.697-3.984 10.662-3.989 10.61-3.995 10.558-3.981 10.506-3.947 10.454-3.925 10.454-3.909 10.475-3.897 10.519-3.887 10.562-3.859 10.584-3.814 10.584-3.77 10.584-3.722 10.562-3.673 10.519-3.622 10.475-3.581 10.437-3.548 10.402V10.272C-3.548 10.22-3.537 10.177-3.514 10.142-3.537 10.142-3.559 10.146-3.581 10.155-3.603 10.164-3.626 10.151-3.648 10.116-3.592 10.064-3.542 9.986-3.498 9.882-3.453 9.778-3.387 9.665-3.298 9.544-3.309 9.526-3.331 9.513-3.364 9.505-3.397 9.496-3.437 9.474-3.481 9.44-3.459 9.353-3.431 9.323-3.397 9.349-3.364 9.375-3.309 9.397-3.231 9.414-3.22 9.414-3.215 9.406-3.215 9.388-3.215 9.353-3.22 9.327-3.231 9.31-3.231 9.258-3.235 9.227-3.239 9.219-3.245 9.21-3.226 9.206-3.182 9.206-3.126 9.206-3.09 9.21-3.073 9.219-3.056 9.227-3.037 9.232-3.015 9.232-3.037 9.197-3.054 9.167-3.065 9.141-3.076 9.114-3.07 9.085-3.048 9.049-3.07 9.049-3.098 9.059-3.132 9.076-3.165 9.093-3.198 9.085-3.231 9.049-3.209 8.998-3.184 8.959-3.155 8.933-3.129 8.907-3.103 8.868-3.082 8.816H-3.348C-3.37 8.764-3.375 8.703-3.364 8.634-3.353 8.564-3.359 8.504-3.381 8.452-3.37 8.417-3.353 8.387-3.331 8.361-3.309 8.335-3.303 8.304-3.315 8.27V8.218C-3.315 8.2-3.331 8.192-3.364 8.192-3.397 8.192-3.422 8.2-3.439 8.218-3.456 8.235-3.47 8.252-3.481 8.27-3.492 8.287-3.512 8.304-3.539 8.321-3.567 8.339-3.609 8.339-3.664 8.321V8.088C-3.653 8.088-3.642 8.096-3.631 8.114-3.62 8.114-3.606 8.118-3.589 8.126-3.573 8.135-3.553 8.139-3.531 8.139-3.487 8.139-3.47 8.114-3.481 8.062-3.492 8.01-3.464 7.984-3.397 7.984-3.353 7.984-3.323 8-3.306 8.036-3.29 8.071-3.281 8.104-3.281 8.139-3.192 8.053-3.117 7.932-3.056 7.776-2.995 7.62-2.97 7.498-2.981 7.411-2.959 7.377-2.928 7.36-2.89 7.36H-2.798C-2.798 7.342-2.821 7.299-2.865 7.229-2.854 7.143-2.837 7.086-2.815 7.06-2.793 7.034-2.768 7.017-2.74 7.009-2.712 7-2.681 6.991-2.648 6.983-2.615 6.973-2.582 6.934-2.548 6.865-2.548 6.83-2.562 6.796-2.59 6.761-2.618 6.727-2.643 6.692-2.665 6.657-2.654 6.57-2.618 6.506-2.556 6.463-2.496 6.419-2.426 6.346-2.348 6.242L-2.382 6.189C-2.393 6.172-2.404 6.159-2.415 6.15-2.426 6.141-2.437 6.129-2.449 6.111V5.955C-2.393 5.92-2.354 5.864-2.332 5.786-2.309 5.709-2.265 5.686-2.199 5.721-2.221 5.721-2.232 5.678-2.232 5.592L-2.182 5.487C-2.16 5.522-2.143 5.535-2.132 5.526-2.121 5.517-2.104 5.513-2.082 5.513-2.115 5.513-2.143 5.496-2.165 5.461-2.132 5.426-2.09 5.4-2.04 5.383-1.99 5.366-1.949 5.34-1.915 5.305-1.915 5.27-1.927 5.24-1.949 5.214-1.971 5.188-1.993 5.158-2.015 5.123-1.982 5.088-1.946 5.058-1.907 5.032-1.868 5.006-1.838 4.976-1.815 4.941-1.838 4.906-1.86 4.889-1.882 4.889-1.904 4.889-1.927 4.872-1.949 4.837V4.656C-1.893 4.62-1.835 4.577-1.774 4.525-1.713 4.473-1.654 4.412-1.599 4.343-1.621 4.308-1.643 4.282-1.665 4.265-1.688 4.247-1.71 4.222-1.732 4.187L-1.649 4.056C-1.627 4.092-1.596 4.109-1.557 4.109-1.518 4.109-1.488 4.126-1.466 4.161-1.488 4.092-1.507 4.018-1.524 3.94-1.54 3.862-1.565 3.796-1.599 3.744-1.565 3.624-1.499 3.563-1.399 3.563-1.354 3.563-1.324 3.567-1.308 3.576-1.291 3.584-1.271 3.589-1.249 3.589-1.261 3.571-1.266 3.554-1.266 3.537-1.277 3.519-1.283 3.493-1.283 3.458-1.305 3.458-1.338 3.467-1.383 3.484-1.427 3.502-1.46 3.493-1.483 3.458-1.46 3.407-1.424 3.381-1.374 3.381H-1.249C-1.227 3.329-1.224 3.25-1.241 3.146-1.258 3.043-1.238 2.991-1.183 2.991-1.138 2.991-1.119 2.999-1.124 3.016-1.13 3.034-1.122 3.043-1.099 3.043-1.122 2.973-1.194 2.913-1.316 2.861-1.261 2.808-1.197 2.773-1.124 2.757-1.052 2.739-.999 2.713-.966 2.679H-1.032C-1.055 2.679-1.077 2.661-1.099 2.627-1.099 2.574-1.08 2.526-1.041 2.483-1.002 2.44-.96 2.401-.916 2.367-.972 2.367-1.01 2.349-1.032 2.315-.999 2.245-.966 2.189-.932 2.145-.899 2.102-.872 2.054-.85 2.003V1.872C-.783 1.855-.727 1.794-.683 1.691-.639 1.586-.597 1.477-.558 1.365-.519 1.252-.481 1.148-.441 1.054-.403 .958-.35 .901-.283 .884-.305 .78-.366 .667-.466 .546-.433 .494-.391 .446-.341 .403-.291 .359-.255 .321-.233 .286-.266 .234-.266 .182-.233 .13-.189 .147-.161 .169-.15 .195-.139 .221-.111 .234-.066 .234-.022 .234 .022 .195 .067 .117 .111 .039 .161-.026 .216-.078 .139-.078 .078-.104 .034-.156 .034-.208 .039-.23 .05-.221 .061-.213 .078-.208 .1-.208V-.338C.1-.39 .111-.433 .133-.468 .044-.538-.011-.607-.034-.676-.011-.711-.006-.732-.016-.741-.028-.749-.011-.754 .034-.754 .078-.754 .1-.749 .1-.741 .1-.732 .111-.728 .133-.728V-1.196C.1-1.232 .072-1.274 .05-1.326 .028-1.378 0-1.422-.034-1.456-.011-1.491 .022-1.508 .067-1.508V-1.535C.067-1.552 .055-1.578 .034-1.612 .067-1.648 .08-1.69 .075-1.742 .069-1.794 .094-1.82 .15-1.82H.216C.239-1.82 .25-1.838 .25-1.873" fill="#ffffff"/>
<path transform="matrix(1,0,0,-1,81.438,133.8309)" d="M0 0C-.007-.044-.017-.106-.017-.106-.019-.115-.035-.205-.02-.247-.008-.278 .005-.288 .038-.303L.113-.338C.138-.349 .206-.388 .262-.271 .317-.152 .259-.122 .222-.105ZM.491-.231 .401-.188C.41-.268 .434-.419 .334-.631 .243-.826 .127-.882 .056-.884 .008-.886-.032-.868-.113-.83-.265-.759-.329-.676-.289-.447-.263-.307-.216-.171-.185-.03-.178 .004-.171 .041-.167 .078L-.235 .11C-.261 .122-.321 .15-.373 .041-.421-.063-.353-.093-.33-.105L-.277-.13-.489-.584-.564-.549C-.635-.515-.655-.493-.682-.455-.793-.292-.677 .001-.587 .192-.454 .472-.325 .601-.207 .632-.149 .645-.1 .645-.008 .602L.591 .32C.671 .282 .697 .293 .751 .322Z" fill="#ffffff"/>
<path transform="matrix(1,0,0,-1,82.4628,131.0082)" d="M0 0C-.031 .014-.094 .044-.15-.076-.203-.19-.131-.22-.104-.233L.33-.436C.356-.449 .423-.477 .475-.366 .531-.246 .467-.219 .434-.204ZM.857 .098C.899-.042 .829-.186 .807-.233 .786-.277 .737-.387 .637-.461 .627-.468 .604-.486 .575-.498 .551-.508 .509-.518 .506-.519L.942-.723 .714-1.211-.634-.579-.406-.091-.279-.151C-.289-.133-.306-.103-.314-.084-.336-.026-.345 .092-.269 .255-.162 .484-.033 .543 .054 .544 .096 .543 .126 .539 .193 .507L.66 .288C.743 .25 .824 .209 .857 .098M-.617-1.344C-.648-1.329-.711-1.3-.767-1.419-.821-1.533-.749-1.564-.722-1.577L-.287-1.78C-.261-1.793-.194-1.82-.142-1.71-.086-1.59-.151-1.563-.183-1.547ZM.239-1.246C.281-1.386 .212-1.531 .189-1.577 .169-1.621 .12-1.731 .02-1.804 .009-1.812-.013-1.83-.042-1.842-.066-1.852-.108-1.862-.111-1.863L.325-2.068 .096-2.556-1.252-1.923-1.023-1.435-.896-1.495C-.907-1.477-.923-1.447-.931-1.428-.953-1.37-.963-1.252-.886-1.088-.779-.86-.65-.8-.563-.8-.521-.801-.491-.805-.424-.837L.043-1.056C.125-1.094 .207-1.136 .239-1.246" fill="#ffffff"/>
<path transform="matrix(1,0,0,-1,84.323,127.382198)" d="M0 0C-.029-.109 .027-.152 .093-.183L.646-.442 .416-.932-.608-.452-.378 .039-.218-.037C-.231-.008-.245 .017-.254 .047-.3 .173-.27 .283-.252 .34L.079 .185C.061 .143 .015 .051 0 0" fill="#ffffff"/>
<path transform="matrix(1,0,0,-1,84.7297,126.3958)" d="M0 0C-.029 .014-.091 .037-.141-.073-.194-.184-.141-.215-.106-.231L.016-.29 .125-.059ZM.842 .041C.865-.08 .832-.229 .71-.488 .681-.55 .65-.612 .615-.671 .596-.703 .471-.929 .309-.964 .219-.986 .148-.952 .077-.919L-.276-.753C-.292-.746-.362-.716-.414-.673-.528-.572-.524-.421-.467-.242-.454-.204-.421-.109-.373-.005-.35 .044-.326 .089-.299 .137-.219 .283-.102 .456 .046 .488 .121 .503 .18 .479 .243 .449L.504 .327 .18-.366 .331-.437C.358-.45 .428-.492 .485-.37 .537-.258 .468-.229 .443-.218L.386-.19 .606 .279 .661 .253C.75 .211 .82 .166 .842 .041" fill="#ffffff"/>
<path transform="matrix(1,0,0,-1,86.0791,125.45699)" d="M0 0-.732 .344C-.753 .354-.824 .396-.877 .285-.927 .178-.848 .145-.829 .136L-.098-.207-.327-.698-1.351-.217-1.121 .273-1.019 .225C-1.029 .255-1.045 .294-1.044 .376-1.045 .42-1.04 .501-.989 .61-.97 .648-.927 .735-.846 .805-.701 .927-.587 .877-.468 .821L.231 .493Z" fill="#ffffff"/>
<path transform="matrix(1,0,0,-1,85.9743,123.756298)" d="M0 0C-.033 .015-.086 .031-.137-.078-.144-.094-.176-.161-.14-.204-.129-.215-.119-.219-.105-.226L.365-.447C.401-.464 .451-.477 .502-.368 .553-.259 .494-.232 .467-.219ZM.739-.347 .622-.292C.651-.347 .667-.386 .667-.458 .666-.508 .656-.58 .604-.692 .589-.723 .52-.873 .407-.941 .354-.973 .311-.978 .291-.978 .239-.979 .191-.963 .101-.92L-.331-.717C-.355-.707-.378-.696-.4-.683-.434-.66-.566-.582-.531-.384-.519-.307-.48-.231-.471-.21-.413-.088-.335 .024-.224 .067-.201 .075-.198 .077-.175 .082L-.616 .289-.387 .779 .97 .143Z" fill="#ffffff"/>
<path transform="matrix(1,0,0,-1,86.6051,122.397998)" d="M0 0C-.029 .013-.091 .037-.142-.072-.194-.184-.141-.215-.107-.232L.016-.289 .125-.059ZM.842 .042C.864-.079 .832-.229 .71-.488 .681-.551 .649-.611 .615-.671 .596-.703 .471-.93 .308-.965 .219-.986 .148-.952 .077-.919L-.276-.753C-.291-.746-.362-.716-.414-.673-.529-.571-.524-.422-.468-.242-.454-.204-.422-.109-.373-.006-.35 .044-.326 .09-.3 .137-.219 .283-.103 .456 .046 .488 .121 .503 .18 .479 .243 .449L.504 .326 .179-.366 .331-.437C.358-.45 .428-.491 .485-.369 .536-.258 .468-.229 .443-.217L.386-.191 .606 .279 .662 .253C.751 .212 .82 .166 .842 .042" fill="#ffffff"/>
<path transform="matrix(1,0,0,-1,82.7877,129.9988)" d="M0 0C0 .237 .192 .429 .429 .429 .666 .429 .858 .237 .858 0 .858-.237 .666-.429 .429-.429 .192-.429 0-.237 0 0" fill="#95c13d"/>
<path transform="matrix(1,0,0,-1,84.1425,128.95789)" d="M0 0C-.052-.112-.118-.083-.146-.071L-.58 .133C-.606 .146-.679 .176-.625 .29-.569 .409-.505 .38-.475 .366L-.041 .161C-.008 .146 .056 .119 0 0M.031-.154C.035-.152 .076-.143 .1-.132 .129-.121 .151-.103 .162-.095 .262-.022 .312 .088 .332 .132 .354 .179 .424 .323 .382 .463 .35 .574 .267 .615 .185 .654L-.282 .873C-.349 .904-.379 .909-.421 .91-.508 .909-.637 .849-.744 .621-.82 .458-.811 .339-.789 .281-.781 .262-.765 .232-.754 .214L-.881 .274-1.11-.213 .239-.846 .467-.358Z" fill="#ffffff"/>
</g>
</g>
</g>
</svg>
