<?xml version="1.0" encoding="UTF-8" standalone="no"?>
<!-- Created with Inkscape (http://www.inkscape.org/) -->

<svg
   version="1.1"
   id="svg2"
   width="188.976"
   height="151.18134"
   viewBox="0 0 188.976 151.18134"
   sodipodi:docname="OE STICKER GENERICA NOTEBOOK 5x4 cm .ai"
   xmlns:inkscape="http://www.inkscape.org/namespaces/inkscape"
   xmlns:sodipodi="http://sodipodi.sourceforge.net/DTD/sodipodi-0.dtd"
   xmlns="http://www.w3.org/2000/svg"
   xmlns:svg="http://www.w3.org/2000/svg">
  <defs
     id="defs6">
    <clipPath
       clipPathUnits="userSpaceOnUse"
       id="clipPath52">
      <path
         d="M 0,113.386 H 141.732 V 0 H 0 Z"
         id="path50" />
    </clipPath>
    <clipPath
       clipPathUnits="userSpaceOnUse"
       id="clipPath284">
      <path
         d="M 37.8804,36.4552 H 55.8186 V 34.585 H 37.8804 Z"
         id="path282" />
    </clipPath>
    <clipPath
       clipPathUnits="userSpaceOnUse"
       id="clipPath300">
      <path
         d="M 37.6206,36.4416 H 56.0785 V 17.9849 H 37.6206 Z"
         id="path298" />
    </clipPath>
  </defs>
  <sodipodi:namedview
     id="namedview4"
     pagecolor="#ffffff"
     bordercolor="#000000"
     borderopacity="0.25"
     inkscape:showpageshadow="2"
     inkscape:pageopacity="0.0"
     inkscape:pagecheckerboard="0"
     inkscape:deskcolor="#d1d1d1" />
  <g
     id="g8"
     inkscape:groupmode="layer"
     inkscape:label="OE STICKER GENERICA NOTEBOOK 5x4 cm "
     transform="matrix(1.3333333,0,0,-1.3333333,0,151.18133)">
    <g
       id="g10"
       transform="translate(8.4135,65.4585)">
      <path
         d="M 0,0 H 124.756"
         style="fill:none;stroke:#26231e;stroke-width:0.142;stroke-linecap:butt;stroke-linejoin:miter;stroke-miterlimit:3.864;stroke-dasharray:none;stroke-opacity:1"
         id="path12" />
    </g>
    <g
       id="g14"
       transform="translate(16.5112,80.991)">
      <path
         d="m 0,0 h 5.322 v -6.39 h 8.519 V 0 h 5.326 l 6.388,-11.713 h -5.327 l -3.04,5.578 -7.605,-5.578 -7.607,5.578 -3.044,-5.578 h -5.323 z"
         style="fill:#0091d4;fill-opacity:1;fill-rule:evenodd;stroke:none"
         id="path16" />
    </g>
    <g
       id="g18"
       transform="translate(42.0659,80.991)">
      <path
         d="M 0,0 V 5.324 H -31.946 V 0 h 5.324 l 0.583,1.065 h 6.87 v -6.387 h 6.39 v 6.387 h 6.872 L -5.327,0 Z"
         style="fill:#0091d4;fill-opacity:1;fill-rule:evenodd;stroke:none"
         id="path20" />
    </g>
    <g
       id="g22"
       transform="translate(126.0358,83.1201)">
      <path
         d="m 0,0 -4.44,-4.972 4.897,-5.676 h -3.952 l -2.884,3.504 -3.132,-3.504 h -3.502 l 4.956,5.544 -4.2,5.104 h 3.526 L -6.159,-2.978 -3.495,0 Z"
         style="fill:#251f1f;fill-opacity:1;fill-rule:nonzero;stroke:none"
         id="path24" />
    </g>
    <g
       id="g26"
       transform="translate(104.3428,79.3126)">
      <path
         d="M 0,0 H 6.674 V -2.155 L 0,-2.128 V -4.709 H 7.859 V -6.841 H -2.842 V 3.808 H 7.859 V 1.678 H 0 Z"
         style="fill:#251f1f;fill-opacity:1;fill-rule:nonzero;stroke:none"
         id="path28" />
    </g>
    <g
       id="g30"
       transform="translate(62.9193,79.3126)">
      <path
         d="M 0,0 H 6.668 V -2.155 L 0,-2.128 V -4.709 H 7.853 V -6.841 H -2.848 V 3.808 H 7.853 V 1.678 H 0 Z"
         style="fill:#251f1f;fill-opacity:1;fill-rule:nonzero;stroke:none"
         id="path32" />
    </g>
    <g
       id="g34"
       transform="translate(84.7035,83.1201)">
      <path
         d="M 0,0 H 4.984 L 7.374,-6.112 9.846,0 h 5.032 v -10.648 h -2.896 v 8.496 L 8.384,-10.648 H 6.318 l -3.475,8.519 v -8.519 H 0 Z"
         style="fill:#251f1f;fill-opacity:1;fill-rule:nonzero;stroke:none"
         id="path36" />
    </g>
    <g
       id="g38"
       transform="translate(47.3917,83.1201)">
      <path
         d="M 0,0 H 11.275 V -2.129 H 7.047 v -8.519 H 4.204 v 8.519 l -4.204,0 z"
         style="fill:#251f1f;fill-opacity:1;fill-rule:nonzero;stroke:none"
         id="path40" />
    </g>
    <g
       id="g42"
       transform="translate(72.716,83.1201)">
      <path
         d="m 0,0 h 2.896 v -8.517 h 7.806 v -2.131 H 0 Z"
         style="fill:#251f1f;fill-opacity:1;fill-rule:nonzero;stroke:none"
         id="path44" />
    </g>
    <g
       id="g46">
      <g
         id="g48"
         clip-path="url(#clipPath52)">
        <g
           id="g54"
           transform="translate(129.3825,75.6693)">
          <path
             d="M 0,0 C 1.174,0 2.129,-0.955 2.129,-2.132 2.129,-3.307 1.174,-4.26 0,-4.26 c -1.178,0 -2.129,0.953 -2.129,2.128 C -2.129,-0.955 -1.178,0 0,0 m 0,-0.248 c -1.037,0 -1.884,-0.845 -1.884,-1.884 0,-1.038 0.847,-1.879 1.884,-1.879 1.037,0 1.881,0.841 1.881,1.879 0,1.039 -0.844,1.884 -1.881,1.884 m 0.218,-1.713 c 0.149,0 0.271,0.029 0.357,0.089 0.087,0.06 0.133,0.169 0.133,0.327 0,0.17 -0.06,0.284 -0.186,0.348 -0.064,0.03 -0.15,0.047 -0.261,0.047 h -0.787 v -0.811 z m -1.065,1.086 h 1.1 c 0.179,0 0.329,-0.026 0.449,-0.08 0.222,-0.098 0.332,-0.286 0.332,-0.56 0,-0.14 -0.029,-0.256 -0.091,-0.347 -0.056,-0.093 -0.136,-0.164 -0.241,-0.219 0.089,-0.037 0.161,-0.086 0.21,-0.149 0.042,-0.06 0.07,-0.162 0.073,-0.297 l 0.014,-0.319 c 0,-0.091 0.012,-0.158 0.02,-0.203 0.023,-0.075 0.054,-0.123 0.104,-0.146 V -3.247 H 0.73 c -0.011,0.021 -0.019,0.045 -0.024,0.078 -0.01,0.032 -0.014,0.096 -0.018,0.189 l -0.02,0.396 C 0.662,-2.43 0.605,-2.327 0.497,-2.271 0.432,-2.246 0.337,-2.23 0.206,-2.23 h -0.732 v -1.017 h -0.321 z"
             style="fill:#251f1f;fill-opacity:1;fill-rule:evenodd;stroke:none"
             id="path56" />
        </g>
        <g
           id="g58"
           transform="translate(50.4528,94.333)">
          <path
             d="m 0,0 c -0.297,0 -0.56,-0.01 -0.79,-0.02 l -0.357,-1.845 c 0.153,-0.008 0.306,-0.008 0.479,-0.008 0.973,0 1.666,0.46 1.666,1.223 C 0.998,-0.252 0.735,0 0,0 m -0.625,-2.893 c -0.251,0 -0.573,0 -0.719,-0.009 l -0.37,-1.978 c 0.151,-0.022 0.399,-0.044 0.67,-0.044 1.035,0 1.582,0.6 1.582,1.268 0,0.503 -0.376,0.763 -1.163,0.763 m 1.665,0.619 v -0.009 c 0.59,-0.136 0.924,-0.681 0.924,-1.279 0,-1.332 -1.185,-2.472 -3.162,-2.472 -0.473,0 -1.199,0.023 -2.079,0.023 l 1.342,7.057 c 0.591,0.03 1.501,0.052 2.282,0.052 1.344,0 2.095,-0.47 2.095,-1.434 0,-0.984 -0.639,-1.612 -1.402,-1.938"
             style="fill:#0091d4;fill-opacity:1;fill-rule:nonzero;stroke:none"
             id="path60" />
        </g>
        <g
           id="g62"
           transform="translate(55.3267,94.1961)">
          <path
             d="m 0,0 c -0.459,0 -0.776,0.366 -0.776,0.754 0,0.502 0.418,0.87 0.882,0.87 C 0.566,1.624 0.88,1.267 0.88,0.89 0.88,0.366 0.461,0 0,0 m -0.564,-5.874 h -1.312 l 0.797,4.158 v 0.019 c -0.23,0.042 -0.576,0.084 -0.877,0.106 l 0.155,0.838 c 0.671,0.083 1.477,0.114 2.231,0.092 z"
             style="fill:#0091d4;fill-opacity:1;fill-rule:nonzero;stroke:none"
             id="path64" />
        </g>
        <g
           id="g66"
           transform="translate(59.8617,92.4899)">
          <path
             d="m 0,0 c -0.756,0 -1.667,-1.707 -1.876,-2.786 l -0.071,-0.357 c 0.175,-0.04 0.353,-0.073 0.584,-0.073 1.204,0 1.76,1.404 1.76,2.492 C 0.397,-0.211 0.248,0 0,0 m -1.594,-4.264 c -0.683,0 -1.279,0.065 -1.845,0.189 l 1.24,6.505 0.008,0.019 c -0.241,0.043 -0.577,0.086 -0.878,0.105 l 0.156,0.838 c 0.659,0.084 1.474,0.115 2.231,0.095 L -1.109,1.256 C -1.197,0.783 -1.352,0.295 -1.689,-0.619 h 0.022 c 0.535,1.038 1.267,1.771 2.19,1.771 0.796,0 1.225,-0.513 1.225,-1.623 0,-1.969 -1.061,-3.793 -3.342,-3.793"
             style="fill:#0091d4;fill-opacity:1;fill-rule:nonzero;stroke:none"
             id="path68" />
        </g>
        <g
           id="g70"
           transform="translate(63.4413,88.322)">
          <path
             d="m 0,0 h -1.31 l 1.257,6.598 0.012,0.019 C -0.28,6.66 -0.626,6.703 -0.922,6.722 l 0.148,0.838 c 0.666,0.084 1.479,0.115 2.231,0.095 z"
             style="fill:#0091d4;fill-opacity:1;fill-rule:nonzero;stroke:none"
             id="path72" />
        </g>
        <g
           id="g74"
           transform="translate(67.0768,94.1961)">
          <path
             d="m 0,0 c -0.461,0 -0.773,0.366 -0.773,0.754 0,0.502 0.417,0.87 0.877,0.87 C 0.563,1.624 0.88,1.267 0.88,0.89 0.88,0.366 0.461,0 0,0 m -0.57,-5.874 h -1.305 l 0.796,4.158 v 0.019 c -0.231,0.042 -0.576,0.084 -0.877,0.106 l 0.156,0.838 c 0.669,0.083 1.473,0.114 2.228,0.092 z"
             style="fill:#0091d4;fill-opacity:1;fill-rule:nonzero;stroke:none"
             id="path76" />
        </g>
        <g
           id="g78"
           transform="translate(70.9433,92.4899)">
          <path
             d="m 0,0 c -0.978,0 -1.561,-1.164 -1.561,-2.199 0,-0.568 0.227,-0.924 0.835,-0.924 0.933,0 1.581,1.036 1.581,2.198 C 0.855,-0.324 0.603,0 0,0 m -0.905,-4.273 c -1.455,0 -2.031,0.689 -2.031,1.863 0,2.178 1.465,3.551 3.131,3.551 1.489,0 2.046,-0.794 2.046,-1.895 0,-2.149 -1.512,-3.519 -3.146,-3.519"
             style="fill:#0091d4;fill-opacity:1;fill-rule:nonzero;stroke:none"
             id="path80" />
        </g>
        <g
           id="g82"
           transform="translate(77.2147,92.4899)">
          <path
             d="m 0,0 h -1.226 l -0.44,-2.349 c -0.118,-0.627 -0.032,-0.794 0.397,-0.794 0.261,0 0.462,0.032 0.65,0.075 l -0.125,-1.07 c -0.347,-0.083 -0.744,-0.135 -1.067,-0.135 -1.122,0 -1.434,0.533 -1.196,1.78 L -2.535,0 h -0.89 l 0.211,1.036 h 0.88 l 0.301,1.601 1.363,0.272 -0.36,-1.873 h 1.24 z"
             style="fill:#0091d4;fill-opacity:1;fill-rule:nonzero;stroke:none"
             id="path84" />
        </g>
        <g
           id="g86"
           transform="translate(80.3673,92.6452)">
          <path
             d="m 0,0 c -0.682,0 -1.113,-0.626 -1.3,-1.308 1.201,0.042 1.832,0.293 1.832,0.848 C 0.532,-0.165 0.332,0 0,0 m -1.447,-2.197 c -0.01,-0.117 -0.032,-0.294 -0.032,-0.411 0,-0.599 0.229,-0.775 0.954,-0.775 0.504,0 1.037,0.116 1.518,0.314 v -1.025 c -0.574,-0.22 -1.257,-0.335 -1.945,-0.335 -1.321,0 -1.845,0.607 -1.845,1.761 0,2.177 1.318,3.653 2.941,3.653 1.289,0 1.692,-0.64 1.692,-1.267 0,-1.247 -1.24,-1.854 -3.283,-1.915"
             style="fill:#0091d4;fill-opacity:1;fill-rule:nonzero;stroke:none"
             id="path88" />
        </g>
        <g
           id="g90"
           transform="translate(86.4303,92.3431)">
          <path
             d="m 0,0 c -0.229,0.105 -0.493,0.156 -0.806,0.156 -1.093,0 -1.593,-1.216 -1.593,-2.19 0,-0.491 0.211,-0.922 0.924,-0.922 0.333,0 0.691,0.074 0.973,0.2 l -0.115,-1.163 c -0.356,-0.125 -0.795,-0.207 -1.249,-0.207 -1.392,0 -1.928,0.711 -1.928,1.801 0,1.99 1.179,3.612 3.073,3.612 0.376,0 0.711,-0.053 1.035,-0.136 z"
             style="fill:#0091d4;fill-opacity:1;fill-rule:nonzero;stroke:none"
             id="path92" />
        </g>
        <g
           id="g94"
           transform="translate(89.9678,92.574)">
          <path
             d="m 0,0 c -1.201,0 -1.754,-1.405 -1.754,-2.494 0,-0.513 0.132,-0.723 0.395,-0.723 0.742,0 1.677,1.707 1.884,2.808 l 0.064,0.334 C 0.421,-0.033 0.234,0 0,0 m 1.289,-3.227 c 0.228,-0.04 0.58,-0.085 0.869,-0.106 L 2.004,-4.17 c -0.671,-0.082 -1.469,-0.113 -2.159,-0.095 0.084,0.419 0.23,0.943 0.473,1.668 H 0.293 c -0.419,-0.766 -1.136,-1.771 -2.173,-1.771 -0.798,0 -1.229,0.515 -1.229,1.623 0,1.969 1.058,3.79 3.343,3.79 0.627,0 1.255,-0.042 1.839,-0.155 z"
             style="fill:#0091d4;fill-opacity:1;fill-rule:nonzero;stroke:none"
             id="path96" />
        </g>
        <g
           id="g98"
           transform="translate(98.4566,94.2879)">
          <path
             d="M 0,0 C -0.366,0 -0.665,-0.007 -0.882,-0.03 L -1.78,-4.795 c 0.173,-0.032 0.445,-0.054 0.635,-0.054 2.132,0 2.89,1.941 2.89,3.301 C 1.745,-0.618 1.326,0 0,0 m -1.342,-6.008 c -0.819,0 -1.419,0.029 -2.004,0.052 l 1.344,7.048 c 0.544,0.019 1.392,0.051 2.175,0.051 2.002,0 2.995,-0.898 2.995,-2.554 0,-2.368 -1.476,-4.597 -4.51,-4.597"
             style="fill:#0091d4;fill-opacity:1;fill-rule:nonzero;stroke:none"
             id="path100" />
        </g>
        <g
           id="g102"
           transform="translate(104.1427,94.1961)">
          <path
             d="m 0,0 c -0.463,0 -0.778,0.366 -0.778,0.754 0,0.502 0.419,0.87 0.877,0.87 0.467,0 0.776,-0.357 0.776,-0.734 C 0.875,0.366 0.459,0 0,0 m -0.569,-5.874 h -1.305 l 0.795,4.158 v 0.019 c -0.234,0.042 -0.579,0.084 -0.882,0.106 l 0.158,0.838 c 0.671,0.083 1.476,0.114 2.231,0.092 z"
             style="fill:#0091d4;fill-opacity:1;fill-rule:nonzero;stroke:none"
             id="path104" />
        </g>
        <g
           id="g106"
           transform="translate(108.1721,92.574)">
          <path
             d="m 0,0 c -1.202,0 -1.76,-1.405 -1.76,-2.494 0,-0.513 0.139,-0.723 0.401,-0.723 0.741,0 1.675,1.707 1.883,2.808 l 0.063,0.334 C 0.419,-0.033 0.228,0 0,0 m 1.027,-4.577 c -0.275,-1.434 -1.186,-2.297 -3.217,-2.297 -0.585,0 -1.099,0.087 -1.507,0.222 l 0.304,1.226 c 0.418,-0.2 0.954,-0.304 1.436,-0.304 0.984,0 1.55,0.378 1.728,1.307 0.113,0.599 0.238,0.975 0.532,1.792 l -0.024,0.01 c -0.408,-0.742 -1.132,-1.747 -2.165,-1.747 -0.794,0 -1.226,0.515 -1.226,1.623 0,1.969 1.059,3.79 3.34,3.79 0.632,0 1.259,-0.042 1.845,-0.155 z"
             style="fill:#0091d4;fill-opacity:1;fill-rule:nonzero;stroke:none"
             id="path108" />
        </g>
        <g
           id="g110"
           transform="translate(112.8633,94.1961)">
          <path
             d="m 0,0 c -0.46,0 -0.772,0.366 -0.772,0.754 0,0.502 0.417,0.87 0.878,0.87 0.459,0 0.772,-0.357 0.772,-0.734 C 0.878,0.366 0.462,0 0,0 m -0.564,-5.874 h -1.312 l 0.798,4.158 v 0.019 c -0.229,0.042 -0.578,0.084 -0.878,0.106 l 0.157,0.838 c 0.669,0.083 1.474,0.114 2.228,0.092 z"
             style="fill:#0091d4;fill-opacity:1;fill-rule:nonzero;stroke:none"
             id="path112" />
        </g>
        <g
           id="g114"
           transform="translate(117.2922,92.4899)">
          <path
             d="m 0,0 h -1.225 l -0.437,-2.349 c -0.116,-0.627 -0.033,-0.794 0.397,-0.794 0.264,0 0.462,0.032 0.649,0.075 l -0.125,-1.07 c -0.345,-0.083 -0.745,-0.135 -1.07,-0.135 -1.119,0 -1.435,0.533 -1.196,1.78 L -2.534,0 h -0.888 l 0.209,1.036 h 0.88 l 0.303,1.601 1.361,0.272 -0.356,-1.873 h 1.236 z"
             style="fill:#0091d4;fill-opacity:1;fill-rule:nonzero;stroke:none"
             id="path116" />
        </g>
        <g
           id="g118"
           transform="translate(120.7392,92.574)">
          <path
             d="m 0,0 c -1.205,0 -1.76,-1.405 -1.76,-2.494 0,-0.513 0.139,-0.723 0.401,-0.723 0.742,0 1.671,1.707 1.885,2.808 l 0.061,0.334 C 0.419,-0.033 0.231,0 0,0 m 1.287,-3.227 c 0.231,-0.04 0.58,-0.085 0.87,-0.106 L 2.002,-4.17 c -0.671,-0.082 -1.468,-0.113 -2.16,-0.095 0.083,0.419 0.234,0.943 0.47,1.668 H 0.293 c -0.417,-0.766 -1.14,-1.771 -2.177,-1.771 -0.797,0 -1.226,0.515 -1.226,1.623 0,1.969 1.058,3.79 3.341,3.79 0.629,0 1.257,-0.042 1.842,-0.155 z"
             style="fill:#0091d4;fill-opacity:1;fill-rule:nonzero;stroke:none"
             id="path120" />
        </g>
        <g
           id="g122"
           transform="translate(124.9497,88.322)">
          <path
             d="m 0,0 h -1.308 l 1.253,6.598 0.014,0.019 C -0.28,6.66 -0.627,6.703 -0.922,6.722 l 0.148,0.838 c 0.669,0.084 1.475,0.115 2.23,0.095 z"
             style="fill:#0091d4;fill-opacity:1;fill-rule:nonzero;stroke:none"
             id="path124" />
        </g>
        <g
           id="g126"
           transform="translate(10.1374,60.2746)">
          <path
             d="m 0,0 c -0.149,0 -0.287,0 -0.425,-0.01 v -2.081 c 0.121,-0.019 0.239,-0.028 0.351,-0.028 0.739,0.009 1.249,0.417 1.249,1.091 C 1.175,-0.399 0.813,0 0,0 m -0.018,-3.119 c -0.113,0 -0.261,0 -0.407,0.02 V -5.3 h -1.203 v 6.244 c 0.508,0.027 1.062,0.035 1.672,0.035 1.537,0 2.378,-0.71 2.378,-1.933 0,-1.211 -0.924,-2.165 -2.44,-2.165"
             style="fill:#1d1d1b;fill-opacity:1;fill-rule:nonzero;stroke:none"
             id="path128" />
        </g>
        <g
           id="g130"
           transform="translate(14.7461,58.6471)">
          <path
             d="m 0,0 h 0.018 c 0.224,0.581 0.664,1.091 1.46,1.027 L 1.425,-0.14 C 0.574,0.036 0.15,-0.519 0.15,-1.796 V -3.672 H -1.026 V 0.017 C -1.25,0.054 -1.562,0.091 -1.832,0.111 V 0.85 C -1.25,0.925 -0.538,0.95 0.083,0.934 0.083,0.693 0.054,0.324 0,0"
             style="fill:#1d1d1b;fill-opacity:1;fill-rule:nonzero;stroke:none"
             id="path132" />
        </g>
        <g
           id="g134"
           transform="translate(18.8268,58.6639)">
          <path
             d="m 0,0 c -0.527,0 -1.046,-0.405 -1.046,-1.349 0,-0.946 0.343,-1.425 1.028,-1.425 0.58,0 1.025,0.472 1.025,1.406 C 1.007,-0.48 0.695,0 0,0 m -0.12,-3.783 c -1.303,0 -2.145,0.675 -2.145,2.314 0,1.432 0.951,2.469 2.348,2.469 1.305,0 2.146,-0.723 2.146,-2.305 0,-1.441 -0.971,-2.478 -2.349,-2.478"
             style="fill:#1d1d1b;fill-opacity:1;fill-rule:nonzero;stroke:none"
             id="path136" />
        </g>
        <g
           id="g138"
           transform="translate(27.8585,54.9747)">
          <path
             d="m 0,0 v 2.913 c 0,0.491 -0.112,0.795 -0.549,0.795 -0.516,0 -1.053,-0.61 -1.053,-1.508 V 0 h -1.165 v 2.913 c 0,0.454 -0.092,0.795 -0.545,0.795 -0.547,0 -1.056,-0.648 -1.056,-1.508 V 0 h -1.174 v 3.689 c -0.222,0.038 -0.537,0.074 -0.804,0.094 v 0.739 c 0.582,0.075 1.304,0.1 1.915,0.084 0,-0.222 -0.02,-0.564 -0.058,-0.833 h 0.011 c 0.278,0.564 0.833,0.926 1.519,0.926 0.811,0 1.155,-0.481 1.264,-0.926 0.213,0.453 0.722,0.926 1.499,0.926 0.889,0 1.378,-0.49 1.378,-1.536 L 1.182,0 Z"
             style="fill:#1d1d1b;fill-opacity:1;fill-rule:nonzero;stroke:none"
             id="path140" />
        </g>
        <g
           id="g142"
           transform="translate(32.255,58.6639)">
          <path
             d="m 0,0 c -0.527,0 -1.044,-0.405 -1.044,-1.349 0,-0.946 0.341,-1.425 1.026,-1.425 0.583,0 1.026,0.472 1.026,1.406 C 1.008,-0.48 0.695,0 0,0 m -0.121,-3.783 c -1.301,0 -2.144,0.675 -2.144,2.314 0,1.432 0.951,2.469 2.349,2.469 1.304,0 2.146,-0.723 2.146,-2.305 0,-1.441 -0.971,-2.478 -2.351,-2.478"
             style="fill:#1d1d1b;fill-opacity:1;fill-rule:nonzero;stroke:none"
             id="path144" />
        </g>
        <g
           id="g146"
           transform="translate(37.6409,54.9747)">
          <path
             d="M 0,0 H -1.202 L -2.903,4.597 H -1.61 L -0.878,2.525 C -0.768,2.2 -0.657,1.83 -0.574,1.507 h 0.019 c 0.074,0.314 0.166,0.665 0.277,0.981 L 0.464,4.597 H 1.72 Z"
             style="fill:#1d1d1b;fill-opacity:1;fill-rule:nonzero;stroke:none"
             id="path148" />
        </g>
        <g
           id="g150"
           transform="translate(40.9181,60.1619)">
          <path
             d="m 0,0 c -0.398,0 -0.731,0.326 -0.731,0.723 0,0.389 0.333,0.713 0.731,0.713 0.407,0 0.739,-0.316 0.739,-0.713 C 0.739,0.326 0.407,0 0,0 m 0.592,-5.187 h -1.175 v 3.689 c -0.222,0.038 -0.537,0.074 -0.806,0.094 v 0.739 c 0.584,0.075 1.297,0.1 1.981,0.084 z"
             style="fill:#1d1d1b;fill-opacity:1;fill-rule:nonzero;stroke:none"
             id="path152" />
        </g>
        <g
           id="g154"
           transform="translate(44.581,58.8032)">
          <path
             d="M 0,0 C -0.488,0 -0.831,-0.361 -0.895,-0.916 H 0.796 C 0.816,-0.343 0.499,0 0,0 m 1.934,-1.72 h -2.848 c -0.01,-0.861 0.416,-1.277 1.267,-1.277 0.451,0 0.943,0.102 1.342,0.286 L 1.804,-3.625 C 1.314,-3.82 0.733,-3.922 0.158,-3.922 c -1.461,0 -2.275,0.731 -2.275,2.35 0,1.405 0.776,2.443 2.156,2.443 1.341,0 1.933,-0.916 1.933,-2.054 0,-0.157 -0.01,-0.344 -0.038,-0.537"
             style="fill:#1d1d1b;fill-opacity:1;fill-rule:nonzero;stroke:none"
             id="path156" />
        </g>
        <g
           id="g158"
           transform="translate(48.8945,58.7582)">
          <path
             d="m 0,0 0.008,-0.01 c 0.28,0.545 0.817,0.926 1.565,0.926 1.037,0 1.37,-0.667 1.37,-1.473 V -3.783 H 1.767 v 2.94 c 0,0.481 -0.129,0.768 -0.564,0.768 -0.602,0 -1.073,-0.685 -1.073,-1.488 v -2.22 h -1.176 v 3.689 C -1.268,-0.057 -1.582,-0.02 -1.85,0 v 0.739 c 0.582,0.075 1.295,0.1 1.916,0.084 C 0.066,0.6 0.046,0.239 0,0"
             style="fill:#1d1d1b;fill-opacity:1;fill-rule:nonzero;stroke:none"
             id="path160" />
        </g>
        <g
           id="g162"
           transform="translate(55.8262,58.6471)">
          <path
             d="m 0,0 c -0.214,0.045 -0.416,0.073 -0.622,0.073 -0.672,0 -1.154,-0.425 -1.154,-1.565 0,-0.859 0.248,-1.304 0.785,-1.304 0.62,0 0.991,0.723 0.991,1.508 z m 0.073,-3.682 c 0,0.231 0.02,0.527 0.057,0.776 H 0.11 c -0.239,-0.508 -0.749,-0.869 -1.451,-0.869 -1.121,0 -1.675,0.841 -1.675,2.156 0,1.553 0.907,2.626 2.434,2.626 0.192,0 0.378,-0.009 0.582,-0.037 v 1.202 c -0.222,0.036 -0.538,0.074 -0.806,0.095 v 0.739 c 0.584,0.073 1.305,0.101 1.98,0.083 V -2.766 C 1.397,-2.805 1.71,-2.841 1.979,-2.859 V -3.6 C 1.397,-3.672 0.683,-3.7 0.073,-3.682"
             style="fill:#1d1d1b;fill-opacity:1;fill-rule:nonzero;stroke:none"
             id="path164" />
        </g>
        <g
           id="g166"
           transform="translate(60.481,58.6639)">
          <path
             d="m 0,0 c -0.527,0 -1.045,-0.405 -1.045,-1.349 0,-0.946 0.344,-1.425 1.026,-1.425 0.583,0 1.029,0.472 1.029,1.406 C 1.01,-0.48 0.693,0 0,0 m -0.12,-3.783 c -1.303,0 -2.145,0.675 -2.145,2.314 0,1.432 0.952,2.469 2.349,2.469 1.304,0 2.145,-0.723 2.145,-2.305 0,-1.441 -0.97,-2.478 -2.349,-2.478"
             style="fill:#1d1d1b;fill-opacity:1;fill-rule:nonzero;stroke:none"
             id="path168" />
        </g>
        <g
           id="g170"
           transform="translate(66.9136,54.9747)">
          <path
             d="m 0,0 h -1.184 v 5.845 c -0.222,0.036 -0.535,0.073 -0.804,0.094 v 0.74 c 0.591,0.072 1.303,0.1 1.988,0.082 z"
             style="fill:#1d1d1b;fill-opacity:1;fill-rule:nonzero;stroke:none"
             id="path172" />
        </g>
        <g
           id="g174"
           transform="translate(70.5576,57.0091)">
          <path
             d="m 0,0 c -1.248,0 -1.524,-0.361 -1.524,-0.732 0,-0.295 0.202,-0.489 0.546,-0.489 0.582,0 0.978,0.555 0.978,1.109 z m 0.093,-2.044 c 0,0.268 0.01,0.545 0.047,0.787 l -0.01,0.009 c -0.223,-0.518 -0.786,-0.88 -1.47,-0.88 -0.833,0 -1.314,0.473 -1.314,1.211 0,1.103 1.093,1.685 2.654,1.685 v 0.249 c 0,0.481 -0.229,0.732 -0.896,0.732 -0.416,0 -0.971,-0.139 -1.36,-0.362 l -0.101,0.99 c 0.462,0.167 1.054,0.288 1.647,0.288 1.479,0 1.895,-0.592 1.895,-1.601 V -1.128 C 1.408,-1.167 1.72,-1.203 1.989,-1.221 V -1.962 C 1.408,-2.034 0.695,-2.062 0.093,-2.044"
             style="fill:#1d1d1b;fill-opacity:1;fill-rule:nonzero;stroke:none"
             id="path176" />
        </g>
        <g
           id="g178"
           transform="translate(77.0651,54.8902)">
          <path
             d="m 0,0 c -1.276,0 -2.072,0.666 -2.072,2.229 0,1.436 0.749,2.534 2.378,2.534 0.314,0 0.647,-0.046 0.942,-0.128 L 1.127,3.607 C 0.879,3.7 0.591,3.774 0.297,3.774 c -0.751,0 -1.131,-0.554 -1.131,-1.424 0,-0.788 0.306,-1.322 1.093,-1.322 0.316,0 0.655,0.064 0.906,0.194 L 1.258,0.214 C 0.943,0.093 0.49,0 0,0"
             style="fill:#1d1d1b;fill-opacity:1;fill-rule:nonzero;stroke:none"
             id="path180" />
        </g>
        <g
           id="g182"
           transform="translate(82.4866,54.9652)">
          <path
             d="m 0,0 c 0,0.213 0.008,0.563 0.054,0.823 l -0.018,0.01 c -0.269,-0.547 -0.805,-0.926 -1.555,-0.926 -1.044,0 -1.377,0.665 -1.377,1.471 v 2.321 c -0.222,0.037 -0.527,0.074 -0.795,0.094 v 0.739 c 0.61,0.075 1.341,0.1 1.978,0.084 V 1.665 c 0,-0.482 0.13,-0.769 0.566,-0.769 0.601,0 1.072,0.686 1.072,1.49 V 4.607 H 1.099 V 0.916 C 1.321,0.877 1.636,0.841 1.904,0.823 V 0.082 C 1.321,0.01 0.608,-0.019 0,0"
             style="fill:#1d1d1b;fill-opacity:1;fill-rule:nonzero;stroke:none"
             id="path184" />
        </g>
        <g
           id="g186"
           transform="translate(86.3553,54.9747)">
          <path
             d="m 0,0 h -1.184 v 5.845 c -0.222,0.036 -0.538,0.073 -0.805,0.094 v 0.74 c 0.591,0.072 1.304,0.1 1.989,0.082 z"
             style="fill:#1d1d1b;fill-opacity:1;fill-rule:nonzero;stroke:none"
             id="path188" />
        </g>
        <g
           id="g190"
           transform="translate(89.1781,54.8809)">
          <path
             d="m 0,0 c -1.017,0 -1.332,0.37 -1.332,1.444 v 2.33 h -0.796 v 0.917 h 0.786 V 6.106 L -0.159,6.42 V 4.691 h 1.12 V 3.774 h -1.12 V 1.759 C -0.159,1.166 -0.019,1 0.387,1 0.581,1 0.795,1.027 0.961,1.074 V 0.121 C 0.664,0.046 0.322,0 0,0"
             style="fill:#1d1d1b;fill-opacity:1;fill-rule:nonzero;stroke:none"
             id="path192" />
        </g>
        <g
           id="g194"
           transform="translate(94.2761,54.9652)">
          <path
             d="m 0,0 c 0,0.213 0.008,0.563 0.056,0.823 l -0.018,0.01 c -0.269,-0.547 -0.807,-0.926 -1.555,-0.926 -1.045,0 -1.38,0.665 -1.38,1.471 v 2.321 c -0.221,0.037 -0.524,0.074 -0.795,0.094 v 0.739 c 0.611,0.075 1.343,0.1 1.98,0.084 V 1.665 c 0,-0.482 0.129,-0.769 0.564,-0.769 0.602,0 1.073,0.686 1.073,1.49 V 4.607 H 1.1 V 0.916 C 1.322,0.877 1.637,0.841 1.905,0.823 V 0.082 C 1.322,0.01 0.61,-0.019 0,0"
             style="fill:#1d1d1b;fill-opacity:1;fill-rule:nonzero;stroke:none"
             id="path196" />
        </g>
        <g
           id="g198"
           transform="translate(98.2475,58.6471)">
          <path
             d="M 0,0 H 0.017 C 0.241,0.581 0.684,1.091 1.48,1.027 L 1.424,-0.14 C 0.573,0.036 0.148,-0.519 0.148,-1.796 v -1.876 h -1.177 v 3.689 c -0.22,0.037 -0.534,0.074 -0.803,0.094 V 0.85 c 0.583,0.075 1.294,0.1 1.917,0.084 C 0.085,0.693 0.054,0.324 0,0"
             style="fill:#1d1d1b;fill-opacity:1;fill-rule:nonzero;stroke:none"
             id="path200" />
        </g>
        <g
           id="g202"
           transform="translate(102.6952,57.0091)">
          <path
             d="m 0,0 c -1.246,0 -1.524,-0.361 -1.524,-0.732 0,-0.295 0.203,-0.489 0.546,-0.489 0.582,0 0.978,0.555 0.978,1.109 z m 0.094,-2.044 c 0,0.268 0.01,0.545 0.046,0.787 l -0.008,0.009 c -0.224,-0.518 -0.789,-0.88 -1.472,-0.88 -0.831,0 -1.313,0.473 -1.313,1.211 0,1.103 1.091,1.685 2.653,1.685 v 0.249 c 0,0.481 -0.23,0.732 -0.896,0.732 -0.415,0 -0.971,-0.139 -1.36,-0.362 l -0.102,0.99 c 0.463,0.167 1.056,0.288 1.646,0.288 1.481,0 1.897,-0.592 1.897,-1.601 V -1.128 C 1.408,-1.167 1.721,-1.203 1.991,-1.221 V -1.962 C 1.408,-2.034 0.696,-2.062 0.094,-2.044"
             style="fill:#1d1d1b;fill-opacity:1;fill-rule:nonzero;stroke:none"
             id="path204" />
        </g>
        <g
           id="g206"
           transform="translate(110.1561,58.6471)">
          <path
             d="m 0,0 c -0.213,0.045 -0.417,0.073 -0.62,0.073 -0.677,0 -1.156,-0.425 -1.156,-1.565 0,-0.859 0.25,-1.304 0.787,-1.304 0.619,0 0.989,0.723 0.989,1.508 z m 0.073,-3.682 c 0,0.231 0.02,0.527 0.058,0.776 H 0.112 c -0.241,-0.508 -0.75,-0.869 -1.453,-0.869 -1.12,0 -1.674,0.841 -1.674,2.156 0,1.553 0.904,2.626 2.433,2.626 0.193,0 0.378,-0.009 0.582,-0.037 v 1.202 c -0.223,0.036 -0.537,0.074 -0.805,0.095 v 0.739 c 0.582,0.073 1.303,0.101 1.98,0.083 V -2.766 C 1.396,-2.805 1.712,-2.841 1.979,-2.859 V -3.6 C 1.396,-3.672 0.684,-3.7 0.073,-3.682"
             style="fill:#1d1d1b;fill-opacity:1;fill-rule:nonzero;stroke:none"
             id="path208" />
        </g>
        <g
           id="g210"
           transform="translate(113.7663,60.1619)">
          <path
             d="m 0,0 c -0.396,0 -0.73,0.326 -0.73,0.723 0,0.389 0.334,0.713 0.73,0.713 0.407,0 0.741,-0.316 0.741,-0.713 C 0.741,0.326 0.407,0 0,0 m 0.592,-5.187 h -1.175 v 3.689 c -0.222,0.038 -0.538,0.074 -0.806,0.094 v 0.739 c 0.584,0.075 1.297,0.1 1.981,0.084 z"
             style="fill:#1d1d1b;fill-opacity:1;fill-rule:nonzero;stroke:none"
             id="path212" />
        </g>
        <g
           id="g214"
           transform="translate(118.3372,58.6471)">
          <path
             d="m 0,0 c -0.195,0.045 -0.389,0.064 -0.62,0.064 -0.676,0 -1.155,-0.416 -1.155,-1.556 0,-0.859 0.247,-1.294 0.785,-1.294 0.621,0 0.99,0.713 0.99,1.518 z m -1.36,-5.977 c -0.519,0 -1.007,0.074 -1.406,0.176 l 0.091,1.1 c 0.408,-0.157 0.936,-0.267 1.369,-0.267 0.869,0 1.322,0.305 1.322,1.148 v 0.239 c 0,0.223 0,0.426 0.047,0.666 H 0.046 c -0.241,-0.527 -0.749,-0.851 -1.358,-0.851 -1.104,0 -1.704,0.751 -1.704,2.147 0,1.553 0.888,2.626 2.505,2.626 0.649,0 1.186,-0.057 1.685,-0.14 V -3.82 c 0,-1.073 -0.499,-2.157 -2.534,-2.157"
             style="fill:#1d1d1b;fill-opacity:1;fill-rule:nonzero;stroke:none"
             id="path216" />
        </g>
        <g
           id="g218"
           transform="translate(121.6613,60.1619)">
          <path
             d="m 0,0 c -0.398,0 -0.732,0.326 -0.732,0.723 0,0.389 0.334,0.713 0.732,0.713 0.406,0 0.739,-0.316 0.739,-0.713 C 0.739,0.326 0.406,0 0,0 m 0.59,-5.187 h -1.174 v 3.689 c -0.222,0.038 -0.536,0.074 -0.803,0.094 v 0.739 c 0.581,0.075 1.294,0.1 1.977,0.084 z"
             style="fill:#1d1d1b;fill-opacity:1;fill-rule:nonzero;stroke:none"
             id="path220" />
        </g>
        <g
           id="g222"
           transform="translate(125.0751,54.8809)">
          <path
             d="m 0,0 c -1.019,0 -1.333,0.37 -1.333,1.444 v 2.33 h -0.795 v 0.917 h 0.786 V 6.106 L -0.158,6.42 V 4.691 H 0.961 V 3.774 H -0.158 V 1.759 C -0.158,1.166 -0.019,1 0.387,1 0.582,1 0.793,1.027 0.961,1.074 V 0.121 C 0.664,0.046 0.321,0 0,0"
             style="fill:#1d1d1b;fill-opacity:1;fill-rule:nonzero;stroke:none"
             id="path224" />
        </g>
        <g
           id="g226"
           transform="translate(129.3669,57.0091)">
          <path
             d="m 0,0 c -1.247,0 -1.524,-0.361 -1.524,-0.732 0,-0.295 0.202,-0.489 0.545,-0.489 0.583,0 0.979,0.555 0.979,1.109 z m 0.094,-2.044 c 0,0.268 0.009,0.545 0.046,0.787 l -0.009,0.009 c -0.222,-0.518 -0.787,-0.88 -1.469,-0.88 -0.835,0 -1.318,0.473 -1.318,1.211 0,1.103 1.094,1.685 2.656,1.685 v 0.249 c 0,0.481 -0.23,0.732 -0.896,0.732 -0.416,0 -0.971,-0.139 -1.36,-0.362 l -0.103,0.99 c 0.464,0.167 1.058,0.288 1.648,0.288 1.48,0 1.896,-0.592 1.896,-1.601 V -1.128 C 1.406,-1.167 1.723,-1.203 1.992,-1.221 V -1.962 C 1.406,-2.034 0.694,-2.062 0.094,-2.044"
             style="fill:#1d1d1b;fill-opacity:1;fill-rule:nonzero;stroke:none"
             id="path228" />
        </g>
        <g
           id="g230"
           transform="translate(133.3188,54.9747)">
          <path
             d="m 0,0 h -1.185 v 5.845 c -0.221,0.036 -0.536,0.073 -0.803,0.094 v 0.74 c 0.591,0.072 1.305,0.1 1.988,0.082 z"
             style="fill:#1d1d1b;fill-opacity:1;fill-rule:nonzero;stroke:none"
             id="path232" />
        </g>
        <g
           id="g234"
           transform="translate(65.2653,29.9855)">
          <path
             d="M 0,0 H 1.769 V -0.249 H 0 V -1.471 H -0.412 V 1.2 H 1.817 V 0.934 L 0,0.934 Z"
             style="fill:#878787;fill-opacity:1;fill-rule:nonzero;stroke:none"
             id="path236" />
        </g>
        <g
           id="g238"
           transform="translate(71.8801,31.1859)">
          <path
             d="m 0,0 v -1.923 c 0,-0.717 -0.582,-0.77 -1.44,-0.77 -0.795,0 -1.438,0.015 -1.438,0.77 V 0 h 0.411 v -1.923 c 0,-0.435 0.14,-0.503 1.027,-0.503 0.732,0 1.028,0.004 1.028,0.503 l 0,1.923 z"
             style="fill:#878787;fill-opacity:1;fill-rule:nonzero;stroke:none"
             id="path240" />
        </g>
        <g
           id="g242"
           transform="translate(77.1418,28.5145)">
          <path
             d="M 0,0 H -0.673 L -2.714,2.422 H -2.723 V 0 h -0.412 v 2.672 h 0.678 l 2.035,-2.441 h 0.01 V 2.672 H 0 Z"
             style="fill:#878787;fill-opacity:1;fill-rule:nonzero;stroke:none"
             id="path244" />
        </g>
        <g
           id="g246"
           transform="translate(81.0034,28.7816)">
          <path
             d="m 0,0 c 0.727,0 0.824,0.313 0.834,0.791 v 0.702 c 0,0.149 -0.073,0.644 -0.766,0.644 H -1.356 L -1.356,0 Z M -1.769,2.404 H 0 c 0.441,0 1.246,-0.042 1.246,-1.028 V 0.738 c 0,-0.264 -0.059,-1.005 -1.149,-1.005 h -1.866 z"
             style="fill:#878787;fill-opacity:1;fill-rule:nonzero;stroke:none"
             id="path248" />
        </g>
        <g
           id="g250"
           transform="translate(85.5879,30.9366)">
          <path
             d="M 0,0 -0.8,-1.606 H 0.809 Z M -0.912,-1.856 -1.193,-2.422 H -1.624 L -0.301,0.25 H 0.281 L 1.637,-2.422 H 1.211 l -0.286,0.566 z"
             style="fill:#878787;fill-opacity:1;fill-rule:nonzero;stroke:none"
             id="path252" />
        </g>
        <g
           id="g254"
           transform="translate(89.9818,28.493)">
          <path
             d="m 0,0 c -0.663,0 -1.056,0.306 -1.056,0.841 v 1.033 c 0,0.755 0.635,0.84 1.517,0.84 H 0.8 c 0.76,0 0.993,-0.242 0.993,-0.769 V 1.86 H 1.381 v 0.075 c 0,0.373 -0.105,0.513 -0.639,0.513 H 0.509 c -0.853,0 -1.153,-0.075 -1.153,-0.563 V 1.15 c 0,-0.608 0.034,-0.883 0.722,-0.883 h 0.49 c 0.658,0 0.862,0.068 0.862,0.449 V 0.929 H 1.842 V 0.68 C 1.842,0.068 1.309,0 0.582,0 Z"
             style="fill:#878787;fill-opacity:1;fill-rule:nonzero;stroke:none"
             id="path256" />
        </g>
        <path
           d="m 94.145,28.515 h -0.412 v 2.671 h 0.412 z"
           style="fill:#878787;fill-opacity:1;fill-rule:nonzero;stroke:none"
           id="path258" />
        <g
           id="g260"
           transform="translate(98.0258,31.7703)">
          <path
             d="m 0,0 -0.78,-0.356 -0.13,0.146 0.721,0.403 z m -0.702,-0.83 c -0.611,0 -0.771,-0.11 -0.771,-0.631 v -0.951 c 0,-0.53 0.237,-0.595 0.771,-0.598 h 0.488 c 0.534,0.003 0.771,0.068 0.771,0.598 v 0.951 c 0,0.521 -0.159,0.631 -0.771,0.631 z m 0.488,0.267 C 0.694,-0.57 0.97,-0.79 0.97,-1.461 v -0.951 c 0,-0.63 -0.311,-0.865 -1.184,-0.865 h -0.488 c -0.873,0 -1.182,0.235 -1.182,0.865 v 0.951 c 0,0.671 0.275,0.891 1.182,0.898 z"
             style="fill:#878787;fill-opacity:1;fill-rule:nonzero;stroke:none"
             id="path262" />
        </g>
        <g
           id="g264"
           transform="translate(104.1117,28.5145)">
          <path
             d="M 0,0 H -0.673 L -2.714,2.422 H -2.723 V 0 h -0.412 v 2.672 h 0.678 l 2.036,-2.441 h 0.009 V 2.672 H 0 Z"
             style="fill:#878787;fill-opacity:1;fill-rule:nonzero;stroke:none"
             id="path266" />
        </g>
        <g
           id="g268"
           transform="translate(96.9174,24.6701)">
          <path
             d="m 0,0 c -0.065,0.017 -0.089,0.035 -0.18,0.035 -0.494,-0.408 -0.923,-0.9 -1.381,-1.346 -0.129,-0.126 -0.407,-0.344 -0.234,-0.595 0.164,-0.238 0.421,0.007 0.539,0.123 0.309,0.301 0.614,0.637 0.879,0.979 0.118,0.152 0.347,0.278 0.413,0.472 C 0.102,-0.233 0.021,-0.074 0,0 m -16.493,-0.244 c 0.056,0.02 0.083,0.086 0.054,0.139 -0.039,0.116 -0.159,0.147 -0.322,0.14 -0.065,-0.043 -0.169,-0.026 -0.251,-0.053 -0.187,-0.058 -0.587,-0.181 -0.719,-0.297 h -0.036 c 0.013,0.088 0.036,0.199 -0.018,0.263 -0.025,0.034 -0.023,0.037 -0.072,0.052 -0.07,0.042 -0.28,0.023 -0.358,0 -0.202,-0.058 -0.841,-0.274 -0.915,-0.419 -0.015,-0.018 -0.007,-0.004 -0.018,-0.036 0.016,-0.016 0.024,-0.03 0.036,-0.052 0.109,-0.016 0.584,0.077 0.681,0.14 0.108,0 0.121,-0.017 0.18,-0.052 -0.004,-0.399 -0.508,-0.775 -0.736,-0.997 -0.128,-0.125 -0.265,-0.185 -0.269,-0.438 0.036,-0.04 0.071,-0.081 0.108,-0.122 0.408,-0.091 0.557,0.221 0.735,0.455 0.294,0.385 0.653,0.79 1.077,1.049 0.163,0.099 0.345,0.18 0.557,0.228 z m 6.748,0.331 C -9.821,0.035 -9.943,0.038 -10.031,0 c -0.237,-0.1 -0.497,-0.319 -0.629,-0.524 -0.211,-0.33 -0.21,-0.852 -0.503,-1.102 -0.292,0.021 -0.49,0.222 -0.646,0.385 -0.06,-0.004 -0.091,-0.008 -0.125,-0.036 -0.035,-0.024 -0.038,-0.022 -0.053,-0.07 -0.044,-0.057 -0.025,-0.095 -0.019,-0.174 0.145,-0.14 0.241,-0.303 0.431,-0.403 0.066,-0.035 0.16,-0.069 0.234,-0.087 0.145,-0.035 0.309,0.022 0.394,0.053 0.65,0.229 0.371,0.987 0.79,1.398 0.083,0.082 0.484,0.382 0.663,0.28 0.042,-0.013 0.041,-0.018 0.072,-0.035 -0.005,-0.116 -0.079,-0.228 -0.036,-0.297 v -0.035 c 0.072,-0.016 0.144,-0.025 0.198,0.018 0.147,0.047 0.248,0.332 0.144,0.507 C -9.222,0.054 -9.442,0.1 -9.745,0.087 M 6.927,-0.122 C 6.744,0.141 6.327,0.132 5.976,0.017 5.476,-0.146 5.01,-0.381 4.594,-0.629 4.37,-0.763 4.11,-0.854 3.93,-1.032 H 3.912 C 3.994,-0.713 4.231,-0.244 4.056,0.105 3.735,0.161 3.471,0.04 3.248,-0.052 2.771,-0.248 2.335,-0.436 1.92,-0.682 1.718,-0.801 1.462,-0.863 1.292,-1.014 H 1.239 c 0.1,0.186 0.288,0.309 0.412,0.472 C 1.73,-0.438 1.769,-0.32 1.849,-0.21 1.837,-0.125 1.807,-0.08 1.777,-0.018 1.456,0.065 1.291,-0.012 1.059,-0.158 1.065,-0.169 1.071,-0.18 1.076,-0.192 1.123,-0.211 1.153,-0.224 1.221,-0.227 V -0.28 C 0.89,-0.577 0.659,-0.983 0.34,-1.294 0.172,-1.459 -0.056,-1.558 -0.054,-1.889 -0.032,-1.909 -0.015,-1.933 0,-1.958 c 0.273,-0.101 0.725,0.108 0.933,0.209 0.844,0.431 1.687,0.863 2.531,1.294 H 3.535 C 3.387,-0.849 3.32,-1.346 3.051,-1.626 3.05,-1.733 3.057,-1.83 3.105,-1.889 c 0.024,-0.023 0.048,-0.046 0.072,-0.069 0.35,0.016 0.595,0.253 0.825,0.402 0.465,0.301 0.912,0.594 1.417,0.857 0.136,0.07 0.754,0.37 0.952,0.227 0.504,-0.096 0.105,-1.036 0.018,-1.277 -0.037,-0.101 -0.002,-0.161 0.035,-0.227 0.039,-0.009 0.066,-0.016 0.09,-0.035 0.674,-0.008 0.727,1.438 0.413,1.889 m -28.893,0.385 c -0.073,-0.047 -0.198,-0.024 -0.287,-0.052 -0.08,-0.027 -0.149,-0.085 -0.216,-0.124 -0.015,-0.058 -0.058,-0.133 -0.017,-0.192 0.029,-0.082 0.087,-0.089 0.143,-0.139 0.188,0.004 0.242,0.086 0.395,0.122 0.15,-0.007 0.299,-0.012 0.449,-0.017 0.368,-0.084 1.061,-0.181 1.166,-0.49 h 0.018 c -0.005,-0.018 -0.012,-0.035 -0.018,-0.053 -0.159,0.013 -0.287,0.066 -0.413,0.105 -0.234,0.073 -0.484,0.101 -0.717,0.158 -0.102,0.005 -0.204,0.011 -0.305,0.017 -0.703,0.151 -1.42,-0.155 -1.669,-0.525 -0.081,-0.119 -0.268,-0.455 -0.216,-0.682 0.059,-0.255 0.245,-0.342 0.503,-0.402 h 0.233 c 0.24,-0.048 0.649,0.021 0.879,0.07 0.102,0.006 0.204,0.012 0.305,0.017 0.362,0.08 0.768,0.109 1.113,0.192 0.269,0.066 0.587,-0.014 0.772,0.089 0.072,0.172 -0.027,0.253 -0.108,0.366 -0.272,0.06 -0.559,0.03 -0.826,-0.034 -0.208,-0.029 -0.418,-0.059 -0.628,-0.088 -0.479,-0.119 -1.192,-0.279 -1.704,-0.122 -0.19,0.935 1.544,0.761 2.171,0.577 0.141,-0.042 0.27,-0.071 0.395,-0.105 0.225,-0.062 0.628,-0.067 0.736,0.087 0.19,0.274 -0.065,0.537 -0.198,0.665 -0.421,0.405 -1.101,0.58 -1.956,0.56 m 9.206,-1.067 c -0.155,-0.344 -0.872,-0.76 -1.399,-0.752 -0.028,0.026 -0.074,0.051 -0.108,0.069 10e-4,0.26 0.205,0.36 0.359,0.473 0.222,0.162 0.449,0.358 0.718,0.472 0.141,0.06 0.33,0.072 0.448,0.157 h 0.036 c 0.004,-0.163 -0.002,-0.304 -0.054,-0.419 m 0.359,1.031 c -0.038,0.088 -0.113,0.167 -0.161,0.245 -0.142,0.002 -0.174,-0.021 -0.251,-0.07 -0.009,-0.115 -0.014,-0.276 0.053,-0.367 V 0.017 c -0.752,-0.026 -1.442,-0.565 -1.776,-1.014 -0.158,-0.211 -0.368,-0.561 -0.144,-0.857 0.211,-0.278 0.826,-0.124 1.095,-0.017 0.567,0.224 1.224,0.486 1.382,1.102 0.05,0.196 -0.041,0.372 -0.054,0.525 0.06,0.011 0.12,0.023 0.179,0.034 v 0.035 c -0.074,0.038 -0.166,0.088 -0.233,0.141 -0.054,0.066 -0.053,0.179 -0.09,0.261 M -0.126,0.735 C -0.056,0.662 -0.039,0.579 0.071,0.542 0.13,0.498 0.25,0.497 0.305,0.542 0.454,0.59 0.562,0.833 0.556,1.032 0.439,1.143 0.392,1.214 0.144,1.207 0.004,1.079 -0.131,1.009 -0.126,0.735 M -24.693,2.536 C -24.799,2.471 -25.028,2.53 -25.16,2.501 -25.537,2.418 -25.916,2.386 -26.272,2.274 -27.28,1.957 -28.268,1.652 -29.198,1.277 c -0.53,-0.214 -1.032,-0.393 -1.49,-0.665 -0.521,-0.309 -1.174,-0.601 -1.309,-1.276 -0.014,-0.069 0.021,-0.161 0.035,-0.211 0.144,-0.497 0.56,-0.635 1.024,-0.821 0.449,-0.181 0.957,-0.266 1.488,-0.385 0.231,-0.051 0.455,0.018 0.701,-0.035 0.292,-0.063 1.118,-0.04 1.399,0.018 h 0.323 c 0.297,0.062 0.659,0.026 0.951,0.087 h 0.216 c 0.232,0.049 0.528,0.049 0.771,0.07 0.162,-0.006 0.323,-0.012 0.485,-0.017 0.091,0.025 0.133,0.092 0.197,0.14 0.013,0.16 -0.017,0.207 -0.089,0.314 -0.349,0.086 -0.869,0.028 -1.238,-0.052 -0.264,-0.057 -0.543,-0.017 -0.79,-0.07 -0.287,-0.017 -0.574,-0.035 -0.862,-0.053 h -0.359 c -0.233,-0.05 -0.824,-0.049 -1.058,0 -0.256,0.054 -0.513,-0.004 -0.754,0.053 -0.658,0.155 -1.274,0.263 -1.741,0.594 -0.093,0.067 -0.135,0.182 -0.214,0.263 -0.006,0.547 0.626,0.783 0.986,0.996 0.472,0.281 1.017,0.446 1.561,0.665 0.767,0.309 1.586,0.567 2.387,0.857 0.399,0.144 0.828,0.209 1.256,0.314 0.104,0.026 0.386,0.071 0.467,0.018 0.067,-0.006 0.066,-0.013 0.107,-0.034 -0.003,-0.133 -0.059,-0.223 -0.125,-0.298 0.006,-0.017 0.012,-0.035 0.018,-0.052 0.403,-0.081 0.798,0.171 0.79,0.577 -0.188,0.194 -0.254,0.246 -0.628,0.262 M -1.059,0.437 c 0.06,0.052 0.12,0.105 0.18,0.158 0.211,0.273 0.47,0.497 0.682,0.769 0.054,0.047 0.107,0.093 0.161,0.14 C 0.145,1.738 0.357,1.935 0.538,2.169 0.628,2.284 0.79,2.37 0.843,2.518 0.893,2.582 0.877,2.706 0.826,2.764 0.8,2.798 0.802,2.8 0.753,2.816 0.729,2.833 0.695,2.834 0.646,2.833 0.348,2.598 0.07,2.327 -0.161,2.029 -0.245,1.953 -0.329,1.877 -0.413,1.802 -0.573,1.594 -0.773,1.431 -0.933,1.225 -1.113,1.05 -1.292,0.875 -1.472,0.7 -1.852,0.208 -2.364,-0.173 -2.746,-0.664 -2.998,-0.989 -3.756,-1.456 -3.697,-1.958 h 0.018 c 0.079,-0.06 0.298,-0.078 0.395,-0.018 0.104,0.065 0.194,0.218 0.269,0.315 0.153,0.196 0.365,0.378 0.538,0.56 0.297,0.311 0.615,0.621 0.88,0.962 0.158,0.204 0.377,0.367 0.538,0.576 M -13.927,1.05 c 0.097,0.093 0.193,0.186 0.288,0.28 0.261,0.336 0.604,0.61 0.862,0.944 0.105,0.137 0.191,0.285 0.304,0.419 0.001,0.051 0.001,0.095 -0.017,0.123 -0.028,0.083 -0.085,0.106 -0.18,0.122 -0.09,-0.062 -0.201,-0.078 -0.287,-0.14 -0.066,-0.047 -0.094,-0.127 -0.144,-0.192 -0.099,-0.129 -0.237,-0.234 -0.341,-0.367 -0.054,-0.047 -0.108,-0.094 -0.161,-0.14 -0.265,-0.342 -0.597,-0.621 -0.862,-0.962 -0.113,-0.111 -0.227,-0.222 -0.341,-0.333 -0.307,-0.397 -0.695,-0.721 -1.004,-1.119 -0.108,-0.104 -0.216,-0.209 -0.323,-0.314 -0.245,-0.316 -0.577,-0.57 -0.808,-0.892 -0.056,-0.078 -0.166,-0.278 -0.071,-0.385 0.034,-0.07 0.101,-0.062 0.161,-0.105 0.327,0.004 0.45,0.25 0.592,0.437 0.183,0.242 0.404,0.458 0.592,0.699 0.267,0.345 0.61,0.633 0.879,0.98 0.048,0.041 0.096,0.082 0.144,0.122 0.225,0.29 0.493,0.533 0.717,0.823 M -3.158,0.735 c 0.071,0.064 0.143,0.128 0.214,0.192 0.207,0.266 0.459,0.516 0.701,0.752 0.102,0.094 0.203,0.186 0.305,0.28 0.134,0.173 0.288,0.324 0.466,0.454 0.09,0.094 0.18,0.187 0.27,0.28 0.082,0.061 0.178,0.107 0.25,0.175 0.075,-0.006 0.068,0.005 0.091,-0.052 C -0.746,2.622 -1.234,2.428 -1.31,2.326 -1.315,2.32 -1.322,2.314 -1.328,2.308 c 0.016,-0.016 0.024,-0.03 0.036,-0.051 0.286,-0.058 0.474,0.247 0.574,0.436 0.042,0.08 0.119,0.233 0.036,0.333 -0.067,0.102 -0.18,0.145 -0.359,0.14 C -1.113,3.142 -1.185,3.119 -1.256,3.095 -1.427,3.014 -1.59,2.906 -1.741,2.798 -1.864,2.71 -1.961,2.572 -2.081,2.484 -2.399,2.25 -2.703,1.936 -2.944,1.627 -3.003,1.574 -3.062,1.522 -3.122,1.469 -3.363,1.159 -3.674,0.902 -3.912,0.595 c -0.279,-0.36 -0.602,-0.673 -0.88,-1.032 -0.113,-0.111 -0.227,-0.221 -0.341,-0.332 -0.129,-0.167 -0.389,-0.455 -0.556,-0.578 -0.26,-0.191 -0.513,-0.465 -0.86,-0.559 -0.339,-0.091 -0.534,0.201 -0.629,0.367 -0.035,0.059 -0.113,0.187 -0.072,0.262 0.062,0.149 0.33,0.082 0.449,0.176 h 0.017 v 0.035 c -0.483,0.122 -0.661,0.002 -0.915,-0.263 10e-4,-0.483 0.405,-0.772 0.772,-0.909 0.109,-0.041 0.3,-0.112 0.484,-0.07 0.309,0.07 0.55,0.241 0.773,0.402 0.077,0.075 0.155,0.152 0.232,0.227 0.294,0.216 0.568,0.502 0.79,0.787 0.053,0.047 0.107,0.093 0.161,0.14 0.258,0.332 0.568,0.613 0.826,0.945 0.149,0.191 0.351,0.346 0.503,0.542"
             style="fill:#1d1d1b;fill-opacity:1;fill-rule:evenodd;stroke:none"
             id="path270" />
        </g>
        <path
           d="m 60.266,17.118 h -0.254 v 20.204 h 0.254 z"
           style="fill:#b2b2b2;fill-opacity:1;fill-rule:nonzero;stroke:none"
           id="path272" />
        <g
           id="g274"
           transform="translate(56.0646,21.0726)">
          <path
             d="m 0,0 c 0,-1.687 -1.38,-3.068 -3.067,-3.068 h -12.296 c -1.687,0 -3.068,1.381 -3.068,3.068 v 12.295 c 0,1.687 1.381,3.068 3.068,3.068 H -3.067 C -1.38,15.363 0,13.982 0,12.295 Z"
             style="fill:#e00914;fill-opacity:1;fill-rule:nonzero;stroke:none"
             id="path276" />
        </g>
        <g
           id="g278">
          <g
             id="g280" />
          <g
             id="g292">
            <g
               clip-path="url(#clipPath284)"
               id="g290">
              <g
                 transform="translate(40.6247,36.2257)"
                 id="g288">
                <path
                   d="m 0,0 h 12.449 c 1.186,0 2.221,-0.667 2.745,-1.641 -0.471,1.097 -1.559,1.871 -2.821,1.871 H 0.076 c -1.26,0 -2.35,-0.774 -2.82,-1.871 C -2.221,-0.667 -1.185,0 0,0"
                   style="fill:#1f191a;fill-opacity:1;fill-rule:nonzero;stroke:none"
                   id="path286" />
              </g>
            </g>
          </g>
        </g>
        <g
           id="g294">
          <g
             id="g296" />
          <g
             id="g308">
            <g
               clip-path="url(#clipPath300)"
               id="g306">
              <g
                 transform="translate(55.9121,21.1672)"
                 id="g304">
                <path
                   d="m 0,0 c 0,-1.659 -1.357,-3.016 -3.017,-3.016 h -12.092 c -1.659,0 -3.016,1.357 -3.016,3.016 v 12.092 c 0,1.659 1.357,2.958 3.016,2.958 H -3.017 C -1.357,15.05 0,13.751 0,12.092 Z M -2.906,15.274 H -15.22 c -1.689,0 -3.072,-1.382 -3.072,-3.072 V -0.112 c 0,-1.689 1.383,-3.07 3.072,-3.07 h 12.314 c 1.689,0 3.072,1.381 3.072,3.07 v 12.314 c 0,1.69 -1.383,3.072 -3.072,3.072"
                   style="fill:#e00914;fill-opacity:1;fill-rule:nonzero;stroke:none"
                   id="path302" />
              </g>
            </g>
          </g>
        </g>
        <g
           id="g310"
           transform="translate(53.1793,22.8229)">
          <path
             d="m 0,0 h -0.118 c 0,-0.031 0.015,-0.05 0.045,-0.057 C -0.044,-0.065 -0.02,-0.046 0,0 m -0.147,-1.861 c 0.019,-0.031 0.017,-0.049 -0.007,-0.057 -0.025,-0.008 -0.047,-0.011 -0.067,-0.011 0.01,0 0.02,0.007 0.03,0.022 0.009,0 0.024,0.015 0.044,0.046 m 0.015,1.264 -0.148,-0.069 v 0.138 z M 0.309,-2.32 h -0.707 v 0.092 h 0.707 z m -1.03,3.468 H -0.809 V 1.056 h 0.088 z m -0.221,-3.399 -0.279,-0.046 v 0.069 l 0.279,0.045 z m -0.279,0.965 h -0.088 v 0.092 h 0.088 z m -0.074,-1.011 h -0.073 v 0.069 h 0.073 z m -0.176,0.39 -0.03,-0.046 -0.044,0.069 0.029,0.046 z m -0.235,0.782 h -0.059 v -0.184 h 0.059 z m 0.117,3.491 c -0.049,0.015 -0.091,0.023 -0.125,0.023 -0.035,0 -0.071,0.015 -0.11,0.046 0.019,0.03 0.031,0.057 0.036,0.08 C -1.783,2.539 -1.79,2.55 -1.81,2.55 -1.869,2.504 -1.923,2.442 -1.972,2.366 Z M -1.913,4.158 -2.03,4.089 v 0.092 l 0.103,0.046 z M -2.001,0.092 c -0.019,0 -0.044,0.007 -0.074,0.023 -0.029,0.015 -0.068,0.023 -0.117,0.023 L -2.119,0 Z m 0.029,4.181 c -0.117,0.199 -0.201,0.291 -0.249,0.276 0,-0.031 -0.01,-0.046 -0.03,-0.046 -0.01,-0.016 -0.02,-0.023 -0.03,-0.023 0.02,-0.046 0.047,-0.089 0.081,-0.126 0.035,-0.039 0.062,-0.089 0.081,-0.15 0.02,0.03 0.044,0.05 0.074,0.058 0.029,0.007 0.054,0.011 0.073,0.011 m -0.22,0.62 c 0.029,0.108 0.024,0.222 -0.015,0.345 L -2.281,4.847 c 0.03,0 0.05,0.008 0.06,0.023 0.009,0 0.019,0.008 0.029,0.023 M -2.369,4.664 -2.413,4.802 -2.457,4.779 -2.413,4.664 Z M -2.384,4.273 h -0.029 c -0.019,0 -0.039,0.015 -0.059,0.046 0,0.015 0.005,0.031 0.015,0.046 0.019,0.031 0.029,0.061 0.029,0.092 0.03,-0.046 0.044,-0.107 0.044,-0.184 m 0.03,0.988 -0.088,0.138 0.058,0.115 C -2.413,5.483 -2.438,5.448 -2.457,5.41 -2.477,5.372 -2.501,5.337 -2.531,5.307 -2.501,5.276 -2.47,5.261 -2.435,5.261 Z M -2.56,5.536 -2.589,5.606 -2.663,5.536 V 5.468 Z m -0.074,0.805 c -0.049,0 -0.088,0.022 -0.117,0.069 V 6.18 h 0.117 c 0,0.03 -0.005,0.057 -0.014,0.08 -0.01,0.023 -0.006,0.05 0.014,0.081 M -2.751,5.284 -2.84,5.215 v 0.069 l 0.074,0.069 z M -2.825,5.652 H -2.913 V 5.56 h 0.088 z m -0.147,0.85 -0.147,0.115 -0.015,-0.07 0.147,-0.114 z M -3.134,6.341 H -3.281 L -3.252,6.41 Z M -3.296,7.558 H -3.384 V 7.466 h 0.088 z M -3.517,7.306 H -3.591 V 7.214 h 0.074 z M -4.105,5.215 H -4.193 V 5.122 h 0.088 z M -4.458,5.881 H -4.531 V 5.813 h 0.073 z M -4.443,8.73 C -4.512,8.806 -4.569,8.894 -4.612,8.994 -4.657,9.093 -4.689,9.181 -4.708,9.258 -4.728,9.181 -4.745,9.097 -4.76,9.005 -4.774,8.914 -4.772,8.852 -4.752,8.822 c 0.029,0 0.061,-0.027 0.095,-0.081 0.035,-0.053 0.071,-0.08 0.11,-0.08 0.05,0 0.074,0.012 0.074,0.034 0,0.023 0.01,0.035 0.03,0.035 M -5.429,3.055 H -5.532 V 2.963 h 0.103 z M -5.724,7.03 -5.768,7.053 -5.812,6.915 -5.768,6.892 Z M -5.746,7.351 C -5.751,7.366 -5.753,7.382 -5.753,7.397 -5.762,7.413 -5.768,7.428 -5.768,7.444 -5.817,7.413 -5.863,7.371 -5.907,7.317 -5.952,7.263 -5.998,7.206 -6.047,7.145 h 0.103 c 0.01,0 0.027,0.019 0.051,0.057 0.025,0.038 0.076,0.073 0.155,0.104 0,0.015 -0.002,0.03 -0.008,0.045 m -0.389,2.964 h -0.088 v 0.068 h 0.088 z M -6.194,5.72 -6.209,5.789 -6.283,5.744 V 5.652 Z M -6.4,9.075 H -6.474 V 8.982 H -6.4 Z m 0.132,-3.516 -0.147,0.07 C -6.434,5.582 -6.447,5.533 -6.452,5.48 -6.457,5.425 -6.469,5.383 -6.489,5.353 c 0.02,-0.031 0.04,-0.046 0.059,-0.046 0.01,-0.016 0.02,-0.023 0.03,-0.023 0.019,0.046 0.041,0.092 0.066,0.138 0.025,0.046 0.046,0.092 0.066,0.137 M -6.459,5.238 c -0.02,0 -0.032,-0.016 -0.037,-0.046 C -6.501,5.161 -6.503,5.131 -6.503,5.1 c 0.029,0 0.049,0.023 0.059,0.069 0.01,0.046 0.004,0.069 -0.015,0.069 M -6.547,2.917 V 3.01 L -6.695,3.055 V 2.987 Z m -0.25,0.047 h -0.088 v 0.092 h 0.088 z M -6.768,9.281 -6.915,9.235 V 9.304 L -6.768,9.35 Z M -6.856,4.273 -6.974,4.319 V 4.25 l 0.103,-0.046 z m -0.28,-1.24 -0.015,-0.069 -0.088,0.069 0.015,0.069 z M -7.327,6.846 -7.342,6.915 -7.415,6.869 V 6.777 Z M -7.21,7.834 C -7.269,7.788 -7.337,7.765 -7.415,7.765 l 0.102,-0.092 c 0.02,0.031 0.042,0.057 0.067,0.081 0.024,0.022 0.036,0.049 0.036,0.08 m -0.117,-4.48 h -0.118 v 0.092 h 0.118 z M -7.401,7.351 H -7.474 V 7.282 h 0.073 z M -7.519,7.19 -7.607,7.122 V 7.19 l 0.074,0.07 z m 4.194,-4.088 c 0.019,0.138 -0.015,0.279 -0.103,0.425 -0.089,0.145 -0.177,0.317 -0.265,0.516 0.02,0.031 0.027,0.065 0.022,0.104 -0.005,0.037 -0.017,0.057 -0.037,0.057 -0.019,0 -0.036,-0.008 -0.051,-0.023 C -3.774,4.166 -3.806,4.158 -3.855,4.158 v 0.161 c 0.03,0.031 0.051,0.069 0.066,0.115 0.015,0.046 0.022,0.084 0.022,0.115 C -3.786,4.518 -3.808,4.487 -3.833,4.457 -3.857,4.426 -3.889,4.411 -3.928,4.411 c -0.04,0 -0.081,0.035 -0.125,0.103 -0.044,0.069 -0.072,0.119 -0.081,0.15 0.019,0.03 0.034,0.049 0.044,0.057 0.009,0.008 0.024,0.027 0.044,0.058 -0.049,0.03 -0.094,0.072 -0.133,0.126 -0.038,0.053 -0.098,0.141 -0.176,0.264 l 0.058,0.092 c -0.098,0.03 -0.144,0.072 -0.139,0.126 0.005,0.054 -0.017,0.111 -0.066,0.172 0.039,0.062 0.059,0.115 0.059,0.161 -0.079,0.031 -0.135,0.093 -0.169,0.185 -0.035,0.091 -0.043,0.16 -0.022,0.206 -0.069,0 -0.133,0.046 -0.192,0.138 0.039,0.061 0.059,0.114 0.059,0.161 -0.049,0 -0.088,0.023 -0.118,0.068 0.02,0.031 0.039,0.047 0.059,0.047 -0.029,0 -0.054,0.014 -0.074,0.046 -0.019,0.03 -0.024,0.06 -0.014,0.091 l 0.029,0.046 c -0.068,0.123 -0.108,0.23 -0.118,0.322 0.02,0.03 0.03,0.053 0.03,0.069 v 0.023 c -0.03,0.03 -0.062,0.049 -0.096,0.057 -0.034,0.008 -0.066,0.027 -0.095,0.058 0,0.092 0.004,0.156 0.014,0.195 0.01,0.038 0.015,0.072 0.015,0.103 -0.029,0.031 -0.066,0.054 -0.11,0.069 -0.044,0.015 -0.081,0.046 -0.111,0.092 0.03,0.031 0.047,0.069 0.052,0.115 0.005,0.046 0.008,0.083 0.008,0.115 -0.05,0.03 -0.106,0.034 -0.17,0.011 C -5.53,7.914 -5.586,7.887 -5.635,7.857 -5.557,7.796 -5.483,7.696 -5.414,7.558 -5.444,7.527 -5.48,7.524 -5.525,7.547 -5.569,7.57 -5.626,7.596 -5.694,7.627 -5.694,7.581 -5.679,7.547 -5.65,7.524 -5.62,7.501 -5.596,7.466 -5.576,7.421 -5.655,7.313 -5.731,7.217 -5.805,7.133 -5.878,7.049 -5.949,6.961 -6.017,6.869 c 0.097,0 0.161,-0.016 0.19,-0.046 0,-0.076 -0.034,-0.13 -0.102,-0.161 -0.02,0.031 -0.027,0.054 -0.023,0.069 0.005,0.016 -0.017,0.023 -0.065,0.023 -0.04,0 -0.094,-0.061 -0.163,-0.183 -0.068,-0.123 -0.127,-0.238 -0.176,-0.345 0.029,0 0.059,0.011 0.088,0.034 0.03,0.023 0.054,0.019 0.074,-0.011 L -6.283,6.111 c -0.029,0 -0.058,0.038 -0.088,0.115 L -6.444,6.088 c 0.029,-0.031 0.048,-0.065 0.059,-0.104 0.009,-0.038 0.038,-0.057 0.088,-0.057 0.049,0 0.081,0.027 0.096,0.081 0.014,0.053 0.036,0.08 0.066,0.08 0,-0.168 -0.006,-0.253 -0.015,-0.253 -0.049,0.031 -0.101,0.046 -0.155,0.046 h -0.139 c -0.05,0 -0.074,-0.034 -0.074,-0.103 0,-0.069 -0.01,-0.134 -0.029,-0.196 0.009,0 0.016,-0.003 0.022,-0.011 0.005,-0.008 0.012,-0.012 0.022,-0.012 h 0.014 C -6.567,5.483 -6.619,5.399 -6.643,5.307 -6.668,5.215 -6.714,5.1 -6.783,4.962 -6.802,4.947 -6.837,4.94 -6.886,4.94 -6.866,4.908 -6.851,4.89 -6.842,4.882 -6.832,4.874 -6.817,4.855 -6.797,4.825 -6.827,4.793 -6.854,4.767 -6.878,4.744 -6.903,4.721 -6.925,4.71 -6.944,4.71 -6.886,4.679 -6.856,4.625 -6.856,4.549 -6.876,4.518 -6.9,4.503 -6.93,4.503 -6.969,4.564 -7.009,4.595 -7.047,4.595 l 0.103,-0.161 c -0.118,-0.107 -0.192,-0.23 -0.221,-0.368 0.009,0 0.017,-0.003 0.022,-0.011 0.005,-0.008 0.012,-0.012 0.022,-0.012 h 0.014 C -7.136,3.982 -7.17,3.936 -7.21,3.906 -7.249,3.875 -7.278,3.837 -7.298,3.791 c 0.02,0 0.027,0.003 0.022,0.011 -0.004,0.007 0.012,0.012 0.052,0.012 0.049,0 0.076,-0.012 0.081,-0.035 C -7.138,3.756 -7.136,3.714 -7.136,3.653 -7.156,3.622 -7.185,3.607 -7.224,3.607 H -7.327 C -7.308,3.576 -7.293,3.557 -7.283,3.55 -7.273,3.542 -7.258,3.522 -7.239,3.492 -7.269,3.354 -7.327,3.266 -7.415,3.228 -7.504,3.19 -7.558,3.109 -7.577,2.987 l 0.073,0.091 0.015,-0.045 V 3.01 C -7.528,2.964 -7.568,2.914 -7.607,2.86 -7.646,2.806 -7.69,2.757 -7.739,2.711 c 0.127,0 0.255,0.015 0.383,0.046 0.127,0.031 0.23,0.031 0.309,0 0.019,0.031 0.026,0.054 0.022,0.069 -0.006,0.015 0.012,0.023 0.051,0.023 0.049,0 0.086,-0.028 0.11,-0.081 0.025,-0.054 0.052,-0.08 0.081,-0.08 0.049,0 0.066,0.019 0.051,0.058 -0.014,0.037 0.003,0.057 0.052,0.057 0.039,0 0.054,-0.02 0.044,-0.057 -0.01,-0.039 0.006,-0.058 0.045,-0.058 0.039,0 0.066,0.019 0.08,0.058 0.015,0.037 0.032,0.057 0.052,0.057 0.274,-0.092 0.535,-0.1 0.78,-0.024 0.245,0.077 0.51,0.123 0.794,0.138 -0.02,0.031 -0.042,0.047 -0.066,0.047 -0.025,0 -0.046,0.015 -0.066,0.046 0.117,0.045 0.188,0.037 0.213,-0.023 0.025,-0.062 0.061,-0.092 0.111,-0.092 0.038,0 0.053,0.015 0.044,0.046 -0.01,0.03 0.005,0.046 0.044,0.046 0.039,0 0.088,-0.012 0.147,-0.035 0.059,-0.023 0.113,-0.035 0.161,-0.035 h -0.117 c 0.019,0.077 0.032,0.116 0.037,0.116 h 0.066 c 0.049,0 0.078,-0.016 0.088,-0.046 0.01,-0.031 0.034,-0.046 0.074,-0.046 0.039,0 0.066,0.015 0.081,0.046 0.015,0.03 0.032,0.06 0.051,0.091 0.108,-0.031 0.223,-0.034 0.346,-0.011 0.122,0.023 0.237,0.035 0.346,0.035 M -7.621,2.228 H -7.798 V 2.136 h 0.177 z m -0.044,3.883 c 0.019,0 0.027,-0.023 0.022,-0.069 C -7.649,5.996 -7.661,5.958 -7.68,5.927 h -0.147 c 0.019,0.031 0.044,0.061 0.073,0.092 0.03,0.03 0.059,0.061 0.089,0.092 M -7.901,5.652 H -8.048 V 5.56 h 0.147 z M -7.857,6.41 C -7.936,6.378 -7.992,6.344 -8.026,6.306 -8.06,6.268 -8.102,6.21 -8.151,6.134 c 0.049,0.03 0.103,0.065 0.162,0.103 0.059,0.038 0.103,0.096 0.132,0.173 M -8.269,6.134 H -8.357 V 6.042 h 0.088 z m 0.132,-0.62 C -8.176,5.483 -8.215,5.475 -8.254,5.49 c -0.039,0.016 -0.083,0.039 -0.132,0.069 0.078,0 0.146,0.023 0.205,0.07 0,-0.032 0.005,-0.054 0.015,-0.07 0,-0.03 0.01,-0.045 0.029,-0.045 M -8.24,5.1 c 0,0.031 -0.004,0.061 -0.014,0.092 -0.01,0.03 -0.015,0.061 -0.015,0.092 h -0.117 c -0.02,-0.062 -0.01,-0.123 0.029,-0.184 0,-0.031 0.014,-0.038 0.044,-0.023 0.03,0.015 0.054,0.023 0.073,0.023 M -8.548,5.054 -8.666,5.1 V 5.031 L -8.563,4.985 Z M -8.696,4.089 -8.74,4.113 -8.784,3.998 -8.74,3.951 Z m -0.132,0.23 H -8.945 V 4.25 h 0.117 z M -9.416,3.515 -9.52,3.469 v 0.069 l 0.074,0.045 z m -0.53,-4.342 c -0.02,-0.031 -0.035,-0.046 -0.044,-0.046 -0.01,-0.015 -0.02,-0.023 -0.03,-0.023 0.02,-0.031 0.042,-0.034 0.067,-0.011 0.024,0.022 0.026,0.049 0.007,0.08 m 0.177,0.276 c -0.099,-0.031 -0.182,-0.046 -0.251,-0.046 l 0.089,-0.069 c 0.019,0.014 0.037,0.026 0.051,0.035 0.015,0.007 0.032,0.018 0.052,0.034 z m -0.28,-0.644 h -0.118 v -0.092 h 0.118 z m 0.059,3.194 -0.015,0.068 -0.177,-0.137 0.015,-0.092 z m -0.118,-3.446 -0.015,-0.069 -0.117,0.046 v 0.069 z m -0.132,0.161 h -0.118 v 0.092 h 0.118 z M 0.221,-1.655 c 0,-0.06 -0.017,-0.122 -0.052,-0.183 C 0.135,-1.899 0.108,-1.953 0.088,-1.998 H -0.03 c 0.01,0.06 -0.019,0.145 -0.088,0.252 -0.049,-0.031 -0.095,-0.08 -0.139,-0.15 -0.045,-0.068 -0.091,-0.102 -0.14,-0.102 -0.039,0 -0.049,0.007 -0.029,0.023 0.019,0.014 0.009,0.022 -0.03,0.022 -0.069,0 -0.147,-0.061 -0.235,-0.184 0.029,-0.03 0.061,-0.052 0.095,-0.068 0.034,-0.015 0.066,-0.038 0.096,-0.069 h -0.199 c -0.064,0 -0.11,0.015 -0.139,0.046 -0.05,0.031 -0.087,0.088 -0.111,0.172 -0.025,0.084 -0.052,0.149 -0.081,0.195 h 0.059 c 0.019,0 0.039,0.015 0.059,0.047 0,0.015 -0.04,0.053 -0.118,0.114 0,0.061 0.029,0.115 0.088,0.161 l -0.088,0.138 h -0.015 c -0.01,0 -0.014,-0.005 -0.014,-0.012 0,-0.007 -0.006,-0.011 -0.015,-0.011 -0.02,-0.016 -0.025,-0.035 -0.015,-0.057 0.01,-0.024 0.015,-0.05 0.015,-0.081 -0.069,0.031 -0.135,0.088 -0.199,0.172 -0.064,0.084 -0.13,0.111 -0.198,0.081 0,0.045 0.039,0.099 0.117,0.161 -0.059,0.046 -0.117,0.038 -0.176,-0.023 v 0.298 c 0.049,0 0.089,0.023 0.117,0.069 -0.058,0.061 -0.122,0.107 -0.191,0.138 -0.02,-0.031 -0.01,-0.077 0.03,-0.138 -0.059,0.046 -0.128,0.069 -0.206,0.069 -0.05,0 -0.076,-0.016 -0.081,-0.046 -0.005,-0.031 -0.018,-0.046 -0.037,-0.046 -0.02,0.031 -0.047,0.108 -0.081,0.23 -0.034,0.122 -0.032,0.199 0.007,0.229 -0.029,0.03 -0.068,0.046 -0.117,0.046 -0.049,0 -0.084,0.016 -0.103,0.046 0,0.031 0.009,0.069 0.029,0.115 0.02,0.046 0.03,0.092 0.03,0.138 -0.05,0.061 -0.098,0.141 -0.148,0.242 -0.049,0.099 -0.098,0.209 -0.147,0.332 -0.02,0.062 -0.044,0.142 -0.073,0.242 -0.03,0.099 -0.055,0.187 -0.074,0.264 -0.029,0.061 -0.064,0.138 -0.102,0.23 -0.04,0.091 -0.084,0.137 -0.134,0.137 L -5.429,1.378 C -5.449,1.378 -5.52,1.374 -5.643,1.367 -5.765,1.359 -5.898,1.355 -6.039,1.355 -6.182,1.355 -6.315,1.352 -6.437,1.344 -6.56,1.336 -6.63,1.333 -6.651,1.333 -6.699,1.333 -6.719,1.317 -6.71,1.287 -6.699,1.255 -6.719,1.241 -6.768,1.241 c -0.029,0 -0.054,0.022 -0.074,0.068 -0.019,0.046 -0.049,0.069 -0.088,0.069 -0.049,0 -0.116,-0.023 -0.199,-0.069 -0.083,-0.046 -0.144,-0.068 -0.184,-0.068 -0.039,0 -0.056,0.007 -0.051,0.022 0.005,0.016 -0.012,0.024 -0.051,0.024 -0.05,0 -0.067,-0.02 -0.052,-0.057 0.015,-0.039 -0.002,-0.058 -0.052,-0.058 -0.039,0 -0.085,0.03 -0.139,0.091 C -7.712,1.325 -7.764,1.378 -7.813,1.424 -7.823,1.409 -7.808,1.37 -7.769,1.309 -7.788,1.279 -7.805,1.248 -7.82,1.218 -7.835,1.187 -7.862,1.172 -7.901,1.172 c -0.039,0 -0.091,0.015 -0.155,0.046 -0.063,0.03 -0.12,0.069 -0.169,0.115 C -8.264,1.271 -8.274,1.233 -8.254,1.218 -8.274,1.202 -8.308,1.187 -8.357,1.172 -8.406,1.156 -8.441,1.103 -8.46,1.011 -8.499,0.873 -8.551,0.731 -8.615,0.586 -8.679,0.44 -8.735,0.306 -8.784,0.184 c 0.01,-0.016 0.015,-0.031 0.015,-0.046 0,-0.031 0.005,-0.054 0.015,-0.069 -0.039,-0.061 -0.054,-0.146 -0.044,-0.253 h -0.067 c -0.024,0 -0.046,-0.015 -0.066,-0.045 0,-0.047 0.012,-0.074 0.037,-0.081 0.024,-0.008 0.047,-0.028 0.066,-0.058 -0.019,-0.03 -0.035,-0.057 -0.044,-0.08 -0.01,-0.023 -0.039,-0.034 -0.089,-0.034 -0.038,0 -0.053,0.015 -0.043,0.045 0.009,0.031 -0.006,0.046 -0.045,0.046 -0.059,0 -0.12,-0.064 -0.184,-0.195 -0.064,-0.13 -0.115,-0.218 -0.154,-0.264 -0.02,-0.016 -0.047,-0.023 -0.081,-0.023 -0.035,0 -0.061,-0.023 -0.081,-0.069 0.02,-0.031 0.049,-0.046 0.088,-0.046 -0.029,-0.046 -0.068,-0.114 -0.118,-0.207 -0.048,-0.091 -0.092,-0.145 -0.132,-0.161 0,-0.03 0.005,-0.053 0.015,-0.068 0.01,-0.016 0.014,-0.039 0.014,-0.069 -0.029,-0.031 -0.061,-0.065 -0.095,-0.103 -0.034,-0.039 -0.066,-0.059 -0.095,-0.059 -0.05,0 -0.079,0.02 -0.089,0.059 -0.01,0.038 -0.039,0.041 -0.088,0.011 0,-0.031 0.009,-0.054 0.029,-0.07 0.02,-0.015 0.039,-0.022 0.059,-0.022 -0.029,-0.031 -0.064,-0.057 -0.103,-0.081 -0.039,-0.022 -0.079,-0.034 -0.118,-0.034 -0.039,0 -0.051,0.008 -0.036,0.023 0.014,0.015 0.012,0.03 -0.008,0.046 -0.069,0.015 -0.14,0.03 -0.213,0.046 -0.074,0.015 -0.125,0.022 -0.155,0.022 -0.049,0 -0.066,-0.015 -0.051,-0.045 0.015,-0.031 -0.003,-0.046 -0.051,-0.046 -0.04,0 -0.059,0.015 -0.059,0.046 0,0.03 -0.01,0.053 -0.03,0.069 -0.078,0.015 -0.169,0.042 -0.272,0.081 -0.103,0.037 -0.204,0.072 -0.302,0.103 0,0.031 0.01,0.057 0.03,0.08 0.019,0.023 0.039,0.05 0.059,0.081 -0.03,0.03 -0.066,0.053 -0.111,0.068 -0.044,0.015 -0.09,0.038 -0.139,0.07 v 0.16 c 0.049,0.031 0.112,0.072 0.191,0.127 0.078,0.053 0.098,0.142 0.059,0.264 h 0.058 c 0.02,0 0.039,0.015 0.059,0.046 -0.02,0.03 -0.049,0.046 -0.088,0.046 0.029,0.03 0.059,0.068 0.088,0.114 0.03,0.046 0.059,0.1 0.088,0.162 0,-0.077 -0.014,-0.139 -0.044,-0.184 l 0.074,-0.115 c 0.069,0.168 0.125,0.344 0.169,0.528 0.045,0.184 0.091,0.36 0.14,0.528 l -0.029,0.092 c 0.009,0.031 0.029,0.065 0.059,0.104 0.029,0.038 0.053,0.072 0.073,0.103 0.01,0.046 -0.01,0.069 -0.059,0.069 0.059,0.076 0.101,0.187 0.125,0.334 0.025,0.144 0.081,0.232 0.169,0.264 0.03,0.03 0.059,0.034 0.089,0.01 0.029,-0.022 0.073,-0.019 0.132,0.012 v 0.207 c -0.039,0.015 -0.079,-0.031 -0.117,-0.138 -0.049,0 -0.088,0.024 -0.118,0.069 0.069,0.138 0.144,0.314 0.228,0.529 0.083,0.214 0.169,0.413 0.258,0.596 0.009,0 0.029,-0.007 0.058,-0.022 0.03,-0.016 0.059,-0.008 0.089,0.022 0,0.032 -0.011,0.058 -0.03,0.081 -0.02,0.023 -0.029,0.05 -0.029,0.081 0.019,0 0.036,-0.008 0.051,-0.024 0.015,-0.015 0.041,-0.022 0.081,-0.022 0.049,0 0.096,0.026 0.139,0.08 0.045,0.053 0.101,0.118 0.17,0.195 v 0.024 c 0,0.014 -0.005,0.03 -0.015,0.046 -0.029,-0.046 -0.088,-0.032 -0.177,0.046 0.059,0 0.104,0.022 0.133,0.068 0.03,0.046 0.078,0.115 0.147,0.207 -0.029,0.046 -0.069,0.069 -0.117,0.069 0.009,0.06 0.024,0.107 0.044,0.138 0.019,0.03 0.038,0.061 0.059,0.091 0.029,0.061 0.048,0.142 0.058,0.242 0.01,0.099 0.03,0.18 0.059,0.241 0.03,0.077 0.069,0.142 0.118,0.195 0.049,0.054 0.098,0.119 0.147,0.196 -0.03,0.168 0.007,0.306 0.11,0.413 0.103,0.107 0.199,0.153 0.288,0.138 0.009,0 0.014,0.007 0.014,0.023 0,0.015 0.005,0.03 0.015,0.046 -0.029,0.092 -0.035,0.164 -0.015,0.218 0.02,0.053 0.03,0.111 0.03,0.173 0,0.076 0.016,0.099 0.051,0.069 0.034,-0.032 0.061,-0.032 0.081,0 -0.02,0.03 -0.037,0.042 -0.052,0.034 -0.014,-0.008 -0.032,-0.012 -0.051,-0.012 0.03,0.031 0.068,0.046 0.117,0.046 0.04,0 0.06,0.015 0.06,0.046 v 0.092 c 0.019,-0.077 0.097,-0.077 0.235,0 C -8.068,5.988 -8.083,5.97 -8.093,5.962 -8.102,5.954 -8.117,5.935 -8.137,5.905 V 5.881 c 0,-0.015 0.006,-0.031 0.015,-0.046 0.02,0.031 0.037,0.046 0.052,0.046 0.014,0 0.032,0.015 0.051,0.046 0,-0.031 -0.01,-0.05 -0.029,-0.057 -0.02,-0.008 -0.04,-0.027 -0.059,-0.057 l 0.191,-0.047 c 0.039,0.092 0.024,0.139 -0.044,0.139 0.039,0.015 0.086,0.079 0.14,0.194 0.054,0.115 0.081,0.211 0.081,0.287 0,0.077 -0.04,0.146 -0.118,0.207 0.02,0 0.044,-0.008 0.074,-0.022 0.029,-0.016 0.063,-0.024 0.103,-0.024 0.039,0 0.064,0.024 0.073,0.07 0.01,0.045 0.03,0.083 0.06,0.114 v 0.23 C -7.577,6.991 -7.612,6.988 -7.651,6.949 -7.69,6.911 -7.724,6.892 -7.754,6.892 c -0.02,0.046 0.03,0.122 0.147,0.23 -0.019,0.03 -0.027,0.042 -0.022,0.034 C -7.624,7.148 -7.641,7.145 -7.68,7.145 -7.739,7.145 -7.783,7.118 -7.813,7.064 -7.842,7.01 -7.864,6.949 -7.879,6.881 -7.894,6.812 -7.906,6.739 -7.916,6.662 c -0.01,-0.077 -0.029,-0.13 -0.059,-0.16 -0.02,0.03 -0.024,0.057 -0.014,0.08 0.009,0.023 0.005,0.049 -0.015,0.08 -0.029,0 -0.052,-0.015 -0.066,-0.045 -0.015,-0.032 -0.037,-0.062 -0.067,-0.092 0,-0.016 0.006,-0.023 0.015,-0.023 h 0.044 C -8.098,6.456 -8.129,6.406 -8.173,6.352 -8.217,6.298 -8.259,6.257 -8.298,6.226 c 0.058,0.168 0.137,0.359 0.235,0.574 0.098,0.214 0.201,0.422 0.309,0.621 v 0.114 c 0.02,0 0.032,-0.015 0.037,-0.046 0.005,-0.031 0.017,-0.061 0.037,-0.092 0.039,0.031 0.09,0.05 0.154,0.058 0.064,0.008 0.13,0.026 0.199,0.057 -0.049,0.046 -0.101,0.069 -0.155,0.069 -0.053,0 -0.115,0.023 -0.183,0.069 0.029,0.03 0.053,0.073 0.073,0.126 0.02,0.054 0.039,0.103 0.059,0.15 0.049,-0.032 0.1,-0.039 0.154,-0.023 0.054,0.015 0.106,0.023 0.155,0.023 0.029,0.046 0.019,0.068 -0.03,0.068 0.03,0 0.059,0.024 0.089,0.069 -0.01,0.031 -0.035,0.07 -0.074,0.115 -0.039,0.046 -0.069,0.07 -0.088,0.07 0.029,0 0.069,0.003 0.117,0.011 0.05,0.007 0.098,-0.004 0.148,-0.035 0.019,0.031 0.029,0.062 0.029,0.092 0,0.031 0.015,0.069 0.044,0.115 -0.029,0.031 -0.057,0.05 -0.081,0.058 -0.024,0.007 -0.046,0.026 -0.066,0.057 0.098,-0.031 0.152,-0.008 0.162,0.069 0.009,0.077 0.009,0.153 0,0.23 0.03,0.03 0.063,0.061 0.103,0.092 0.039,0.03 0.074,0.06 0.103,0.091 -0.02,0.031 -0.039,0.05 -0.059,0.058 -0.02,0.007 -0.039,0.027 -0.059,0.057 0.079,0 0.144,0.038 0.198,0.115 0.055,0.077 0.104,0.164 0.148,0.264 0.044,0.1 0.081,0.207 0.11,0.322 0.03,0.115 0.064,0.203 0.103,0.264 0.049,-0.031 0.103,-0.027 0.162,0.011 0.059,0.039 0.108,0.058 0.148,0.058 0.038,0 0.061,-0.023 0.065,-0.069 0.005,-0.046 0.028,-0.068 0.067,-0.068 0.039,0 0.054,-0.005 0.044,-0.012 -0.01,-0.008 -0.005,0.003 0.014,0.034 -0.009,0.046 -0.026,0.073 -0.051,0.081 -0.025,0.007 -0.046,0.026 -0.066,0.057 0.049,0.031 0.095,0.061 0.139,0.092 0.045,0.031 0.086,0.069 0.126,0.115 0.049,0.015 0.093,0.023 0.132,0.023 h 0.133 c 0.039,0 0.049,-0.02 0.029,-0.057 -0.02,-0.039 -0.01,-0.058 0.029,-0.058 0.04,0 0.057,0.019 0.052,0.058 -0.005,0.037 0.017,0.057 0.066,0.057 0.039,0 0.14,-0.038 0.302,-0.115 0.162,-0.077 0.292,-0.131 0.389,-0.161 -0.009,0 -0.014,-0.008 -0.014,-0.023 -0.01,-0.016 -0.015,-0.038 -0.015,-0.069 0.098,-0.031 0.206,-0.069 0.324,-0.115 0.118,-0.046 0.201,-0.068 0.25,-0.068 0.039,0 0.054,0.007 0.044,0.022 -0.01,0.016 0.005,0.024 0.044,0.024 0.03,0 0.084,-0.058 0.162,-0.173 0.079,-0.115 0.157,-0.211 0.235,-0.287 0,-0.015 -0.002,-0.046 -0.007,-0.092 -0.005,-0.046 0.007,-0.092 0.037,-0.138 0.02,0 0.034,0.019 0.044,0.058 0.009,0.038 0.034,0.057 0.074,0.057 0.039,0 0.081,-0.019 0.124,-0.057 C -3.2,9.254 -3.163,9.22 -3.134,9.189 V 9.075 c 0,-0.047 0.01,-0.085 0.03,-0.115 -0.02,0 -0.04,0.003 -0.059,0.011 C -3.183,8.979 -3.203,8.967 -3.222,8.937 -3.173,8.891 -3.129,8.822 -3.09,8.73 -3.051,8.638 -2.992,8.538 -2.913,8.431 -2.923,8.416 -2.943,8.404 -2.972,8.397 -3.001,8.389 -3.036,8.369 -3.075,8.339 c 0.019,-0.076 0.044,-0.103 0.074,-0.08 0.029,0.023 0.078,0.042 0.146,0.057 0.01,0 0.015,-0.007 0.015,-0.023 0,-0.03 -0.005,-0.053 -0.015,-0.069 0,-0.046 -0.002,-0.072 -0.007,-0.08 -0.005,-0.008 0.012,-0.011 0.051,-0.011 0.05,0 0.081,0.003 0.096,0.011 0.015,0.008 0.032,0.011 0.052,0.011 -0.02,-0.03 -0.035,-0.057 -0.044,-0.08 -0.01,-0.023 -0.005,-0.05 0.014,-0.081 -0.019,0 -0.044,0.009 -0.073,0.024 -0.03,0.014 -0.059,0.007 -0.089,-0.024 0.021,-0.045 0.042,-0.08 0.067,-0.103 0.024,-0.022 0.046,-0.057 0.066,-0.103 h -0.235 c -0.02,-0.046 -0.025,-0.1 -0.015,-0.161 0.01,-0.061 0.004,-0.115 -0.015,-0.161 0.01,-0.03 0.025,-0.057 0.044,-0.08 0.02,-0.023 0.025,-0.05 0.015,-0.08 V 7.26 c 0,-0.016 -0.015,-0.023 -0.044,-0.023 -0.029,0 -0.051,0.007 -0.066,0.023 -0.015,0.015 -0.027,0.03 -0.037,0.046 -0.01,0.015 -0.027,0.03 -0.051,0.045 -0.025,0.015 -0.062,0.015 -0.111,0 V 7.145 c 0.01,0 0.02,0.007 0.03,0.023 0.009,0 0.022,0.003 0.036,0.011 0.015,0.008 0.032,0.011 0.052,0.011 0.039,0 0.054,-0.022 0.044,-0.068 -0.01,-0.046 0.015,-0.069 0.074,-0.069 0.039,0 0.066,0.015 0.08,0.046 0.015,0.031 0.022,0.061 0.022,0.091 0.079,-0.076 0.145,-0.183 0.199,-0.321 0.054,-0.138 0.076,-0.245 0.066,-0.322 0.02,-0.03 0.047,-0.045 0.081,-0.045 h 0.081 c 0,-0.016 -0.02,-0.054 -0.059,-0.116 C -2.521,6.31 -2.506,6.26 -2.487,6.237 -2.467,6.214 -2.445,6.199 -2.421,6.192 -2.396,6.184 -2.369,6.176 -2.339,6.169 -2.31,6.16 -2.281,6.126 -2.251,6.065 -2.251,6.034 -2.264,6.004 -2.288,5.973 -2.312,5.942 -2.334,5.912 -2.354,5.881 -2.344,5.804 -2.312,5.747 -2.258,5.709 -2.205,5.67 -2.143,5.606 -2.075,5.514 L -2.104,5.468 C -2.114,5.452 -2.124,5.441 -2.133,5.433 -2.143,5.425 -2.153,5.414 -2.163,5.399 V 5.261 c 0.049,-0.031 0.084,-0.081 0.103,-0.15 0.02,-0.068 0.059,-0.088 0.118,-0.057 -0.02,0 -0.03,-0.038 -0.03,-0.114 l 0.045,-0.093 c 0.019,0.031 0.034,0.043 0.044,0.035 0.009,-0.008 0.024,-0.012 0.044,-0.012 -0.03,0 -0.054,-0.015 -0.074,-0.045 0.03,-0.032 0.066,-0.054 0.111,-0.07 0.044,-0.015 0.081,-0.038 0.11,-0.069 0,-0.03 -0.01,-0.057 -0.029,-0.08 -0.02,-0.023 -0.04,-0.05 -0.059,-0.08 0.029,-0.031 0.061,-0.058 0.096,-0.08 0.034,-0.024 0.06,-0.05 0.08,-0.081 -0.02,-0.031 -0.039,-0.046 -0.058,-0.046 -0.02,0 -0.04,-0.015 -0.059,-0.046 v -0.16 c 0.049,-0.032 0.1,-0.07 0.154,-0.115 0.054,-0.047 0.105,-0.1 0.154,-0.161 C -1.432,3.806 -1.452,3.783 -1.471,3.768 -1.491,3.752 -1.51,3.729 -1.53,3.699 l 0.073,-0.116 c 0.02,0.032 0.047,0.047 0.081,0.047 0.035,0 0.062,0.015 0.081,0.046 C -1.314,3.615 -1.332,3.55 -1.346,3.481 -1.361,3.412 -1.383,3.354 -1.413,3.308 c 0.03,-0.107 0.089,-0.161 0.177,-0.161 0.039,0 0.066,0.004 0.081,0.012 0.015,0.007 0.032,0.011 0.052,0.011 -0.011,-0.015 -0.015,-0.031 -0.015,-0.045 -0.01,-0.016 -0.015,-0.039 -0.015,-0.07 -0.02,0 -0.049,0.008 -0.088,0.023 C -1.26,3.093 -1.29,3.086 -1.31,3.055 -1.29,3.01 -1.258,2.987 -1.214,2.987 h 0.111 c 0.019,-0.046 0.022,-0.116 0.007,-0.208 -0.015,-0.091 0.002,-0.137 0.051,-0.137 0.04,0 0.057,0.008 0.052,0.023 -0.005,0.015 0.002,0.023 0.022,0.023 -0.02,-0.061 -0.084,-0.115 -0.191,-0.161 0.048,-0.046 0.105,-0.077 0.169,-0.092 0.064,-0.015 0.11,-0.038 0.14,-0.069 h -0.059 c -0.02,0 -0.04,-0.015 -0.059,-0.045 0,-0.047 0.017,-0.089 0.052,-0.127 0.034,-0.038 0.071,-0.073 0.11,-0.103 -0.049,0 -0.084,-0.016 -0.103,-0.046 0.029,-0.061 0.059,-0.111 0.088,-0.15 0.03,-0.038 0.054,-0.08 0.073,-0.126 V 1.654 c 0.06,-0.015 0.109,-0.069 0.148,-0.16 0.039,-0.093 0.076,-0.189 0.11,-0.288 0.034,-0.1 0.068,-0.192 0.103,-0.275 0.034,-0.085 0.081,-0.135 0.14,-0.15 -0.019,-0.092 -0.074,-0.191 -0.162,-0.298 0.029,-0.046 0.066,-0.089 0.11,-0.127 0.045,-0.038 0.076,-0.073 0.096,-0.103 -0.029,-0.046 -0.029,-0.092 0,-0.138 0.039,0.015 0.064,0.034 0.074,0.057 0.009,0.023 0.034,0.035 0.073,0.035 0.039,0 0.079,-0.035 0.118,-0.104 0.039,-0.068 0.083,-0.126 0.132,-0.172 -0.068,0 -0.122,-0.023 -0.161,-0.069 0,-0.046 0.004,-0.065 0.014,-0.057 0.01,0.007 0.025,0.011 0.044,0.011 v -0.114 c 0,-0.047 0.01,-0.085 0.029,-0.115 -0.078,-0.062 -0.127,-0.124 -0.147,-0.184 0.02,-0.031 0.025,-0.05 0.015,-0.057 -0.009,-0.008 0.005,-0.012 0.045,-0.012 0.039,0 0.058,0.004 0.058,0.012 0,0.007 0.01,0.011 0.029,0.011 V -1.057 C 0.088,-1.088 0.064,-1.125 0.044,-1.171 0.025,-1.218 0,-1.256 -0.03,-1.286 -0.01,-1.317 0.02,-1.332 0.059,-1.332 v -0.024 c 0,-0.015 -0.01,-0.038 -0.029,-0.068 0.029,-0.031 0.041,-0.069 0.036,-0.115 -0.005,-0.046 0.017,-0.069 0.067,-0.069 h 0.058 c 0.02,0 0.03,-0.015 0.03,-0.047"
             style="fill:#ffffff;fill-opacity:1;fill-rule:nonzero;stroke:none"
             id="path312" />
        </g>
        <g
           id="g314"
           transform="translate(40.8535,23.4022)">
          <path
             d="m 0,0 c -0.006,-0.039 -0.015,-0.094 -0.015,-0.094 -0.001,-0.007 -0.016,-0.087 -0.003,-0.124 0.011,-0.027 0.023,-0.036 0.052,-0.049 L 0.1,-0.299 c 0.022,-0.009 0.082,-0.044 0.131,0.059 0.049,0.105 -0.002,0.132 -0.035,0.147 z m 0.434,-0.204 -0.08,0.038 C 0.362,-0.237 0.383,-0.37 0.295,-0.557 0.214,-0.73 0.112,-0.779 0.05,-0.781 c -0.043,-0.002 -0.079,0.014 -0.15,0.048 -0.134,0.063 -0.19,0.136 -0.155,0.338 0.022,0.124 0.064,0.244 0.091,0.368 0.006,0.031 0.013,0.064 0.016,0.096 l -0.059,0.028 c -0.024,0.011 -0.076,0.036 -0.122,-0.06 -0.043,-0.092 0.017,-0.12 0.037,-0.13 l 0.047,-0.022 -0.187,-0.401 -0.067,0.032 c -0.062,0.029 -0.08,0.048 -0.104,0.082 -0.098,0.144 0.005,0.403 0.085,0.572 0.117,0.247 0.231,0.361 0.335,0.388 0.051,0.012 0.094,0.011 0.176,-0.027 L 0.522,0.283 C 0.593,0.25 0.616,0.259 0.663,0.284 Z"
             style="fill:#ffffff;fill-opacity:1;fill-rule:nonzero;stroke:none"
             id="path316" />
        </g>
        <g
           id="g318"
           transform="translate(41.7586,25.8958)">
          <path
             d="m 0,0 c -0.027,0.012 -0.083,0.039 -0.132,-0.067 -0.048,-0.101 0.016,-0.128 0.04,-0.139 L 0.291,-0.385 C 0.315,-0.397 0.374,-0.422 0.42,-0.323 0.469,-0.218 0.412,-0.194 0.384,-0.18 Z M 0.757,0.086 C 0.794,-0.037 0.732,-0.165 0.713,-0.206 0.694,-0.245 0.651,-0.342 0.563,-0.407 0.554,-0.413 0.534,-0.429 0.508,-0.44 0.487,-0.449 0.45,-0.457 0.447,-0.459 l 0.385,-0.18 -0.202,-0.431 -1.191,0.559 0.202,0.431 0.113,-0.053 c -0.01,0.015 -0.024,0.042 -0.031,0.059 -0.019,0.051 -0.028,0.156 0.039,0.3 0.095,0.202 0.209,0.254 0.286,0.255 C 0.084,0.48 0.111,0.476 0.171,0.448 L 0.583,0.255 C 0.656,0.22 0.728,0.184 0.757,0.086 m -1.302,-1.273 c -0.027,0.013 -0.083,0.039 -0.133,-0.067 -0.047,-0.101 0.017,-0.128 0.04,-0.139 l 0.384,-0.18 c 0.024,-0.011 0.083,-0.035 0.129,0.063 0.049,0.105 -0.008,0.129 -0.037,0.143 z m 0.756,0.086 C 0.249,-1.224 0.187,-1.352 0.167,-1.393 0.149,-1.432 0.106,-1.529 0.018,-1.594 0.008,-1.601 -0.012,-1.617 -0.037,-1.627 -0.058,-1.636 -0.095,-1.645 -0.098,-1.646 l 0.385,-0.181 -0.202,-0.431 -1.191,0.56 0.202,0.43 0.112,-0.052 c -0.009,0.015 -0.024,0.042 -0.03,0.058 -0.019,0.052 -0.028,0.156 0.039,0.301 0.095,0.201 0.209,0.254 0.286,0.254 0.036,0 0.063,-0.004 0.123,-0.032 l 0.412,-0.194 c 0.073,-0.033 0.145,-0.07 0.173,-0.168"
             style="fill:#ffffff;fill-opacity:1;fill-rule:nonzero;stroke:none"
             id="path320" />
        </g>
        <g
           id="g322"
           transform="translate(43.402,29.0989)">
          <path
             d="M 0,0 C -0.026,-0.097 0.024,-0.134 0.082,-0.161 L 0.57,-0.39 0.367,-0.823 l -0.904,0.424 0.203,0.433 0.141,-0.066 c -0.011,0.025 -0.023,0.047 -0.031,0.074 -0.041,0.111 -0.015,0.208 0.001,0.259 L 0.07,0.163 C 0.054,0.126 0.013,0.045 0,0"
             style="fill:#ffffff;fill-opacity:1;fill-rule:nonzero;stroke:none"
             id="path324" />
        </g>
        <g
           id="g326"
           transform="translate(43.7613,29.9703)">
          <path
             d="m 0,0 c -0.025,0.012 -0.08,0.032 -0.125,-0.064 -0.046,-0.099 0.001,-0.126 0.031,-0.14 L 0.015,-0.256 0.11,-0.052 Z M 0.744,0.037 C 0.764,-0.071 0.735,-0.202 0.628,-0.431 0.602,-0.486 0.574,-0.541 0.544,-0.593 0.526,-0.621 0.416,-0.821 0.273,-0.852 0.194,-0.871 0.131,-0.841 0.068,-0.812 l -0.311,0.147 c -0.015,0.006 -0.077,0.032 -0.123,0.071 -0.1,0.089 -0.097,0.222 -0.047,0.38 0.012,0.033 0.041,0.118 0.084,0.209 0.02,0.044 0.041,0.084 0.065,0.126 C -0.193,0.25 -0.09,0.403 0.04,0.431 0.107,0.445 0.159,0.423 0.215,0.396 L 0.446,0.288 0.159,-0.323 0.293,-0.386 c 0.023,-0.011 0.085,-0.049 0.136,0.059 0.046,0.099 -0.015,0.125 -0.037,0.135 L 0.341,-0.168 0.536,0.246 0.584,0.223 C 0.663,0.187 0.725,0.147 0.744,0.037"
             style="fill:#ffffff;fill-opacity:1;fill-rule:nonzero;stroke:none"
             id="path328" />
        </g>
        <g
           id="g330"
           transform="translate(44.9533,30.7997)">
          <path
             d="M 0,0 -0.646,0.304 C -0.665,0.312 -0.728,0.35 -0.774,0.251 -0.818,0.158 -0.749,0.128 -0.733,0.12 l 0.647,-0.303 -0.203,-0.434 -0.904,0.425 0.203,0.433 0.09,-0.042 c -0.009,0.026 -0.023,0.061 -0.022,0.133 -0.001,0.039 0.003,0.11 0.049,0.207 0.016,0.034 0.054,0.111 0.126,0.172 0.128,0.108 0.229,0.063 0.333,0.014 l 0.618,-0.29 z"
             style="fill:#ffffff;fill-opacity:1;fill-rule:nonzero;stroke:none"
             id="path332" />
        </g>
        <g
           id="g334"
           transform="translate(44.8608,32.302)">
          <path
             d="m 0,0 c -0.029,0.013 -0.076,0.027 -0.121,-0.069 -0.006,-0.014 -0.035,-0.073 -0.002,-0.111 0.009,-0.01 0.018,-0.013 0.03,-0.019 l 0.415,-0.195 c 0.032,-0.016 0.077,-0.028 0.122,0.069 0.044,0.096 -0.008,0.12 -0.031,0.132 z M 0.653,-0.306 0.55,-0.258 C 0.575,-0.306 0.589,-0.341 0.589,-0.405 0.589,-0.449 0.58,-0.512 0.533,-0.611 0.521,-0.638 0.46,-0.772 0.36,-0.831 0.313,-0.86 0.274,-0.864 0.257,-0.864 0.211,-0.865 0.169,-0.85 0.089,-0.813 l -0.382,0.179 c -0.02,0.01 -0.041,0.019 -0.06,0.031 -0.03,0.02 -0.147,0.089 -0.116,0.264 0.011,0.067 0.045,0.135 0.053,0.153 0.051,0.108 0.12,0.207 0.218,0.245 0.02,0.007 0.023,0.009 0.044,0.013 l -0.39,0.183 0.203,0.433 1.198,-0.561 z"
             style="fill:#ffffff;fill-opacity:1;fill-rule:nonzero;stroke:none"
             id="path336" />
        </g>
        <g
           id="g338"
           transform="translate(45.418,33.5019)">
          <path
             d="m 0,0 c -0.026,0.012 -0.08,0.032 -0.126,-0.064 -0.046,-0.099 0.001,-0.126 0.032,-0.141 l 0.108,-0.05 0.096,0.203 z M 0.743,0.037 C 0.763,-0.07 0.735,-0.202 0.627,-0.431 0.601,-0.486 0.574,-0.54 0.543,-0.593 0.526,-0.621 0.416,-0.821 0.272,-0.852 0.193,-0.871 0.131,-0.841 0.068,-0.811 l -0.312,0.146 c -0.013,0.006 -0.076,0.033 -0.122,0.071 -0.101,0.09 -0.097,0.221 -0.047,0.38 0.011,0.033 0.04,0.118 0.083,0.209 0.021,0.044 0.042,0.084 0.065,0.126 0.072,0.129 0.174,0.282 0.305,0.31 C 0.107,0.444 0.159,0.423 0.215,0.397 L 0.445,0.288 0.158,-0.323 0.293,-0.386 c 0.023,-0.011 0.085,-0.048 0.135,0.06 0.046,0.098 -0.014,0.124 -0.036,0.134 L 0.341,-0.169 0.535,0.247 0.585,0.224 C 0.663,0.187 0.724,0.146 0.743,0.037"
             style="fill:#ffffff;fill-opacity:1;fill-rule:nonzero;stroke:none"
             id="path340" />
        </g>
        <g
           id="g342"
           transform="translate(42.1334,26.5278)">
          <path
             d="M 0,0 C -0.277,0.397 0.156,0.827 0.551,0.55 0.562,0.543 0.573,0.532 0.581,0.521 0.861,0.126 0.428,-0.31 0.03,-0.03 0.018,-0.022 0.008,-0.011 0,0"
             style="fill:#97be1f;fill-opacity:1;fill-rule:nonzero;stroke:none"
             id="path344" />
        </g>
        <g
           id="g346"
           transform="translate(43.2425,27.7069)">
          <path
             d="m 0,0 c -0.046,-0.099 -0.105,-0.073 -0.128,-0.063 l -0.384,0.18 c -0.023,0.012 -0.088,0.039 -0.04,0.139 0.049,0.105 0.106,0.079 0.133,0.067 L -0.036,0.142 C -0.007,0.129 0.05,0.106 0,0 m 0.028,-0.136 c 0.003,0.001 0.039,0.01 0.06,0.02 0.026,0.009 0.046,0.025 0.055,0.032 0.088,0.065 0.132,0.162 0.15,0.201 0.02,0.041 0.082,0.169 0.044,0.292 C 0.309,0.507 0.236,0.543 0.163,0.577 L -0.249,0.771 C -0.308,0.799 -0.335,0.803 -0.372,0.804 -0.449,0.803 -0.563,0.75 -0.657,0.549 c -0.068,-0.145 -0.059,-0.25 -0.039,-0.3 0.006,-0.017 0.02,-0.044 0.03,-0.06 l -0.112,0.053 -0.202,-0.43 1.191,-0.559 0.202,0.431 z"
             style="fill:#ffffff;fill-opacity:1;fill-rule:nonzero;stroke:none"
             id="path348" />
        </g>
        <g
           id="g350"
           transform="translate(133.6709,1.3156)">
          <path
             d="m 0,0 h -125.609 c -3.669,0 -6.67,3.001 -6.67,6.67 v 97.13 c 0,3.668 3.001,6.67 6.67,6.67 H 0 c 3.668,0 6.67,-3.002 6.67,-6.67 V 6.67 C 6.67,3.001 3.668,0 0,0 Z"
             style="fill:none;stroke:#0091d4;stroke-width:3.706;stroke-linecap:butt;stroke-linejoin:miter;stroke-miterlimit:10;stroke-dasharray:none;stroke-opacity:1"
             id="path352" />
        </g>
      </g>
    </g>
  </g>
</svg>
